{
.appVersion = "1141";
DisplayStrings = (
"/ogonek/uni012F.ccmp/iogonek/uni1DCE/Aogonek E/Eogonek/Iogonek/Oogonek/Oogonekmacron/Uogonek/Aogonek.NAV/Eogonek.NAV/Oogonek.NAV/aogonek/eogonek/oogonek/oogonekmacron/uogonek/aogonek.NAV/eogonek.NAV/oogonek.NAV",
omop
);
classes = (
{
code = "\012  A - Z\012  AE AEacute Aacute Abreve Acircumflex Adieresis Agrave Alpha Alphatonos\012  Amacron Aogonek Aogonek.NAV Aring Aringacute Atilde Beta Cacute Ccaron\012  Ccedilla Ccircumflex Dcaron Dcroat Delta Eacute Ebreve Ecaron Ecircumflex\012  Edieresis Edotaccent Egrave Emacron Eng Eogonek Eogonek.NAV Epsilon\012  Epsilontonos Eta Etatonos Eth Gamma Gbreve Gcircumflex Gcommaaccent Germandbls\012  Hbar Hcircumflex IJ Iacute Ibreve Icircumflex Idieresis Igrave Imacron Iogonek\012  Iota Iotadieresis Iotatonos Itilde Jcircumflex Kappa Kcommaaccent Lacute\012  Lambda Lcaron Lcommaaccent Ldot L_slash Nacute Ncaron Ncommaaccent Ntilde Nu\012  OE Oacute Obreve Ocircumflex Odieresis Ograve Ohungarumlaut Omacron Omega\012  Omegatonos Omicron Omicrontonos Oogonek Oogonek.NAV Oslash Oslashacute Otilde\012  Phi Pi Psi Racute Rcaron Rcommaaccent Rho Sacute Scaron Scedilla Scircumflex\012  Sigma Tau Tbar Tcaron Theta Thorn Uacute Ubreve Ucircumflex Udieresis Ugrave\012  Uhungarumlaut Umacron Uogonek Upsilon Upsilondieresis Upsilontonos Uring\012  Utilde Wacute Wcircumflex Wdieresis Wgrave Xi Yacute Ycircumflex Ydieresis\012  Ygrave Zacute Zcaron Zdotaccent Zeta ampersand Cdotaccent Gdotaccent\012  Tcommaaccent Scommaaccent uni021A uni037F\012";
name = UC_ROMAN;
},
{

glyphs = (
{
color = (222,222,222,1);
glyphname = .notdef;
lastChange = "2018-09-01 23:10:14 +0000";
layers = (
{
layerId = "C698F293-3EC0-4A5A-A3A0-0FDB1F5CF265";
paths = (
{
closed = 1;
nodes = (
"2552 -640 LINE",
"2552 -128 LINE",
"248 -128 LINE",
"248 -640 LINE"
);
},
{
closed = 1;
nodes = (
"2552 1472 LINE",
"2552 1984 LINE",
"248 1984 LINE",
"248 1472 LINE"
);
},
{
closed = 1;
nodes = (
"2552 2176 LINE",
"2552 2688 LINE",
"248 2688 LINE",
"248 2176 LINE"
);
},
{
closed = 1;
nodes = (
"2552 64 LINE",
"2552 576 LINE",
"248 576 LINE",
"248 64 LINE"
);
},
{
closed = 1;
nodes = (
"2552 768 LINE",
"2552 1280 LINE",
"248 1280 LINE",
"248 768 LINE"
);
}
);
width = 2800;
},
{
layerId = "5C20EF92-B63D-42A8-8878-93C2863E0093";
paths = (
{
closed = 1;
nodes = (
"2576 -640 LINE",
"2576 -128 LINE",
"272 -128 LINE",
"272 -640 LINE"
);
},
{
closed = 1;
nodes = (
"2576 1472 LINE",
"2576 1984 LINE",
"272 1984 LINE",
"272 1472 LINE"
);
},
{
closed = 1;
nodes = (
"2576 2176 LINE",
"2576 2688 LINE",
"272 2688 LINE",
"272 2176 LINE"
);
},
{
closed = 1;
nodes = (
"2576 64 LINE",
"2576 576 LINE",
"272 576 LINE",
"272 64 LINE"
);
},
{
closed = 1;
nodes = (
"2576 768 LINE",
"2576 1280 LINE",
"272 1280 LINE",
"272 768 LINE"
);
}
);
width = 2848;
}
);
userData = {
"interface.width-adjustments" = (
-16
);
};
},
{
color = (219,235,247,1);
glyphname = A;
lastChange = "2018-09-04 17:10:17 +0000";
layers = (
{
anchors = (
{
name = bottom;
position = "{952, 0}";
},
{
name = bottom_dd;
position = "{1848, -560}";
},
{
name = ogonek;
position = "{1832, 0}";
},
{
name = right;
position = "{1832, 0}";
},
{
name = tonos;
position = "{680, 2048}";
},
{
name = top;
position = "{952, 2304}";
},
{
name = top0315;
position = "{1896, 2200}";
},
{
name = top_dd;
position = "{1896, 2200}";
}
);
guideLines = (
{
angle = 90;
position = "{2064, 1832}";
}
);
layerId = "C698F293-3EC0-4A5A-A3A0-0FDB1F5CF265";
paths = (
{
closed = 1;
nodes = (
"448 768 LINE",
"448 548 LINE",
"1460 548 LINE",
"1460 768 LINE"
);
},
{
closed = 1;
nodes = (
"940 1724 LINE",
"964 1724 LINE",
"1572 0 LINE",
"1832 0 LINE",
"1080 2048 LINE",
"824 2048 LINE",
"72 0 LINE",
"332 0 LINE"
);
}
);
width = 1904;
},
{
anchors = (
{
name = bottom;
position = "{1084, 12}";
},
{
name = bottom_dd;
position = "{1968, -560}";
},
{
name = ogonek;
position = "{2044, 0}";
},
{
name = right;
position = "{2088, 0}";
},
{
name = tonos;
position = "{568, 2000}";
},
{
name = top;
position = "{1084, 2200}";
},
{
name = top0315;
position = "{2096, 2200}";
},
{
name = top_dd;
position = "{2096, 2200}";
}
);
guideLines = (
{
position = "{0, 1894.75}";
},
{
angle = 90;
position = "{1084, 964}";
}
);
layerId = "5C20EF92-B63D-42A8-8878-93C2863E0093";
paths = (
{
closed = 1;
nodes = (
"492 756 LINE",
"492 384 LINE",
"1676 384 LINE",
"1676 756 LINE"
);
},
{
closed = 1;
nodes = (
"1072 1468 LINE",
"1096 1468 LINE",
"1588 0 LINE",
"2088 0 LINE",
"1332 2048 LINE",
"836 2048 LINE",
"80 0 LINE",
"580 0 LINE"
);
}
);
width = 2168;
}
);
leftKerningGroup = A;
rightKerningGroup = A;
unicode = 0041;
userData = {
com.typemytype.robofont.guideline.magnetic.9EkLRXjahr = 5;
"interface.width-adjustments" = (
-16
);
};
},
{
glyphname = uni023A;
lastChange = "2018-09-01 23:10:14 +0000";
layers = (
{
layerId = "C698F293-3EC0-4A5A-A3A0-0FDB1F5CF265";
paths = (
{
closed = 1;
nodes = (
"1464 2176 LINE",
"120 -192 LINE",
"352 -192 LINE",
"1696 2176 LINE"
);
},
{
closed = 1;
nodes = (
"448 768 LINE",
"448 548 LINE",
"1460 548 LINE",
"1460 768 LINE"
);
},
{
closed = 1;
nodes = (
"940 1724 LINE",
"964 1724 LINE",
"1572 0 LINE",
"1832 0 LINE",
"1080 2048 LINE",
"824 2048 LINE",
"72 0 LINE",
"332 0 LINE"
);
}
);
width = 1904;
},
{
layerId = "5C20EF92-B63D-42A8-8878-93C2863E0093";
paths = (
{
closed = 1;
nodes = (
"1668 2176 LINE",
"168 -256 LINE",
"460 -256 LINE",
"1960 2176 LINE"
);
},
{
closed = 1;
nodes = (
"492 756 LINE",
"492 384 LINE",
"1676 384 LINE",
"1676 756 LINE"
);
},
{
closed = 1;
nodes = (
"1072 1468 LINE",
"1096 1468 LINE",
"1588 0 LINE",
"2088 0 LINE",
"1332 2048 LINE",
"836 2048 LINE",
"80 0 LINE",
"580 0 LINE"
);
}
);
width = 2168;
}
);
leftKerningGroup = A;
rightKerningGroup = A;
unicode = 023A;
userData = {
interface.gridadjust.original = "{'width': 1855, 'leftMargin': -226, 'rightMargin': -8}";
};
},
{
glyphname = Lambda;
lastChange = "2018-09-01 23:10:14 +0000";
layers = (
{
layerId = "C698F293-3EC0-4A5A-A3A0-0FDB1F5CF265";
paths = (
{
closed = 1;
nodes = (
"940 1724 LINE",
"964 1724 LINE",
"1572 0 LINE",
"1832 0 LINE",
"1080 2048 LINE",
"824 2048 LINE",
"72 0 LINE",
"332 0 LINE"
);
}
);
width = 1904;
},
{
layerId = "5C20EF92-B63D-42A8-8878-93C2863E0093";
paths = (
{
closed = 1;
nodes = (
"1072 1468 LINE",
"1096 1468 LINE",
"1588 0 LINE",
"2088 0 LINE",
"1332 2048 LINE",
"836 2048 LINE",
"80 0 LINE",
"580 0 LINE"
);
}
);
width = 2168;
}
);
leftKerningGroup = Alphagreek;
rightKerningGroup = Alphagreek;
unicode = 039B;
userData = {
interface.gridadjust.original = "{'width': 1851, 'leftMargin': 63, 'rightMargin': 77}";
"interface.width-adjustments" = (
-16
);
};
},
{
glyphname = AE;
lastChange = "2018-09-01 23:10:14 +0000";
layers = (
{
anchors = (
{
name = top;
position = "{1476, 2304}";
},
{
name = top0315;
position = "{2736, 2216}";
},
{
name = top_dd;
position = "{2736, 2200}";
}
);
layerId = "C698F293-3EC0-4A5A-A3A0-0FDB1F5CF265";
paths = (
{
closed = 1;
nodes = (
"1448 2048 LINE",
"1272 2048 LINE",
"60 0 LINE",
"356 0 LINE",
"1424 1860 LINE"
);
},
{
closed = 1;
nodes = (
"604 768 LINE",
"604 552 LINE",
"1640 552 LINE",
"1640 768 LINE"
);
},
{
closed = 1;
nodes = (
"1684 220 LINE",
"1684 0 LINE",
"2692 0 LINE",
"2692 220 LINE"
);
},
{
closed = 1;
nodes = (
"1404 2048 LINE",
"1488 0 LINE",
"1732 0 LINE",
"1648 2048 LINE"
);
},
{
closed = 1;
nodes = (
"1628 1152 LINE",
"1628 932 LINE",
"2496 932 LINE",
"2496 1152 LINE"
);
},
{
closed = 1;
nodes = (
"1600 2048 LINE",
"1600 1828 LINE",
"2608 1828 LINE",
"2608 2048 LINE"
);
}
);
width = 2848;
},
{
anchors = (
{
name = top;
position = "{1348, 2216}";
},
{
name = top0315;
position = "{2712, 2216}";
},
{
name = top_dd;
position = "{2712, 2200}";
}
);
layerId = "5C20EF92-B63D-42A8-8878-93C2863E0093";
paths = (
{
closed = 1;
nodes = (
"1392 2048 LINE",
"1112 2048 LINE",
"80 0 LINE",
"596 0 LINE",
"1444 1828 LINE"
);
},
{
closed = 1;
nodes = (
"532 756 LINE",
"532 384 LINE",
"1564 384 LINE",
"1564 756 LINE"
);
},
{
closed = 1;
nodes = (
"1612 364 LINE",
"1612 0 LINE",
"2616 0 LINE",
"2616 364 LINE"
);
},
{
closed = 1;
nodes = (
"1300 2048 LINE",
"1384 0 LINE",
"1824 0 LINE",
"1744 2048 LINE"
);
},
{
closed = 1;
nodes = (
"1552 1204 LINE",
"1552 844 LINE",
"2420 844 LINE",
"2420 1204 LINE"
);
},
{
closed = 1;
nodes = (
"1528 2048 LINE",
"1528 1684 LINE",
"2532 1684 LINE",
"2532 2048 LINE"
);
}
);
width = 2744;
}
);
leftKerningGroup = AE;
rightKerningGroup = AE;
unicode = 00C6;
userData = {
interface.gridadjust.original = "{'width': 2647, 'leftMargin': -30, 'rightMargin': 45}";
"interface.width-adjustments" = (
-16
);
};
},
{
color = (219,235,247,1);
glyphname = B;
lastChange = "2018-09-01 23:10:14 +0000";
layers = (
{
anchors = (
{
name = bottom;
position = "{888, 16}";
},
{
name = bottom_dd;
position = "{1796, -560}";
},
{
name = top;
position = "{876, 2304}";
},
{
name = top0315;
position = "{1796, 2216}";
},
{
name = top_dd;
position = "{1796, 2200}";
}
);
guideLines = (
{
angle = 90;
position = "{924, 1772}";
},
{
angle = 90;
position = "{1612, 1340}";
}
);
layerId = "C698F293-3EC0-4A5A-A3A0-0FDB1F5CF265";
paths = (
{
closed = 1;
nodes = (
"1000 1044 LINE",
"1236 1044 OFFCURVE",
"1592 1104 OFFCURVE",
"1592 1504 CURVE",
"1592 1804 OFFCURVE",
"1392 2048 OFFCURVE",
"964 2048 CURVE",
"248 2048 LINE",
"248 0 LINE",
"496 0 LINE",
"496 1828 LINE",
"964 1828 LINE",
"1236 1828 OFFCURVE",
"1356 1684 OFFCURVE",
"1356 1504 CURVE",
"1356 1288 OFFCURVE",
"1180 1148 OFFCURVE",
"956 1148 CURVE",
"448 1148 LINE",
"448 932 LINE",
"1000 932 LINE"
);
},
{
closed = 1;
nodes = (
"1472 0 OFFCURVE",
"1672 236 OFFCURVE",
"1672 544 CURVE SMOOTH",
"1672 868 OFFCURVE",
"1448 1044 OFFCURVE",
"1260 1056 CURVE",
"1260 1148 LINE",
"560 1148 LINE",
"560 932 LINE",
"1000 932 LINE SMOOTH",
"1268 932 OFFCURVE",
"1436 752 OFFCURVE",
"1436 544 CURVE SMOOTH",
"1436 364 OFFCURVE",
"1312 220 OFFCURVE",
"988 220 CURVE SMOOTH",
"368 220 LINE",
"368 0 LINE",
"988 0 LINE"
);
}
);
width = 1832;
},
{
anchors = (
{
name = bottom;
position = "{928, 24}";
},
{
name = bottom_dd;
position = "{1920, -560}";
},
{
name = top;
position = "{876, 2260}";
},
{
name = top0315;
position = "{1920, 2260}";
},
{
name = top_dd;
position = "{1920, 2244}";
}
);
layerId = "5C20EF92-B63D-42A8-8878-93C2863E0093";
paths = (
{
closed = 1;
nodes = (
"1096 1040 LINE",
"1488 1044 OFFCURVE",
"1648 1220 OFFCURVE",
"1648 1488 CURVE",
"1648 1816 OFFCURVE",
"1408 2048 OFFCURVE",
"912 2048 CURVE",
"144 2048 LINE",
"144 0 LINE",
"608 0 LINE",
"608 1664 LINE",
"900 1664 LINE",
"1128 1664 OFFCURVE",
"1188 1548 OFFCURVE",
"1188 1424 CURVE",
"1188 1268 OFFCURVE",
"1096 1196 OFFCURVE",
"872 1196 CURVE",
"436 1196 LINE",
"436 876 LINE",
"964 876 LINE"
);
},
{
closed = 1;
nodes = (
"1440 0 OFFCURVE",
"1688 224 OFFCURVE",
"1688 556 CURVE SMOOTH",
"1688 820 OFFCURVE",
"1532 1012 OFFCURVE",
"1288 1044 CURVE",
"1288 1196 LINE",
"548 1196 LINE",
"548 876 LINE",
"964 876 LINE SMOOTH",
"1156 876 OFFCURVE",
"1232 760 OFFCURVE",
"1232 620 CURVE SMOOTH",
"1232 472 OFFCURVE",
"1148 384 OFFCURVE",
"948 384 CURVE SMOOTH",
"380 384 LINE",
"380 0 LINE",
"984 0 LINE"
);
}
);
width = 1784;
}
);
leftKerningGroup = B;
rightKerningGroup = B;
unicode = 0042;
userData = {
com.typemytype.robofont.guideline.magnetic.olHMUUD5VH = 5;
com.typemytype.robofont.guideline.magnetic.rWKPWS6RQH = 5;
"interface.width-adjustments" = (
-16
);
};
},
{
glyphname = Bhook;
lastChange = "2018-09-01 23:10:14 +0000";
layers = (
{
layerId = "C698F293-3EC0-4A5A-A3A0-0FDB1F5CF265";
paths = (
{
closed = 1;
nodes = (
"616 2048 LINE",
"416 2048 LINE SMOOTH",
"152 2048 OFFCURVE",
"8 1864 OFFCURVE",
"8 1640 CURVE SMOOTH",
"8 1504 LINE",
"240 1504 LINE",
"240 1580 LINE SMOOTH",
"240 1708 OFFCURVE",
"260 1828 OFFCURVE",
"420 1828 CURVE SMOOTH",
"616 1828 LINE"
);
},
{
closed = 1;
nodes = (
"1300 1044 LINE",
"1536 1044 OFFCURVE",
"1892 1104 OFFCURVE",
"1892 1504 CURVE",
"1892 1804 OFFCURVE",
"1692 2048 OFFCURVE",
"1264 2048 CURVE",
"548 2048 LINE",
"548 0 LINE",
"796 0 LINE",
"796 1828 LINE",
"1264 1828 LINE",
"1536 1828 OFFCURVE",
"1656 1684 OFFCURVE",
"1656 1504 CURVE",
"1656 1288 OFFCURVE",
"1480 1148 OFFCURVE",
"1256 1148 CURVE",
"748 1148 LINE",
"748 932 LINE",
"1300 932 LINE"
);
},
{
closed = 1;
nodes = (
"1772 0 OFFCURVE",
"1972 236 OFFCURVE",
"1972 544 CURVE SMOOTH",
"1972 868 OFFCURVE",
"1748 1044 OFFCURVE",
"1560 1056 CURVE",
"1560 1148 LINE",
"860 1148 LINE",
"860 932 LINE",
"1300 932 LINE SMOOTH",
"1568 932 OFFCURVE",
"1736 752 OFFCURVE",
"1736 544 CURVE SMOOTH",
"1736 364 OFFCURVE",
"1612 220 OFFCURVE",
"1288 220 CURVE SMOOTH",
"668 220 LINE",
"668 0 LINE",
"1288 0 LINE"
);
}
);
width = 2132;
},
{
layerId = "5C20EF92-B63D-42A8-8878-93C2863E0093";
paths = (
{
closed = 1;
nodes = (
"940 2048 LINE",
"628 2048 LINE SMOOTH",
"252 2048 OFFCURVE",
"16 1840 OFFCURVE",
"16 1496 CURVE SMOOTH",
"16 1284 LINE",
"428 1284 LINE",
"428 1412 LINE SMOOTH",
"428 1536 OFFCURVE",
"468 1668 OFFCURVE",
"628 1668 CURVE SMOOTH",
"940 1668 LINE {name = hr00;}"
);
},
{
closed = 1;
nodes = (
"1624 1040 LINE",
"2016 1044 OFFCURVE",
"2176 1220 OFFCURVE",
"2176 1488 CURVE",
"2176 1816 OFFCURVE",
"1936 2048 OFFCURVE",
"1440 2048 CURVE",
"672 2048 LINE",
"672 0 LINE",
"1136 0 LINE",
"1136 1664 LINE",
"1428 1664 LINE",
"1656 1664 OFFCURVE",
"1716 1548 OFFCURVE",
"1716 1424 CURVE",
"1716 1268 OFFCURVE",
"1624 1196 OFFCURVE",
"1400 1196 CURVE",
"964 1196 LINE",
"964 876 LINE",
"1492 876 LINE"
);
},
{
closed = 1;
nodes = (
"1968 0 OFFCURVE",
"2216 224 OFFCURVE",
"2216 556 CURVE SMOOTH",
"2216 820 OFFCURVE",
"2060 1012 OFFCURVE",
"1816 1044 CURVE",
"1816 1196 LINE",
"1076 1196 LINE",
"1076 876 LINE",
"1492 876 LINE SMOOTH",
"1684 876 OFFCURVE",
"1760 760 OFFCURVE",
"1760 620 CURVE SMOOTH",
"1760 472 OFFCURVE",
"1676 384 OFFCURVE",
"1476 384 CURVE SMOOTH",
"908 384 LINE",
"908 0 LINE",
"1512 0 LINE"
);
}
);
width = 2312;
}
);
rightKerningGroup = B;
unicode = 0181;
userData = {
interface.gridadjust.original = "{'width': 2046.0, 'leftMargin': 41, 'rightMargin': 100.0}";
"interface.width-adjustments" = (
-16
);
};
},
{
color = (219,235,247,1);
glyphname = C;
lastChange = "2018-09-01 23:10:14 +0000";
layers = (
{
anchors = (
{
name = bottom;
position = "{1072, -16}";
},
{
name = bottom_dd;
position = "{1940, -560}";
},
{
name = top;
position = "{1072, 2304}";
},
{
name = top0315;
position = "{1940, 2244}";
},
{
name = top_dd;
position = "{1940, 2200}";
}
);
guideLines = (
{
angle = 90;
position = "{1064, 1432}";
}
);
layerId = "C698F293-3EC0-4A5A-A3A0-0FDB1F5CF265";
paths = (
{
closed = 1;
nodes = (
"1820 1828 OFFCURVE",
"1484 2076 OFFCURVE",
"1072 2076 CURVE SMOOTH",
"548 2076 OFFCURVE",
"168 1672 OFFCURVE",
"168 1024 CURVE",
"168 376 OFFCURVE",
"548 -28 OFFCURVE",
"1072 -28 CURVE SMOOTH",
"1484 -28 OFFCURVE",
"1820 220 OFFCURVE",
"1896 640 CURVE",
"1648 640 LINE",
"1588 356 OFFCURVE",
"1344 204 OFFCURVE",
"1072 204 CURVE SMOOTH",
"700 204 OFFCURVE",
"408 492 OFFCURVE",
"408 1024 CURVE",
"408 1556 OFFCURVE",
"700 1844 OFFCURVE",
"1072 1844 CURVE SMOOTH",
"1344 1844 OFFCURVE",
"1588 1692 OFFCURVE",
"1648 1408 CURVE",
"1896 1408 LINE"
);
}
);
width = 2048;
},
{
anchors = (
{
name = bottom;
position = "{1024, 0}";
},
{
name = bottom_dd;
position = "{1932, -560}";
},
{
name = top;
position = "{1024, 2200}";
},
{
name = top0315;
position = "{1932, 2200}";
},
{
name = top_dd;
position = "{1932, 2200}";
}
);
guideLines = (
{
angle = 8.0272;
position = "{1364, 1340}";
},
{
angle = 351.9643;
position = "{1360, 696}";
},
{
angle = 90;
position = "{1024, 2104}";
}
);
layerId = "5C20EF92-B63D-42A8-8878-93C2863E0093";
paths = (
{
closed = 1;
nodes = (
"1764 1836 OFFCURVE",
"1432 2076 OFFCURVE",
"1024 2076 CURVE SMOOTH",
"504 2076 OFFCURVE",
"120 1688 OFFCURVE",
"120 1020 CURVE",
"120 356 OFFCURVE",
"504 -28 OFFCURVE",
"1024 -28 CURVE SMOOTH",
"1432 -28 OFFCURVE",
"1760 208 OFFCURVE",
"1872 632 CURVE",
"1420 696 LINE",
"1360 488 OFFCURVE",
"1216 388 OFFCURVE",
"1024 388 CURVE SMOOTH",
"764 388 OFFCURVE",
"588 568 OFFCURVE",
"588 1020 CURVE",
"588 1472 OFFCURVE",
"764 1660 OFFCURVE",
"1024 1660 CURVE SMOOTH",
"1216 1660 OFFCURVE",
"1368 1556 OFFCURVE",
"1428 1340 CURVE",
"1876 1404 LINE"
);
}
);
width = 1984;
}
);
leftKerningGroup = C;
rightKerningGroup = C;
unicode = 0043;
userData = {
com.typemytype.robofont.guideline.magnetic.ju3ppiFr9V = 5;
"interface.width-adjustments" = (
-16
);
};
},
{
glyphname = Chook;
lastChange = "2018-09-01 23:10:14 +0000";
layers = (
{
layerId = "C698F293-3EC0-4A5A-A3A0-0FDB1F5CF265";
paths = (
{
closed = 1;
nodes = (
"1896 1664 LINE SMOOTH",
"1896 1824 OFFCURVE",
"1992 1872 OFFCURVE",
"2120 1872 CURVE SMOOTH",
"2148 1872 OFFCURVE",
"2176 1868 OFFCURVE",
"2196 1864 CURVE",
"2196 2064 LINE",
"2160 2076 OFFCURVE",
"2108 2076 OFFCURVE",
"2060 2076 CURVE SMOOTH",
"1836 2076 OFFCURVE",
"1660 1928 OFFCURVE",
"1660 1664 CURVE SMOOTH",
"1660 1408 LINE",
"1896 1408 LINE"
);
},
{
closed = 1;
nodes = (
"1820 1828 OFFCURVE",
"1484 2076 OFFCURVE",
"1072 2076 CURVE SMOOTH",
"548 2076 OFFCURVE",
"168 1672 OFFCURVE",
"168 1024 CURVE",
"168 376 OFFCURVE",
"548 -28 OFFCURVE",
"1072 -28 CURVE SMOOTH",
"1484 -28 OFFCURVE",
"1820 220 OFFCURVE",
"1896 640 CURVE",
"1648 640 LINE",
"1588 356 OFFCURVE",
"1344 204 OFFCURVE",
"1072 204 CURVE SMOOTH",
"700 204 OFFCURVE",
"408 492 OFFCURVE",
"408 1024 CURVE",
"408 1556 OFFCURVE",
"700 1844 OFFCURVE",
"1072 1844 CURVE SMOOTH",
"1344 1844 OFFCURVE",
"1588 1692 OFFCURVE",
"1648 1408 CURVE",
"1896 1408 LINE"
);
}
);
width = 2172;
},
{
guideLines = (
{
angle = 90;
position = "{-1571.625, 0}";
}
);
layerId = "5C20EF92-B63D-42A8-8878-93C2863E0093";
paths = (
{
closed = 1;
nodes = (
"1876 1496 LINE SMOOTH",
"1876 1696 OFFCURVE",
"2032 1760 OFFCURVE",
"2156 1760 CURVE",
"2188 1760 OFFCURVE",
"2252 1756 OFFCURVE",
"2284 1756 CURVE",
"2284 2128 LINE",
"2208 2140 OFFCURVE",
"2144 2140 OFFCURVE",
"2072 2140 CURVE SMOOTH",
"1728 2140 OFFCURVE",
"1428 1936 OFFCURVE",
"1428 1560 CURVE SMOOTH",
"1428 1340 LINE",
"1876 1340 LINE {name = hr00;}"
);
},
{
closed = 1;
nodes = (
"1764 1836 OFFCURVE",
"1432 2076 OFFCURVE",
"1024 2076 CURVE SMOOTH",
"504 2076 OFFCURVE",
"120 1688 OFFCURVE",
"120 1020 CURVE",
"120 356 OFFCURVE",
"504 -28 OFFCURVE",
"1024 -28 CURVE SMOOTH",
"1432 -28 OFFCURVE",
"1760 208 OFFCURVE",
"1872 632 CURVE",
"1420 696 LINE",
"1360 488 OFFCURVE",
"1216 388 OFFCURVE",
"1024 388 CURVE SMOOTH",
"764 388 OFFCURVE",
"588 568 OFFCURVE",
"588 1020 CURVE",
"588 1472 OFFCURVE",
"764 1660 OFFCURVE",
"1024 1660 CURVE SMOOTH",
"1216 1660 OFFCURVE",
"1368 1556 OFFCURVE",
"1428 1340 CURVE",
"1876 1404 LINE"
);
}
);
width = 2232;
}
);
unicode = 0187;
userData = {
interface.gridadjust.original = "{'width': 1998, 'leftMargin': 256, 'rightMargin': -44}";
};
},
{
glyphname = uni023B;
lastChange = "2018-09-01 23:10:14 +0000";
layers = (
{
guideLines = (
{
angle = 90;
position = "{1016, 1756}";
}
);
layerId = "C698F293-3EC0-4A5A-A3A0-0FDB1F5CF265";
paths = (
{
closed = 1;
nodes = (
"1600 2164 LINE",
"1428 2236 LINE",
"464 -120 LINE",
"636 -192 LINE"
);
},
{
closed = 1;
nodes = (
"1820 1824 OFFCURVE",
"1484 2072 OFFCURVE",
"1072 2072 CURVE SMOOTH",
"548 2072 OFFCURVE",
"168 1668 OFFCURVE",
"168 1020 CURVE",
"168 372 OFFCURVE",
"548 -32 OFFCURVE",
"1072 -32 CURVE SMOOTH",
"1484 -32 OFFCURVE",
"1820 216 OFFCURVE",
"1896 636 CURVE",
"1648 636 LINE",
"1588 352 OFFCURVE",
"1344 200 OFFCURVE",
"1072 200 CURVE SMOOTH",
"700 200 OFFCURVE",
"408 488 OFFCURVE",
"408 1020 CURVE",
"408 1552 OFFCURVE",
"700 1840 OFFCURVE",
"1072 1840 CURVE SMOOTH",
"1344 1840 OFFCURVE",
"1588 1688 OFFCURVE",
"1648 1404 CURVE",
"1896 1404 LINE"
);
}
);
width = 2048;
},
{
layerId = "5C20EF92-B63D-42A8-8878-93C2863E0093";
paths = (
{
closed = 1;
nodes = (
"1548 2176 LINE",
"1320 2260 LINE",
"452 -132 LINE",
"680 -216 LINE"
);
},
{
closed = 1;
nodes = (
"1764 1836 OFFCURVE",
"1432 2076 OFFCURVE",
"1024 2076 CURVE SMOOTH",
"504 2076 OFFCURVE",
"120 1688 OFFCURVE",
"120 1020 CURVE",
"120 356 OFFCURVE",
"504 -28 OFFCURVE",
"1024 -28 CURVE SMOOTH",
"1432 -28 OFFCURVE",
"1760 208 OFFCURVE",
"1872 632 CURVE",
"1420 696 LINE",
"1360 488 OFFCURVE",
"1216 388 OFFCURVE",
"1024 388 CURVE SMOOTH",
"764 388 OFFCURVE",
"588 568 OFFCURVE",
"588 1020 CURVE",
"588 1472 OFFCURVE",
"764 1660 OFFCURVE",
"1024 1660 CURVE SMOOTH",
"1216 1660 OFFCURVE",
"1368 1556 OFFCURVE",
"1428 1340 CURVE",
"1876 1404 LINE"
);
}
);
width = 1984;
}
);
leftKerningGroup = C;
rightKerningGroup = C;
unicode = 023B;
userData = {
com.typemytype.robofont.guideline.magnetic.7GS4PBDdqi = 5;
interface.gridadjust.original = "{'width': 1834, 'leftMargin': 256, 'rightMargin': 2}";
"interface.width-adjustments" = (
-16
);
};
},
{
color = (219,235,247,1);
glyphname = D;
lastChange = "2018-09-01 23:10:14 +0000";
layers = (
{
anchors = (
{
name = bottom;
position = "{856, 16}";
},
{
name = bottom_dd;
position = "{1856, -560}";
},
{
name = cross;
position = "{444, 1016}";
},
{
name = top;
position = "{848, 2304}";
},
{
name = top0315;
position = "{1856, 2216}";
},
{
name = top_dd;
position = "{1856, 2200}";
}
);
layerId = "C698F293-3EC0-4A5A-A3A0-0FDB1F5CF265";
paths = (
{
closed = 1;
nodes = (
"1504 0 OFFCURVE",
"1856 388 OFFCURVE",
"1856 1028 CURVE",
"1856 1664 OFFCURVE",
"1504 2048 OFFCURVE",
"908 2048 CURVE",
"376 2048 LINE",
"376 1828 LINE",
"892 1828 LINE",
"1372 1828 OFFCURVE",
"1616 1524 OFFCURVE",
"1616 1028 CURVE",
"1616 528 OFFCURVE",
"1372 220 OFFCURVE",
"864 220 CURVE",
"388 220 LINE",
"388 0 LINE",
"880 0 LINE"
);
},
{
closed = 1;
nodes = (
"248 2048 LINE",
"248 0 LINE",
"496 0 LINE",
"496 2048 LINE"
);
}
);
width = 2024;
},
{
anchors = (
{
name = bottom;
position = "{784, 16}";
},
{
name = bottom_dd;
position = "{1924, -560}";
},
{
name = cross;
position = "{552, 1000}";
},
{
name = top;
position = "{784, 2200}";
},
{
name = top0315;
position = "{1924, 2200}";
},
{
name = top_dd;
position = "{1924, 2200}";
}
);
guideLines = (
{
position = "{1908, 1024}";
},
{
position = "{0, 763.125}";
},
{
position = "{0, 1549.625}";
},
{
position = "{1872, 1696}";
},
{
position = "{1872, 348}";
},
{
position = "{1408, 1480}";
},
{
position = "{1472, 560}";
}
);
layerId = "5C20EF92-B63D-42A8-8878-93C2863E0093";
paths = (
{
closed = 1;
nodes = (
"1468 0 OFFCURVE",
"1840 384 OFFCURVE",
"1840 1024 CURVE",
"1840 1664 OFFCURVE",
"1468 2048 OFFCURVE",
"868 2048 CURVE",
"336 2048 LINE",
"336 1648 LINE",
"844 1648 LINE",
"1188 1648 OFFCURVE",
"1372 1472 OFFCURVE",
"1372 1024 CURVE",
"1372 576 OFFCURVE",
"1188 400 OFFCURVE",
"848 400 CURVE",
"344 400 LINE",
"344 0 LINE",
"868 0 LINE"
);
},
{
closed = 1;
nodes = (
"144 2048 LINE",
"144 0 LINE",
"608 0 LINE",
"608 2048 LINE"
);
}
);
width = 1960;
}
);
leftKerningGroup = B;
rightKerningGroup = D;
unicode = 0044;
userData = {
"interface.width-adjustments" = (
-16
);
};
},
{
glyphname = Dhook;
lastChange = "2018-09-01 23:10:14 +0000";
layers = (
{
layerId = "C698F293-3EC0-4A5A-A3A0-0FDB1F5CF265";
paths = (
{
closed = 1;
nodes = (
"616 2048 LINE",
"416 2048 LINE SMOOTH",
"152 2048 OFFCURVE",
"8 1864 OFFCURVE",
"8 1640 CURVE SMOOTH",
"8 1504 LINE",
"240 1504 LINE",
"240 1580 LINE SMOOTH",
"240 1708 OFFCURVE",
"260 1828 OFFCURVE",
"420 1828 CURVE SMOOTH",
"616 1828 LINE"
);
},
{
closed = 1;
nodes = (
"1820 0 OFFCURVE",
"2172 388 OFFCURVE",
"2172 1028 CURVE",
"2172 1664 OFFCURVE",
"1820 2048 OFFCURVE",
"1224 2048 CURVE",
"692 2048 LINE",
"692 1828 LINE",
"1208 1828 LINE",
"1688 1828 OFFCURVE",
"1932 1524 OFFCURVE",
"1932 1028 CURVE",
"1932 528 OFFCURVE",
"1688 220 OFFCURVE",
"1180 220 CURVE",
"704 220 LINE",
"704 0 LINE",
"1196 0 LINE"
);
},
{
closed = 1;
nodes = (
"564 2048 LINE",
"564 0 LINE",
"812 0 LINE",
"812 2048 LINE"
);
}
);
width = 2340;
},
{
layerId = "5C20EF92-B63D-42A8-8878-93C2863E0093";
paths = (
{
closed = 1;
nodes = (
"940 2048 LINE",
"628 2048 LINE SMOOTH",
"252 2048 OFFCURVE",
"16 1840 OFFCURVE",
"16 1496 CURVE SMOOTH",
"16 1284 LINE",
"428 1284 LINE",
"428 1412 LINE SMOOTH",
"428 1536 OFFCURVE",
"468 1648 OFFCURVE",
"628 1648 CURVE SMOOTH",
"940 1648 LINE {name = hr00;}"
);
},
{
closed = 1;
nodes = (
"2000 0 OFFCURVE",
"2372 384 OFFCURVE",
"2372 1024 CURVE",
"2372 1664 OFFCURVE",
"2000 2048 OFFCURVE",
"1400 2048 CURVE",
"868 2048 LINE",
"868 1648 LINE",
"1376 1648 LINE",
"1720 1648 OFFCURVE",
"1904 1472 OFFCURVE",
"1904 1024 CURVE",
"1904 576 OFFCURVE",
"1720 400 OFFCURVE",
"1380 400 CURVE",
"876 400 LINE",
"876 0 LINE",
"1400 0 LINE"
);
},
{
closed = 1;
nodes = (
"676 2048 LINE",
"676 0 LINE",
"1140 0 LINE",
"1140 2048 LINE"
);
}
);
width = 2492;
}
);
rightKerningGroup = D;
unicode = 018A;
userData = {
interface.gridadjust.original = "{'width': 2134.0, 'leftMargin': 41, 'rightMargin': 184.0}";
};
},
{
color = (219,235,247,1);
glyphname = E;
lastChange = "2018-09-04 17:06:09 +0000";
layers = (
{
anchors = (
{
name = bottom;
position = "{888, 16}";
},
{
name = bottom_dd;
position = "{1636, -560}";
},
{
name = ogonek;
position = "{1500, 0}";
},
{
name = tonos;
position = "{8, 2048}";
},
{
name = top;
position = "{888, 2304}";
},
{
name = top0315;
position = "{1636, 2216}";
},
{
name = top_dd;
position = "{1636, 2200}";
}
);
layerId = "C698F293-3EC0-4A5A-A3A0-0FDB1F5CF265";
paths = (
{
closed = 1;
nodes = (
"432 220 LINE",
"432 0 LINE",
"1500 0 LINE",
"1500 220 LINE"
);
},
{
closed = 1;
nodes = (
"248 2048 LINE",
"248 0 LINE",
"496 0 LINE",
"496 2048 LINE"
);
},
{
closed = 1;
nodes = (
"432 1136 LINE",
"432 916 LINE",
"1380 916 LINE",
"1380 1136 LINE"
);
},
{
closed = 1;
nodes = (
"432 2048 LINE",
"432 1828 LINE",
"1484 1828 LINE",
"1484 2048 LINE"
);
}
);
width = 1684;
},
{
anchors = (
{
name = bottom;
position = "{900, 16}";
},
{
name = bottom_dd;
position = "{1648, -560}";
},
{
name = ogonek;
position = "{1292, 0}";
},
{
name = tonos;
position = "{-72, 2004}";
},
{
name = top;
position = "{848, 2200}";
},
{
name = top0315;
position = "{1584, 2200}";
},
{
name = top_dd;
position = "{1584, 2200}";
}
);
guideLines = (
{
position = "{0, 1358.5}";
}
);
layerId = "5C20EF92-B63D-42A8-8878-93C2863E0093";
paths = (
{
closed = 1;
nodes = (
"448 384 LINE",
"448 0 LINE",
"1512 0 LINE",
"1512 384 LINE"
);
},
{
closed = 1;
nodes = (
"144 2048 LINE",
"144 0 LINE",
"608 0 LINE",
"608 2048 LINE"
);
},
{
closed = 1;
nodes = (
"448 1216 LINE",
"448 832 LINE",
"1372 832 LINE",
"1372 1216 LINE"
);
},
{
closed = 1;
nodes = (
"448 2048 LINE",
"448 1664 LINE",
"1512 1664 LINE",
"1512 2048 LINE"
);
}
);
width = 1656;
}
);
leftKerningGroup = B;
rightKerningGroup = E;
unicode = 0045;
userData = {
"interface.width-adjustments" = (
-16
);
};
},
{
glyphname = uni0246;
lastChange = "2018-09-01 23:10:14 +0000";
layers = (
{
layerId = "C698F293-3EC0-4A5A-A3A0-0FDB1F5CF265";
paths = (
{
closed = 1;
nodes = (
"1352 2208 LINE",
"1176 2264 LINE",
"408 -164 LINE",
"584 -220 LINE"
);
},
{
closed = 1;
nodes = (
"432 220 LINE",
"432 0 LINE",
"1500 0 LINE",
"1500 220 LINE"
);
},
{
closed = 1;
nodes = (
"248 2048 LINE",
"248 0 LINE",
"496 0 LINE",
"496 2048 LINE"
);
},
{
closed = 1;
nodes = (
"432 1136 LINE",
"432 916 LINE",
"1380 916 LINE",
"1380 1136 LINE"
);
},
{
closed = 1;
nodes = (
"432 2048 LINE",
"432 1828 LINE",
"1484 1828 LINE",
"1484 2048 LINE"
);
}
);
width = 1668;
},
{
layerId = "5C20EF92-B63D-42A8-8878-93C2863E0093";
paths = (
{
closed = 1;
nodes = (
"1388 2188 LINE",
"1160 2268 LINE",
"340 -144 LINE",
"568 -224 LINE"
);
},
{
closed = 1;
nodes = (
"448 384 LINE",
"448 0 LINE",
"1512 0 LINE",
"1512 384 LINE"
);
},
{
closed = 1;
nodes = (
"144 2048 LINE",
"144 0 LINE",
"608 0 LINE",
"608 2048 LINE"
);
},
{
closed = 1;
nodes = (
"448 1216 LINE",
"448 832 LINE",
"1372 832 LINE",
"1372 1216 LINE"
);
},
{
closed = 1;
nodes = (
"448 2048 LINE",
"448 1664 LINE",
"1512 1664 LINE",
"1512 2048 LINE"
);
}
);
width = 1824;
}
);
leftKerningGroup = B;
rightKerningGroup = E;
unicode = 0246;
userData = {
interface.gridadjust.original = "{'width': 1601, 'leftMargin': 256, 'rightMargin': 65}";
"interface.width-adjustments" = (
-16
);
};
},
{
color = (219,235,247,1);
glyphname = F;
lastChange = "2018-09-01 23:10:14 +0000";
layers = (
{
anchors = (
{
name = bottom;
position = "{768, 16}";
},
{
name = bottom_dd;
position = "{1588, -560}";
},
{
name = cross;
position = "{496, 464}";
},
{
name = top;
position = "{888, 2304}";
},
{
name = top0315;
position = "{1588, 2216}";
},
{
name = top_dd;
position = "{1588, 2200}";
}
);
layerId = "C698F293-3EC0-4A5A-A3A0-0FDB1F5CF265";
paths = (
{
closed = 1;
nodes = (
"248 2048 LINE",
"248 0 LINE",
"496 0 LINE",
"496 2048 LINE"
);
},
{
closed = 1;
nodes = (
"468 1136 LINE",
"468 916 LINE",
"1344 916 LINE",
"1344 1136 LINE"
);
},
{
closed = 1;
nodes = (
"468 2048 LINE",
"468 1828 LINE",
"1476 1828 LINE",
"1476 2048 LINE"
);
}
);
width = 1652;
},
{
anchors = (
{
name = bottom;
position = "{816, 16}";
},
{
name = bottom_dd;
position = "{1628, -560}";
},
{
name = cross;
position = "{540, 400}";
},
{
name = top;
position = "{968, 2216}";
},
{
name = top0315;
position = "{1628, 2216}";
},
{
name = top_dd;
position = "{1628, 2200}";
}
);
guideLines = (
{
position = "{0, 1320}";
}
);
layerId = "5C20EF92-B63D-42A8-8878-93C2863E0093";
paths = (
{
closed = 1;
nodes = (
"144 2048 LINE",
"144 0 LINE",
"608 0 LINE",
"608 2048 LINE"
);
},
{
closed = 1;
nodes = (
"460 1216 LINE",
"460 832 LINE",
"1372 832 LINE",
"1372 1216 LINE"
);
},
{
closed = 1;
nodes = (
"476 2048 LINE",
"476 1664 LINE",
"1512 1664 LINE",
"1512 2048 LINE"
);
}
);
width = 1656;
}
);
leftKerningGroup = B;
rightKerningGroup = F;
unicode = 0046;
userData = {
"interface.width-adjustments" = (
-16
);
};
},
{
glyphname = Fhook;
lastChange = "2018-09-01 23:10:14 +0000";
layers = (
{
layerId = "C698F293-3EC0-4A5A-A3A0-0FDB1F5CF265";
paths = (
{
closed = 1;
nodes = (
"248 -160 LINE SMOOTH",
"248 -320 OFFCURVE",
"156 -368 OFFCURVE",
"28 -368 CURVE SMOOTH",
"0 -368 OFFCURVE",
"-28 -364 OFFCURVE",
"-48 -360 CURVE",
"-48 -564 LINE",
"-12 -576 OFFCURVE",
"40 -576 OFFCURVE",
"88 -576 CURVE SMOOTH",
"312 -576 OFFCURVE",
"496 -428 OFFCURVE",
"496 -164 CURVE SMOOTH",
"496 36 LINE",
"248 36 LINE"
);
},
{
closed = 1;
nodes = (
"248 2048 LINE",
"248 0 LINE",
"496 0 LINE",
"496 2048 LINE"
);
},
{
closed = 1;
nodes = (
"468 1136 LINE",
"468 916 LINE",
"1344 916 LINE",
"1344 1136 LINE"
);
},
{
closed = 1;
nodes = (
"468 2048 LINE",
"468 1828 LINE",
"1476 1828 LINE",
"1476 2048 LINE"
);
}
);
width = 1644;
},
{
layerId = "5C20EF92-B63D-42A8-8878-93C2863E0093";
paths = (
{
closed = 1;
nodes = (
"144 -80 LINE SMOOTH",
"144 -192 OFFCURVE",
"44 -220 OFFCURVE",
"-60 -220 CURVE",
"-80 -220 OFFCURVE",
"-120 -220 OFFCURVE",
"-144 -216 CURVE",
"-144 -568 LINE",
"-96 -576 OFFCURVE",
"12 -576 OFFCURVE",
"64 -576 CURVE",
"304 -576 OFFCURVE",
"608 -516 OFFCURVE",
"608 -80 CURVE SMOOTH",
"608 184 LINE",
"144 184 LINE"
);
},
{
closed = 1;
nodes = (
"144 2048 LINE",
"144 0 LINE",
"608 0 LINE",
"608 2048 LINE"
);
},
{
closed = 1;
nodes = (
"460 1216 LINE",
"460 832 LINE",
"1372 832 LINE",
"1372 1216 LINE"
);
},
{
closed = 1;
nodes = (
"476 2048 LINE",
"476 1664 LINE",
"1512 1664 LINE",
"1512 2048 LINE"
);
}
);
width = 1656;
}
);
leftKerningGroup = B;
rightKerningGroup = F;
unicode = 0191;
userData = {
interface.gridadjust.original = "{'width': 1645, 'leftMargin': 0, 'rightMargin': 31}";
"interface.width-adjustments" = (
-16
);
};
},
{
color = (219,235,247,1);
glyphname = G;
lastChange = "2018-09-01 23:10:14 +0000";
layers = (
{
anchors = (
{
name = bottom;
position = "{1064, -16}";
},
{
name = bottom_dd;
position = "{2024, -560}";
},
{
name = top;
position = "{1064, 2304}";
},
{
name = top0315;
position = "{2024, 2244}";
},
{
name = top_dd;
position = "{2024, 2200}";
}
);
guideLines = (
{
position = "{1880, 1408}";
},
{
angle = 90;
position = "{1892, 1304}";
},
{
angle = 90;
position = "{1056, 1644}";
}
);
layerId = "C698F293-3EC0-4A5A-A3A0-0FDB1F5CF265";
paths = (
{
closed = 1;
nodes = (
"1176 1016 LINE",
"1176 796 LINE",
"1916 796 LINE",
"1916 1016 LINE"
);
},
{
closed = 1;
nodes = (
"1780 1828 OFFCURVE",
"1472 2076 OFFCURVE",
"1064 2076 CURVE SMOOTH",
"548 2076 OFFCURVE",
"168 1672 OFFCURVE",
"168 1024 CURVE",
"168 376 OFFCURVE",
"548 -28 OFFCURVE",
"1080 -28 CURVE SMOOTH",
"1556 -28 OFFCURVE",
"1916 292 OFFCURVE",
"1916 796 CURVE",
"1676 796 LINE",
"1676 448 OFFCURVE",
"1428 204 OFFCURVE",
"1080 204 CURVE SMOOTH",
"700 204 OFFCURVE",
"408 492 OFFCURVE",
"408 1024 CURVE",
"408 1556 OFFCURVE",
"700 1844 OFFCURVE",
"1064 1844 CURVE SMOOTH",
"1328 1844 OFFCURVE",
"1552 1692 OFFCURVE",
"1648 1408 CURVE",
"1900 1408 LINE"
);
}
);
width = 2092;
},
{
anchors = (
{
name = bottom;
position = "{1024, 0}";
},
{
name = bottom_dd;
position = "{2012, -560}";
},
{
name = top;
position = "{1024, 2200}";
},
{
name = top0315;
position = "{2012, 2200}";
},
{
name = top_dd;
position = "{2012, 2200}";
}
);
guideLines = (
{
angle = 7.9575;
position = "{1024, 1320}";
},
{
angle = 90;
position = "{1024, 528}";
},
{
position = "{1360, 756}";
}
);
layerId = "5C20EF92-B63D-42A8-8878-93C2863E0093";
paths = (
{
closed = 1;
nodes = (
"1024 1096 LINE",
"1024 756 LINE",
"1872 756 LINE",
"1872 1096 LINE"
);
},
{
closed = 1;
nodes = (
"1736 1852 OFFCURVE",
"1408 2076 OFFCURVE",
"1016 2076 CURVE SMOOTH",
"504 2076 OFFCURVE",
"120 1696 OFFCURVE",
"120 1020 CURVE",
"120 348 OFFCURVE",
"508 -28 OFFCURVE",
"1024 -28 CURVE SMOOTH",
"1492 -28 OFFCURVE",
"1872 284 OFFCURVE",
"1872 756 CURVE",
"1420 756 LINE",
"1420 524 OFFCURVE",
"1244 388 OFFCURVE",
"1024 388 CURVE SMOOTH",
"776 388 OFFCURVE",
"588 560 OFFCURVE",
"588 1020 CURVE",
"588 1480 OFFCURVE",
"772 1660 OFFCURVE",
"1016 1660 CURVE SMOOTH",
"1184 1660 OFFCURVE",
"1336 1576 OFFCURVE",
"1396 1372 CURVE",
"1864 1436 LINE"
);
}
);
width = 2000;
}
);
leftKerningGroup = C;
rightKerningGroup = G;
unicode = 0047;
userData = {
com.typemytype.robofont.guideline.magnetic.DBpTQJmUAf = 5;
com.typemytype.robofont.guideline.magnetic.Mdeh49HlEG = 5;
com.typemytype.robofont.guideline.magnetic.iFgX6ho5qJ = 5;
"interface.width-adjustments" = (
-16
);
};
},
{
glyphname = Gbar;
lastChange = "2018-09-01 23:10:14 +0000";
layers = (
{
anchors = (
{
name = bottom;
position = "{1080, -16}";
},
{
name = top;
position = "{1080, 2304}";
},
{
name = top0315;
position = "{1928, 2244}";
}
);
guideLines = (
{
angle = 90;
position = "{1168, 744}";
},
{
angle = 90;
position = "{1072, 148}";
}
);
layerId = "C698F293-3EC0-4A5A-A3A0-0FDB1F5CF265";
paths = (
{
closed = 1;
nodes = (
"1176 632 LINE",
"1176 412 LINE",
"2124 412 LINE",
"2124 632 LINE"
);
},
{
closed = 1;
nodes = (
"1176 1016 LINE",
"1176 800 LINE",
"1676 800 LINE",
"1676 796 LINE",
"1916 796 LINE",
"1916 1016 LINE"
);
},
{
closed = 1;
nodes = (
"1780 1828 OFFCURVE",
"1472 2076 OFFCURVE",
"1064 2076 CURVE SMOOTH",
"548 2076 OFFCURVE",
"168 1672 OFFCURVE",
"168 1024 CURVE",
"168 376 OFFCURVE",
"548 -28 OFFCURVE",
"1080 -28 CURVE SMOOTH",
"1556 -28 OFFCURVE",
"1916 292 OFFCURVE",
"1916 796 CURVE",
"1676 796 LINE",
"1676 448 OFFCURVE",
"1428 204 OFFCURVE",
"1080 204 CURVE SMOOTH",
"700 204 OFFCURVE",
"408 492 OFFCURVE",
"408 1024 CURVE",
"408 1556 OFFCURVE",
"700 1844 OFFCURVE",
"1064 1844 CURVE SMOOTH",
"1328 1844 OFFCURVE",
"1552 1692 OFFCURVE",
"1648 1408 CURVE",
"1900 1408 LINE"
);
}
);
width = 2164;
},
{
anchors = (
{
name = bottom;
position = "{1012, 0}";
},
{
name = top;
position = "{984, 2200}";
},
{
name = top0315;
position = "{2032, 2200}";
}
);
layerId = "5C20EF92-B63D-42A8-8878-93C2863E0093";
paths = (
{
closed = 1;
nodes = (
"1024 716 LINE",
"1024 516 LINE",
"2048 516 LINE",
"2048 716 LINE"
);
},
{
closed = 1;
nodes = (
"1024 1096 LINE",
"1024 832 LINE",
"1420 832 LINE",
"1420 756 LINE",
"1872 756 LINE",
"1872 1096 LINE"
);
},
{
closed = 1;
nodes = (
"1736 1852 OFFCURVE",
"1408 2076 OFFCURVE",
"1016 2076 CURVE SMOOTH",
"504 2076 OFFCURVE",
"120 1696 OFFCURVE",
"120 1020 CURVE",
"120 348 OFFCURVE",
"508 -28 OFFCURVE",
"1024 -28 CURVE SMOOTH",
"1492 -28 OFFCURVE",
"1872 284 OFFCURVE",
"1872 756 CURVE",
"1420 756 LINE",
"1420 524 OFFCURVE",
"1244 388 OFFCURVE",
"1024 388 CURVE SMOOTH",
"776 388 OFFCURVE",
"588 560 OFFCURVE",
"588 1020 CURVE",
"588 1480 OFFCURVE",
"772 1660 OFFCURVE",
"1016 1660 CURVE SMOOTH",
"1184 1660 OFFCURVE",
"1336 1576 OFFCURVE",
"1396 1372 CURVE",
"1864 1436 LINE"
);
}
);
width = 2112;
}
);
unicode = 01E4;
userData = {
com.typemytype.robofont.guideline.magnetic.L529Uh5F2Z = 5;
com.typemytype.robofont.guideline.magnetic.aP8dy3XBkq = 5;
interface.gridadjust.original = "{'width': 1917, 'leftMargin': 256, 'rightMargin': 7}";
"interface.width-adjustments" = (
-16
);
};
},
{
glyphname = Ghook;
lastChange = "2018-09-01 23:10:14 +0000";
layers = (
{
layerId = "C698F293-3EC0-4A5A-A3A0-0FDB1F5CF265";
paths = (
{
closed = 1;
nodes = (
"1900 1624 LINE SMOOTH",
"1900 1784 OFFCURVE",
"1996 1832 OFFCURVE",
"2124 1832 CURVE SMOOTH",
"2152 1832 OFFCURVE",
"2180 1828 OFFCURVE",
"2200 1824 CURVE",
"2200 2024 LINE",
"2164 2036 OFFCURVE",
"2112 2036 OFFCURVE",
"2064 2036 CURVE SMOOTH",
"1808 2036 OFFCURVE",
"1676 1888 OFFCURVE",
"1660 1624 CURVE SMOOTH",
"1648 1408 LINE",
"1900 1408 LINE"
);
},
{
closed = 1;
nodes = (
"1176 1016 LINE",
"1176 796 LINE",
"1916 796 LINE",
"1916 1016 LINE"
);
},
{
closed = 1;
nodes = (
"1780 1828 OFFCURVE",
"1472 2076 OFFCURVE",
"1064 2076 CURVE SMOOTH",
"548 2076 OFFCURVE",
"168 1672 OFFCURVE",
"168 1024 CURVE",
"168 376 OFFCURVE",
"548 -28 OFFCURVE",
"1080 -28 CURVE SMOOTH",
"1556 -28 OFFCURVE",
"1916 292 OFFCURVE",
"1916 796 CURVE",
"1676 796 LINE",
"1676 448 OFFCURVE",
"1428 204 OFFCURVE",
"1080 204 CURVE SMOOTH",
"700 204 OFFCURVE",
"408 492 OFFCURVE",
"408 1024 CURVE",
"408 1556 OFFCURVE",
"700 1844 OFFCURVE",
"1064 1844 CURVE SMOOTH",
"1328 1844 OFFCURVE",
"1552 1692 OFFCURVE",
"1648 1408 CURVE",
"1900 1408 LINE"
);
}
);
width = 2176;
},
{
guideLines = (
{
angle = 90;
position = "{1872, 996}";
}
);
layerId = "5C20EF92-B63D-42A8-8878-93C2863E0093";
paths = (
{
closed = 1;
nodes = (
"1872 1712 LINE SMOOTH",
"1872 1888 OFFCURVE",
"2012 1912 OFFCURVE",
"2136 1912 CURVE SMOOTH",
"2180 1912 OFFCURVE",
"2220 1904 OFFCURVE",
"2264 1900 CURVE",
"2264 2268 LINE",
"2188 2284 OFFCURVE",
"2128 2292 OFFCURVE",
"2052 2292 CURVE SMOOTH",
"1708 2292 OFFCURVE",
"1396 2088 OFFCURVE",
"1396 1712 CURVE SMOOTH",
"1396 1372 LINE",
"1872 1372 LINE"
);
},
{
closed = 1;
nodes = (
"1024 1096 LINE",
"1024 756 LINE",
"1872 756 LINE",
"1872 1096 LINE"
);
},
{
closed = 1;
nodes = (
"1736 1852 OFFCURVE",
"1408 2076 OFFCURVE",
"1016 2076 CURVE SMOOTH",
"504 2076 OFFCURVE",
"120 1696 OFFCURVE",
"120 1020 CURVE",
"120 348 OFFCURVE",
"508 -28 OFFCURVE",
"1024 -28 CURVE SMOOTH",
"1492 -28 OFFCURVE",
"1872 284 OFFCURVE",
"1872 756 CURVE",
"1420 756 LINE",
"1420 524 OFFCURVE",
"1244 388 OFFCURVE",
"1024 388 CURVE SMOOTH",
"776 388 OFFCURVE",
"588 560 OFFCURVE",
"588 1020 CURVE",
"588 1480 OFFCURVE",
"772 1660 OFFCURVE",
"1016 1660 CURVE SMOOTH",
"1184 1660 OFFCURVE",
"1336 1576 OFFCURVE",
"1396 1372 CURVE",
"1864 1436 LINE"
);
}
);
width = 2320;
}
);
leftKerningGroup = C;
rightKerningGroup = G;
unicode = 0193;
userData = {
interface.gridadjust.original = "{'width': 1998, 'leftMargin': 256, 'rightMargin': -45}";
};
},
{
color = (219,235,247,1);
glyphname = H;
lastChange = "2018-09-01 23:10:14 +0000";
layers = (
{
anchors = (
{
name = bottom;
position = "{1020, 16}";
},
{
name = bottom_dd;
position = "{2048, -560}";
},
{
name = right;
position = "{1816, 0}";
},
{
name = tonos;
position = "{8, 2048}";
},
{
name = top;
position = "{1040, 2304}";
},
{
name = top0315;
position = "{2048, 2216}";
},
{
name = top_dd;
position = "{2048, 2200}";
}
);
layerId = "C698F293-3EC0-4A5A-A3A0-0FDB1F5CF265";
paths = (
{
closed = 1;
nodes = (
"452 1136 LINE",
"452 916 LINE",
"1624 916 LINE",
"1624 1136 LINE"
);
},
{
closed = 1;
nodes = (
"248 2048 LINE",
"248 0 LINE",
"496 0 LINE",
"496 2048 LINE"
);
},
{
closed = 1;
nodes = (
"1588 2048 LINE",
"1588 0 LINE",
"1836 0 LINE",
"1836 2048 LINE"
);
}
);
width = 2084;
},
{
anchors = (
{
name = bottom;
position = "{1052, 16}";
},
{
name = bottom_dd;
position = "{2032, -560}";
},
{
name = right;
position = "{1868, 0}";
},
{
name = tonos;
position = "{-88, 1996}";
},
{
name = top;
position = "{1048, 2200}";
},
{
name = top0315;
position = "{2032, 2200}";
},
{
name = top_dd;
position = "{2032, 2200}";
}
);
guideLines = (
{
position = "{0, 1651.375}";
}
);
layerId = "5C20EF92-B63D-42A8-8878-93C2863E0093";
paths = (
{
closed = 1;
nodes = (
"456 1216 LINE",
"456 832 LINE",
"1484 832 LINE",
"1484 1216 LINE"
);
},
{
closed = 1;
nodes = (
"144 2048 LINE",
"144 0 LINE",
"608 0 LINE",
"608 2048 LINE"
);
},
{
closed = 1;
nodes = (
"1344 2048 LINE",
"1344 0 LINE",
"1808 0 LINE",
"1808 2048 LINE"
);
}
);
width = 1952;
}
);
leftKerningGroup = B;
rightKerningGroup = H;
unicode = 0048;
userData = {
"interface.width-adjustments" = (
-16
);
};
},
{
glyphname = Hbar;
lastChange = "2018-09-01 23:10:14 +0000";
layers = (
{
anchors = (
{
name = bottom;
position = "{1016, 16}";
},
{
name = top;
position = "{1032, 2304}";
},
{
name = top0315;
position = "{1996, 2216}";
}
);
layerId = "C698F293-3EC0-4A5A-A3A0-0FDB1F5CF265";
paths = (
{
closed = 1;
nodes = (
"84 1616 LINE",
"84 1408 LINE",
"2000 1408 LINE",
"2000 1616 LINE"
);
},
{
closed = 1;
nodes = (
"456 1136 LINE",
"456 916 LINE",
"1628 916 LINE",
"1628 1136 LINE"
);
},
{
closed = 1;
nodes = (
"252 2048 LINE",
"252 0 LINE",
"500 0 LINE",
"500 2048 LINE"
);
},
{
closed = 1;
nodes = (
"1592 2048 LINE",
"1592 0 LINE",
"1840 0 LINE",
"1840 2048 LINE"
);
}
);
width = 2032;
},
{
anchors = (
{
name = bottom;
position = "{976, 16}";
},
{
name = top;
position = "{976, 2200}";
},
{
name = top0315;
position = "{1992, 2200}";
}
);
layerId = "5C20EF92-B63D-42A8-8878-93C2863E0093";
paths = (
{
closed = 1;
nodes = (
"-8 1708 LINE",
"-8 1460 LINE",
"1960 1460 LINE",
"1960 1708 LINE"
);
},
{
closed = 1;
nodes = (
"456 1216 LINE",
"456 832 LINE",
"1484 832 LINE",
"1484 1216 LINE"
);
},
{
closed = 1;
nodes = (
"144 2048 LINE",
"144 0 LINE",
"608 0 LINE",
"608 2048 LINE"
);
},
{
closed = 1;
nodes = (
"1344 2048 LINE",
"1344 0 LINE",
"1808 0 LINE",
"1808 2048 LINE"
);
}
);
width = 1952;
}
);
unicode = 0126;
userData = {
interface.gridadjust.original = "{'width': 1980.0, 'leftMargin': 43, 'rightMargin': 22.0}";
"interface.width-adjustments" = (
-16
);
};
},
{
glyphname = Enhookcyrillic;
lastChange = "2018-09-01 23:10:14 +0000";
layers = (
{
layerId = "C698F293-3EC0-4A5A-A3A0-0FDB1F5CF265";
paths = (
{
closed = 1;
nodes = (
"1588 -160 LINE SMOOTH",
"1588 -320 OFFCURVE",
"1496 -368 OFFCURVE",
"1368 -368 CURVE SMOOTH",
"1340 -368 OFFCURVE",
"1312 -364 OFFCURVE",
"1292 -360 CURVE",
"1292 -564 LINE",
"1328 -576 OFFCURVE",
"1380 -576 OFFCURVE",
"1428 -576 CURVE SMOOTH",
"1652 -576 OFFCURVE",
"1836 -428 OFFCURVE",
"1836 -164 CURVE SMOOTH",
"1836 36 LINE",
"1588 36 LINE"
);
},
{
closed = 1;
nodes = (
"452 1136 LINE",
"452 916 LINE",
"1624 916 LINE",
"1624 1136 LINE"
);
},
{
closed = 1;
nodes = (
"248 2048 LINE",
"248 0 LINE",
"496 0 LINE",
"496 2048 LINE"
);
},
{
closed = 1;
nodes = (
"1588 2048 LINE",
"1588 0 LINE",
"1836 0 LINE",
"1836 2048 LINE"
);
}
);
width = 2084;
},
{
layerId = "5C20EF92-B63D-42A8-8878-93C2863E0093";
paths = (
{
closed = 1;
nodes = (
"1344 -4 LINE SMOOTH",
"1344 -180 OFFCURVE",
"1216 -232 OFFCURVE",
"1092 -232 CURVE",
"1060 -232 OFFCURVE",
"996 -228 OFFCURVE",
"964 -228 CURVE",
"964 -600 LINE",
"1036 -612 OFFCURVE",
"1112 -612 OFFCURVE",
"1176 -612 CURVE SMOOTH",
"1520 -612 OFFCURVE",
"1808 -432 OFFCURVE",
"1808 -32 CURVE SMOOTH",
"1808 124 LINE",
"1344 124 LINE {name = hr00;}"
);
},
{
closed = 1;
nodes = (
"456 1216 LINE",
"456 832 LINE",
"1484 832 LINE",
"1484 1216 LINE"
);
},
{
closed = 1;
nodes = (
"144 2048 LINE",
"144 0 LINE",
"608 0 LINE",
"608 2048 LINE"
);
},
{
closed = 1;
nodes = (
"1344 2048 LINE",
"1344 0 LINE",
"1808 0 LINE",
"1808 2048 LINE"
);
}
);
width = 1952;
}
);
leftKerningGroup = B;
rightKerningGroup = H;
unicode = 04C7;
userData = {
interface.gridadjust.original = "{'width': 2010, 'leftMargin': 242, 'rightMargin': 244}";
"interface.width-adjustments" = (
-16
);
};
},
{
glyphname = Enghecyrillic;
lastChange = "2018-09-01 23:10:14 +0000";
layers = (
{
layerId = "C698F293-3EC0-4A5A-A3A0-0FDB1F5CF265";
paths = (
{
closed = 1;
nodes = (
"1540 2048 LINE",
"1716 1828 LINE",
"2588 1828 LINE",
"2588 2048 LINE"
);
},
{
closed = 1;
nodes = (
"400 1136 LINE",
"400 916 LINE",
"1572 916 LINE",
"1572 1136 LINE"
);
},
{
closed = 1;
nodes = (
"196 2048 LINE",
"196 0 LINE",
"444 0 LINE",
"444 2048 LINE"
);
},
{
closed = 1;
nodes = (
"1536 2048 LINE",
"1536 0 LINE",
"1784 0 LINE",
"1784 2048 LINE"
);
}
);
width = 2800;
},
{
layerId = "5C20EF92-B63D-42A8-8878-93C2863E0093";
paths = (
{
closed = 1;
nodes = (
"1364 2048 LINE",
"1752 1688 LINE",
"2612 1688 LINE",
"2612 2048 LINE"
);
},
{
closed = 1;
nodes = (
"428 1216 LINE",
"428 832 LINE",
"1456 832 LINE",
"1456 1216 LINE"
);
},
{
closed = 1;
nodes = (
"116 2048 LINE",
"116 0 LINE",
"580 0 LINE",
"580 2048 LINE"
);
},
{
closed = 1;
nodes = (
"1316 2048 LINE",
"1316 0 LINE",
"1780 0 LINE",
"1780 2048 LINE"
);
}
);
width = 2848;
}
);
unicode = 04A4;
userData = {
interface.gridadjust.original = "{'width': 2729, 'leftMargin': 256, 'rightMargin': 101}";
"interface.width-adjustments" = (
-16
);
};
},
{
glyphname = uni01F6;
lastChange = "2018-09-01 23:10:14 +0000";
layers = (
{
layerId = "C698F293-3EC0-4A5A-A3A0-0FDB1F5CF265";
paths = (
{
closed = 1;
nodes = (
"2672 648 LINE SMOOTH",
"2672 340 OFFCURVE",
"2528 200 OFFCURVE",
"2260 200 CURVE SMOOTH",
"1992 200 OFFCURVE",
"1836 340 OFFCURVE",
"1836 648 CURVE SMOOTH",
"1836 776 LINE",
"1588 776 LINE",
"1588 648 LINE SMOOTH",
"1588 204 OFFCURVE",
"1860 -28 OFFCURVE",
"2260 -28 CURVE SMOOTH",
"2648 -28 OFFCURVE",
"2920 196 OFFCURVE",
"2920 648 CURVE SMOOTH",
"2920 1536 LINE",
"2672 1536 LINE"
);
},
{
closed = 1;
nodes = (
"452 1136 LINE",
"452 916 LINE",
"1624 916 LINE",
"1624 1136 LINE"
);
},
{
closed = 1;
nodes = (
"248 2048 LINE",
"248 0 LINE",
"496 0 LINE",
"496 2048 LINE"
);
},
{
closed = 1;
nodes = (
"1588 2048 LINE",
"1588 704 LINE",
"1836 704 LINE",
"1836 2048 LINE"
);
}
);
width = 3136;
},
{
layerId = "5C20EF92-B63D-42A8-8878-93C2863E0093";
paths = (
{
closed = 1;
nodes = (
"2364 696 LINE SMOOTH",
"2364 492 OFFCURVE",
"2292 352 OFFCURVE",
"2084 352 CURVE SMOOTH",
"1880 352 OFFCURVE",
"1804 492 OFFCURVE",
"1804 696 CURVE SMOOTH",
"1804 776 LINE",
"1344 776 LINE",
"1344 696 LINE SMOOTH",
"1344 228 OFFCURVE",
"1620 -28 OFFCURVE",
"2084 -28 CURVE SMOOTH",
"2548 -28 OFFCURVE",
"2824 228 OFFCURVE",
"2824 696 CURVE SMOOTH",
"2824 1488 LINE",
"2364 1488 LINE"
);
},
{
closed = 1;
nodes = (
"456 1208 LINE",
"456 836 LINE",
"1488 836 LINE",
"1488 1208 LINE"
);
},
{
closed = 1;
nodes = (
"144 2048 LINE",
"144 0 LINE",
"604 0 LINE",
"604 2048 LINE"
);
},
{
closed = 1;
nodes = (
"1344 2048 LINE",
"1344 688 LINE",
"1804 688 LINE",
"1804 2048 LINE"
);
}
);
width = 2968;
}
);
leftKerningGroup = B;
rightKerningGroup = u;
unicode = 01F6;
userData = {
interface.gridadjust.original = "{'width': 3059, 'leftMargin': 228, 'rightMargin': 176}";
"interface.width-adjustments" = (
-16
);
};
},
{
color = (219,235,247,1);
glyphname = I;
lastChange = "2018-09-04 17:09:40 +0000";
layers = (
{
anchors = (
{
name = bottom;
position = "{376, 16}";
},
{
name = bottom_dd;
position = "{764, -560}";
},
{
name = ogonek;
position = "{496, 0}";
},
{
name = right;
position = "{516, 0}";
},
{
name = tonos;
position = "{-8, 2048}";
},
{
name = top;
position = "{356, 2304}";
},
{
name = top0315;
position = "{764, 2216}";
},
{
name = top_dd;
position = "{764, 2200}";
}
);
layerId = "C698F293-3EC0-4A5A-A3A0-0FDB1F5CF265";
paths = (
{
closed = 1;
nodes = (
"248 2048 LINE",
"248 0 LINE",
"496 0 LINE",
"496 2048 LINE"
);
}
);
width = 744;
},
{
anchors = (
{
name = bottom;
position = "{376, 0}";
},
{
name = bottom_dd;
position = "{800, -560}";
},
{
name = ogonek;
position = "{608, 0}";
},
{
name = right;
position = "{640, 0}";
},
{
name = tonos;
position = "{-184, 2004}";
},
{
name = top;
position = "{376, 2200}";
},
{
name = top0315;
position = "{800, 2200}";
},
{
name = top_dd;
position = "{800, 2200}";
}
);
guideLines = (
{
position = "{0, 1238.875}";
},
{
position = "{0, 763.125}";
},
{
position = "{0, 292.875}";
}
);
layerId = "5C20EF92-B63D-42A8-8878-93C2863E0093";
paths = (
{
closed = 1;
nodes = (
"144 2048 LINE",
"144 0 LINE",
"608 0 LINE",
"608 2048 LINE"
);
}
);
width = 752;
}
);
leftKerningGroup = B;
rightKerningGroup = H;
unicode = 0049;
userData = {
"interface.width-adjustments" = (
-16
);
};
},
{
color = (219,235,247,1);
glyphname = J;
lastChange = "2018-09-01 23:10:14 +0000";
layers = (
{
anchors = (
{
name = bottom;
position = "{712, -16}";
},
{
name = bottom_dd;
position = "{1564, -560}";
},
{
name = top;
position = "{1076, 2304}";
},
{
name = top0315;
position = "{1564, 2200}";
},
{
name = top_dd;
position = "{1564, 2200}";
}
);
layerId = "C698F293-3EC0-4A5A-A3A0-0FDB1F5CF265";
paths = (
{
closed = 1;
nodes = (
"952 272 OFFCURVE",
"772 192 OFFCURVE",
"612 192 CURVE SMOOTH",
"416 192 OFFCURVE",
"248 308 OFFCURVE",
"248 512 CURVE",
"8 512 LINE",
"8 180 OFFCURVE",
"272 -28 OFFCURVE",
"596 -28 CURVE SMOOTH",
"964 -28 OFFCURVE",
"1200 188 OFFCURVE",
"1200 584 CURVE",
"1200 2048 LINE",
"952 2048 LINE",
"952 584 LINE"
);
}
);
width = 1424;
},
{
anchors = (
{
name = bottom;
position = "{752, -16}";
},
{
name = bottom_dd;
position = "{1628, -560}";
},
{
name = top;
position = "{1228, 2200}";
},
{
name = top0315;
position = "{1628, 2200}";
},
{
name = top_dd;
position = "{1628, 2200}";
}
);
guideLines = (
{
position = "{0, 1238.875}";
},
{
position = "{0, 763.125}";
},
{
position = "{0, 1358.5}";
}
);
layerId = "5C20EF92-B63D-42A8-8878-93C2863E0093";
paths = (
{
closed = 1;
nodes = (
"1008 452 OFFCURVE",
"924 344 OFFCURVE",
"784 344 CURVE SMOOTH",
"652 344 OFFCURVE",
"568 436 OFFCURVE",
"564 604 CURVE",
"100 604 LINE",
"100 172 OFFCURVE",
"388 -28 OFFCURVE",
"784 -28 CURVE SMOOTH",
"1172 -28 OFFCURVE",
"1468 228 OFFCURVE",
"1468 628 CURVE",
"1468 2048 LINE",
"1008 2048 LINE",
"1008 628 LINE"
);
}
);
width = 1612;
}
);
leftKerningGroup = J;
rightKerningGroup = IJacute;
unicode = 004A;
},
{
color = (219,235,247,1);
glyphname = K;
lastChange = "2018-09-01 23:10:14 +0000";
layers = (
{
anchors = (
{
name = bottom;
position = "{920, 120}";
},
{
name = bottom_dd;
position = "{1772, -560}";
},
{
name = cross;
position = "{388, 1692}";
},
{
name = right;
position = "{1696, 0}";
},
{
name = top;
position = "{840, 2304}";
},
{
name = top0315;
position = "{1772, 2200}";
},
{
name = top_dd;
position = "{1772, 2200}";
}
);
guideLines = (
{
angle = 227.6708;
position = "{1748, 2048}";
}
);
layerId = "C698F293-3EC0-4A5A-A3A0-0FDB1F5CF265";
paths = (
{
closed = 1;
nodes = (
"248 2048 LINE",
"248 0 LINE",
"496 0 LINE",
"496 2048 LINE"
);
},
{
closed = 1;
nodes = (
"1440 2048 LINE",
"520 1032 LINE",
"448 1032 LINE",
"448 612 LINE",
"760 960 LINE",
"772 980 LINE",
"1764 2048 LINE"
);
},
{
closed = 1;
nodes = (
"1764 0 LINE",
"872 1168 LINE",
"736 976 LINE",
"1464 0 LINE"
);
}
);
width = 1836;
},
{
anchors = (
{
name = bottom;
position = "{940, 2}";
},
{
name = bottom_dd;
position = "{1972, -560}";
},
{
name = cross;
position = "{388, 1684}";
},
{
name = right;
position = "{1824, 0}";
},
{
name = top;
position = "{864, 2200}";
},
{
name = top0315;
position = "{1972, 2200}";
},
{
name = top_dd;
position = "{1972, 2200}";
}
);
guideLines = (
{
position = "{0, 1651.375}";
},
{
angle = 227.7134;
position = "{2016, 2048}";
}
);
layerId = "5C20EF92-B63D-42A8-8878-93C2863E0093";
paths = (
{
closed = 1;
nodes = (
"144 2048 LINE",
"144 0 LINE",
"608 0 LINE",
"608 2048 LINE"
);
},
{
closed = 1;
nodes = (
"1408 2048 LINE",
"636 1192 LINE",
"564 1192 LINE",
"564 452 LINE",
"892 812 LINE",
"996 940 LINE",
"2016 2048 LINE"
);
},
{
closed = 1;
nodes = (
"1956 0 LINE",
"1084 1180 LINE",
"744 904 LINE",
"1400 0 LINE"
);
}
);
width = 2048;
}
);
leftKerningGroup = B;
rightKerningGroup = K;
unicode = 004B;
userData = {
com.typemytype.robofont.guideline.magnetic.bB6GeEoQ3O = 5;
"interface.width-adjustments" = (
-16
);
};
},
{
glyphname = Kabashkircyrillic;
lastChange = "2018-09-01 23:10:14 +0000";
layers = (
{
layerId = "C698F293-3EC0-4A5A-A3A0-0FDB1F5CF265";
paths = (
{
closed = 1;
nodes = (
"24 2048 LINE",
"24 1828 LINE",
"752 1828 LINE",
"752 2048 LINE"
);
},
{
closed = 1;
nodes = (
"668 2048 LINE",
"668 0 LINE",
"916 0 LINE",
"916 2048 LINE"
);
},
{
closed = 1;
nodes = (
"1860 2048 LINE",
"940 1032 LINE",
"868 1032 LINE",
"868 612 LINE",
"1180 960 LINE",
"1192 980 LINE",
"2184 2048 LINE"
);
},
{
closed = 1;
nodes = (
"2184 0 LINE",
"1292 1168 LINE",
"1156 976 LINE",
"1884 0 LINE"
);
}
);
width = 2256;
},
{
layerId = "5C20EF92-B63D-42A8-8878-93C2863E0093";
paths = (
{
closed = 1;
nodes = (
"48 2048 LINE",
"48 1688 LINE",
"860 1688 LINE",
"860 2048 LINE"
);
},
{
closed = 1;
nodes = (
"672 2048 LINE",
"672 0 LINE",
"1136 0 LINE",
"1136 2048 LINE"
);
},
{
closed = 1;
nodes = (
"1936 2048 LINE",
"1164 1192 LINE",
"1092 1192 LINE",
"1092 452 LINE",
"1420 812 LINE",
"1524 940 LINE",
"2544 2048 LINE"
);
},
{
closed = 1;
nodes = (
"2484 0 LINE",
"1612 1180 LINE",
"1272 904 LINE",
"1928 0 LINE"
);
}
);
width = 2576;
}
);
unicode = 04A0;
userData = {
interface.gridadjust.original = "{'width': 2311, 'leftMargin': 91, 'rightMargin': -1}";
"interface.width-adjustments" = (
-16
);
};
},
{
glyphname = Khook;
lastChange = "2018-09-01 23:10:14 +0000";
layers = (
{
guideLines = (
{
angle = 227.6988;
position = "{1244, 1840}";
},
{
angle = 227.64;
position = "{1436, 1704}";
}
);
layerId = "C698F293-3EC0-4A5A-A3A0-0FDB1F5CF265";
paths = (
{
closed = 1;
nodes = (
"1488 1752 LINE SMOOTH",
"1592 1868 OFFCURVE",
"1680 1868 OFFCURVE",
"1768 1812 CURVE",
"1868 1996 LINE",
"1704 2112 OFFCURVE",
"1492 2104 OFFCURVE",
"1332 1928 CURVE SMOOTH",
"1252 1840 LINE",
"1444 1704 LINE"
);
},
{
closed = 1;
nodes = (
"248 2048 LINE",
"248 0 LINE",
"496 0 LINE",
"496 2048 LINE"
);
},
{
closed = 1;
nodes = (
"1764 0 LINE",
"872 1168 LINE",
"736 976 LINE",
"1464 0 LINE"
);
},
{
closed = 1;
nodes = (
"520 1032 LINE",
"448 1032 LINE",
"448 612 LINE",
"760 960 LINE",
"772 980 LINE",
"1444 1704 LINE",
"1252 1840 LINE"
);
}
);
width = 1892;
},
{
guideLines = (
{
angle = 227.7472;
position = "{1132, 1740}";
},
{
angle = 227.9329;
position = "{1520, 1508}";
}
);
layerId = "5C20EF92-B63D-42A8-8878-93C2863E0093";
paths = (
{
closed = 1;
nodes = (
"1584 1580 LINE SMOOTH",
"1672 1676 OFFCURVE",
"1736 1708 OFFCURVE",
"1848 1648 CURVE",
"1992 1980 LINE",
"1724 2136 OFFCURVE",
"1460 2104 OFFCURVE",
"1248 1868 CURVE SMOOTH",
"1132 1740 LINE",
"1520 1508 LINE"
);
},
{
closed = 1;
nodes = (
"144 2048 LINE",
"144 0 LINE",
"608 0 LINE",
"608 2048 LINE"
);
},
{
closed = 1;
nodes = (
"1956 0 LINE",
"1084 1180 LINE",
"744 904 LINE",
"1400 0 LINE"
);
},
{
closed = 1;
nodes = (
"636 1192 LINE",
"564 1192 LINE",
"564 452 LINE",
"892 812 LINE",
"996 940 LINE",
"1520 1508 LINE",
"1132 1740 LINE"
);
}
);
width = 2008;
}
);
leftKerningGroup = B;
rightKerningGroup = K;
unicode = 0198;
userData = {
com.typemytype.robofont.guideline.magnetic.39qH0NXtzo = 5;
com.typemytype.robofont.guideline.magnetic.tBAYMBoO6i = 5;
interface.gridadjust.original = "{'width': 1764, 'leftMargin': 228, 'rightMargin': -13}";
"interface.width-adjustments" = (
-16
);
};
},
{
color = (219,235,247,1);
glyphname = L;
lastChange = "2018-09-01 23:10:14 +0000";
layers = (
{
anchors = (
{
name = bottom;
position = "{860, 16}";
},
{
name = bottom_dd;
position = "{1532, -560}";
},
{
name = caron;
position = "{844, 2000}";
},
{
name = dot;
position = "{832, 1092}";
},
{
name = top;
position = "{376, 2304}";
},
{
name = top0315;
position = "{1532, 2200}";
},
{
name = top_dd;
position = "{1532, 2200}";
}
);
layerId = "C698F293-3EC0-4A5A-A3A0-0FDB1F5CF265";
paths = (
{
closed = 1;
nodes = (
"440 220 LINE",
"440 0 LINE",
"1448 0 LINE",
"1448 220 LINE"
);
},
{
closed = 1;
nodes = (
"248 2048 LINE",
"248 0 LINE",
"496 0 LINE",
"496 2048 LINE"
);
}
);
width = 1584;
},
{
anchors = (
{
name = bottom;
position = "{784, 16}";
},
{
name = bottom_dd;
position = "{1492, -560}";
},
{
name = caron;
position = "{896, 2004}";
},
{
name = dot;
position = "{792, 1168}";
},
{
name = top;
position = "{372, 2200}";
},
{
name = top0315;
position = "{1492, 2200}";
},
{
name = top_dd;
position = "{1492, 2200}";
}
);
guideLines = (
{
position = "{0, 1304.875}";
}
);
layerId = "5C20EF92-B63D-42A8-8878-93C2863E0093";
paths = (
{
closed = 1;
nodes = (
"448 384 LINE",
"448 0 LINE",
"1436 0 LINE",
"1436 384 LINE"
);
},
{
closed = 1;
nodes = (
"144 2048 LINE",
"144 0 LINE",
"608 0 LINE",
"608 2048 LINE"
);
}
);
width = 1568;
}
);
leftKerningGroup = B;
rightKerningGroup = L;
unicode = 004C;
userData = {
"interface.width-adjustments" = (
-16
);
};
},
{
glyphname = L_slash;
lastChange = "2018-09-01 23:10:14 +0000";
layers = (
{
anchors = (
{
name = bottom;
position = "{860, 16}";
},
{
name = top;
position = "{372, 2304}";
},
{
name = top0315;
position = "{1532, 2200}";
}
);
layerId = "C698F293-3EC0-4A5A-A3A0-0FDB1F5CF265";
paths = (
{
closed = 1;
nodes = (
"60 1024 LINE",
"60 844 LINE",
"872 1100 LINE",
"872 1280 LINE"
);
},
{
closed = 1;
nodes = (
"440 220 LINE",
"440 0 LINE",
"1448 0 LINE",
"1448 220 LINE"
);
},
{
closed = 1;
nodes = (
"248 2048 LINE",
"248 0 LINE",
"496 0 LINE",
"496 2048 LINE"
);
}
);
width = 1584;
},
{
anchors = (
{
name = bottom;
position = "{944, 16}";
},
{
name = top;
position = "{572, 2200}";
},
{
name = top0315;
position = "{1716, 2200}";
}
);
layerId = "5C20EF92-B63D-42A8-8878-93C2863E0093";
paths = (
{
closed = 1;
nodes = (
"100 1072 LINE",
"100 828 LINE",
"1024 1084 LINE",
"1024 1332 LINE"
);
},
{
closed = 1;
nodes = (
"620 384 LINE",
"620 0 LINE",
"1608 0 LINE",
"1608 384 LINE"
);
},
{
closed = 1;
nodes = (
"316 2048 LINE",
"316 0 LINE",
"780 0 LINE",
"780 2048 LINE"
);
}
);
width = 1824;
}
);
unicode = 0141;
userData = {
interface.gridadjust.original = "{'width': 1524, 'leftMargin': 52, 'rightMargin': 104}";
"interface.width-adjustments" = (
-16
);
};
},
{
color = (219,235,247,1);
glyphname = M;
lastChange = "2018-09-01 23:10:14 +0000";
layers = (
{
anchors = (
{
name = bottom;
position = "{1232, 0}";
},
{
name = bottom_dd;
position = "{2456, -560}";
},
{
name = right;
position = "{2208, 0}";
},
{
name = top;
position = "{1232, 2304}";
},
{
name = top0315;
position = "{2456, 2200}";
},
{
name = top_dd;
position = "{2456, 2200}";
}
);
guideLines = (
{
angle = 90;
position = "{1224, 152}";
},
{
angle = 90;
position = "{516, 2056}";
},
{
angle = 90;
position = "{1932, 2060}";
}
);
layerId = "C698F293-3EC0-4A5A-A3A0-0FDB1F5CF265";
paths = (
{
closed = 1;
nodes = (
"248 0 LINE",
"480 0 LINE",
"480 1536 LINE",
"500 1536 LINE",
"1120 16 LINE",
"1344 16 LINE",
"1964 1536 LINE",
"1984 1536 LINE",
"1984 0 LINE",
"2216 0 LINE",
"2216 2048 LINE",
"1940 2048 LINE",
"1248 376 LINE",
"1224 376 LINE",
"524 2048 LINE",
"248 2048 LINE"
);
}
);
width = 2464;
},
{
anchors = (
{
name = bottom;
position = "{1280, 4}";
},
{
name = bottom_dd;
position = "{2532, -560}";
},
{
name = right;
position = "{2364, 0}";
},
{
name = top;
position = "{1280, 2200}";
},
{
name = top0315;
position = "{2532, 2200}";
},
{
name = top_dd;
position = "{2532, 2200}";
}
);
guideLines = (
{
position = "{0, 1219.625}";
},
{
angle = 90;
position = "{1280, 1848}";
},
{
angle = 90;
position = "{744, 2164}";
},
{
angle = 90;
position = "{1816, 2040}";
}
);
layerId = "5C20EF92-B63D-42A8-8878-93C2863E0093";
paths = (
{
closed = 1;
nodes = (
"144 0 LINE",
"608 0 LINE",
"608 1340 LINE",
"624 1340 LINE",
"1124 32 LINE",
"1436 32 LINE",
"1936 1332 LINE",
"1952 1332 LINE",
"1952 0 LINE",
"2416 0 LINE",
"2416 2048 LINE",
"1816 2048 LINE",
"1292 736 LINE",
"1268 736 LINE",
"744 2048 LINE",
"144 2048 LINE"
);
}
);
width = 2560;
}
);
leftKerningGroup = B;
rightKerningGroup = H;
unicode = 004D;
userData = {
com.typemytype.robofont.guideline.magnetic.ezYETy42tZ = 5;
com.typemytype.robofont.guideline.magnetic.wu5HJlZVk6 = 5;
com.typemytype.robofont.guideline.magnetic.x5YoYrsuLC = 5;
"interface.width-adjustments" = (
-16
);
};
},
{
color = (219,235,247,1);
glyphname = N;
lastChange = "2018-09-04 01:13:03 +0000";
layers = (
{
anchors = (
{
name = bottom;
position = "{996, 16}";
},
{
name = bottom_dd;
position = "{2020, -560}";
},
{
name = right;
position = "{1784, 0}";
},
{
name = top;
position = "{1032, 2304}";
},
{
name = top0315;
position = "{2020, 2200}";
},
{
name = top_dd;
position = "{2020, 2200}";
}
);
layerId = "C698F293-3EC0-4A5A-A3A0-0FDB1F5CF265";
paths = (
{
closed = 1;
nodes = (
"1588 2048 LINE",
"1588 436 LINE",
"1568 436 LINE",
"488 2048 LINE",
"248 2048 LINE",
"248 0 LINE",
"496 0 LINE",
"496 1604 LINE",
"516 1604 LINE",
"1592 0 LINE",
"1832 0 LINE",
"1832 2048 LINE"
);
}
);
width = 2080;
},
{
anchors = (
{
name = bottom;
position = "{1048, 0}";
},
{
name = bottom_dd;
position = "{2032, -560}";
},
{
name = right;
position = "{1868, 0}";
},
{
name = top;
position = "{1048, 2200}";
},
{
name = top0315;
position = "{2032, 2200}";
},
{
name = top_dd;
position = "{2032, 2200}";
}
);
guideLines = (
{
position = "{0, 1650}";
}
);
layerId = "5C20EF92-B63D-42A8-8878-93C2863E0093";
paths = (
{
closed = 1;
nodes = (
"1344 2048 LINE",
"1344 788 LINE",
"1328 788 LINE",
"604 2048 LINE",
"144 2048 LINE",
"144 0 LINE",
"608 0 LINE",
"608 1260 LINE",
"624 1260 LINE",
"1352 0 LINE",
"1808 0 LINE",
"1808 2048 LINE"
);
}
);
width = 1952;
}
);
leftKerningGroup = B;
rightKerningGroup = H;
unicode = 004E;
userData = {
"interface.width-adjustments" = (
-16
);
};
},
{
glyphname = Nhook;
lastChange = "2018-09-01 23:10:14 +0000";
layers = (
{
layerId = "C698F293-3EC0-4A5A-A3A0-0FDB1F5CF265";
paths = (
{
closed = 1;
nodes = (
"248 -160 LINE SMOOTH",
"248 -320 OFFCURVE",
"156 -368 OFFCURVE",
"28 -368 CURVE SMOOTH",
"0 -368 OFFCURVE",
"-28 -364 OFFCURVE",
"-48 -360 CURVE",
"-48 -564 LINE",
"-12 -576 OFFCURVE",
"40 -576 OFFCURVE",
"88 -576 CURVE SMOOTH",
"312 -576 OFFCURVE",
"496 -428 OFFCURVE",
"496 -164 CURVE SMOOTH",
"496 36 LINE",
"248 36 LINE"
);
},
{
closed = 1;
nodes = (
"1588 2048 LINE",
"1588 436 LINE",
"1568 436 LINE",
"488 2048 LINE",
"248 2048 LINE",
"248 0 LINE",
"496 0 LINE",
"496 1604 LINE",
"516 1604 LINE",
"1592 0 LINE",
"1832 0 LINE",
"1832 2048 LINE"
);
}
);
width = 2080;
},
{
layerId = "5C20EF92-B63D-42A8-8878-93C2863E0093";
paths = (
{
closed = 1;
nodes = (
"144 -80 LINE SMOOTH",
"144 -192 OFFCURVE",
"44 -220 OFFCURVE",
"-60 -220 CURVE",
"-80 -220 OFFCURVE",
"-120 -220 OFFCURVE",
"-144 -216 CURVE",
"-144 -568 LINE",
"-96 -576 OFFCURVE",
"12 -576 OFFCURVE",
"64 -576 CURVE",
"304 -576 OFFCURVE",
"608 -516 OFFCURVE",
"608 -80 CURVE SMOOTH",
"608 184 LINE",
"144 184 LINE"
);
},
{
closed = 1;
nodes = (
"1344 2048 LINE",
"1344 788 LINE",
"1328 788 LINE",
"604 2048 LINE",
"144 2048 LINE",
"144 0 LINE",
"608 0 LINE",
"608 1260 LINE",
"624 1260 LINE",
"1352 0 LINE",
"1808 0 LINE",
"1808 2048 LINE"
);
}
);
width = 1952;
}
);
leftKerningGroup = B;
rightKerningGroup = H;
unicode = 019D;
userData = {
interface.gridadjust.original = "{'width': 2104, 'leftMargin': 0, 'rightMargin': 218}";
"interface.width-adjustments" = (
-16
);
};
},
{
glyphname = Eng;
lastChange = "2018-09-01 23:10:14 +0000";
layers = (
{
anchors = (
{
name = bottom;
position = "{1028, 16}";
},
{
name = top;
position = "{1036, 2200}";
},
{
name = top0315;
position = "{1984, 2200}";
}
);
layerId = "C698F293-3EC0-4A5A-A3A0-0FDB1F5CF265";
paths = (
{
closed = 1;
nodes = (
"1584 -160 LINE SMOOTH",
"1584 -320 OFFCURVE",
"1492 -368 OFFCURVE",
"1364 -368 CURVE SMOOTH",
"1336 -368 OFFCURVE",
"1308 -364 OFFCURVE",
"1288 -360 CURVE",
"1288 -564 LINE",
"1324 -576 OFFCURVE",
"1376 -576 OFFCURVE",
"1424 -576 CURVE SMOOTH",
"1648 -576 OFFCURVE",
"1832 -428 OFFCURVE",
"1832 -164 CURVE SMOOTH",
"1832 36 LINE",
"1584 36 LINE"
);
},
{
closed = 1;
nodes = (
"1588 2048 LINE",
"1588 436 LINE",
"1568 436 LINE",
"488 2048 LINE",
"248 2048 LINE",
"248 0 LINE",
"496 0 LINE",
"496 1604 LINE",
"516 1604 LINE",
"1592 0 LINE",
"1832 0 LINE",
"1832 2048 LINE"
);
}
);
width = 2080;
},
{
anchors = (
{
name = bottom;
position = "{1044, 0}";
},
{
name = top;
position = "{1044, 2200}";
},
{
name = top0315;
position = "{2036, 2200}";
}
);
layerId = "5C20EF92-B63D-42A8-8878-93C2863E0093";
paths = (
{
closed = 1;
nodes = (
"1352 -4 LINE SMOOTH",
"1352 -180 OFFCURVE",
"1216 -232 OFFCURVE",
"1092 -232 CURVE",
"1060 -232 OFFCURVE",
"996 -228 OFFCURVE",
"964 -228 CURVE",
"964 -600 LINE",
"1036 -612 OFFCURVE",
"1112 -612 OFFCURVE",
"1176 -612 CURVE SMOOTH",
"1520 -612 OFFCURVE",
"1808 -432 OFFCURVE",
"1808 -32 CURVE SMOOTH",
"1808 124 LINE",
"1352 124 LINE {name = hr00;}"
);
},
{
closed = 1;
nodes = (
"1344 2048 LINE",
"1344 788 LINE",
"1328 788 LINE",
"604 2048 LINE",
"144 2048 LINE",
"144 0 LINE",
"608 0 LINE",
"608 1260 LINE",
"624 1260 LINE",
"1352 0 LINE",
"1808 0 LINE",
"1808 2048 LINE"
);
}
);
width = 1952;
}
);
leftKerningGroup = B;
rightKerningGroup = H;
unicode = 014A;
userData = {
interface.gridadjust.original = "{'width': 1947.0, 'leftMargin': 217, 'rightMargin': 205.0}";
"interface.width-adjustments" = (
-16
);
};
},
{
color = (219,235,247,1);
glyphname = O;
lastChange = "2018-09-01 23:10:14 +0000";
layers = (
{
anchors = (
{
name = bottom;
position = "{1072, 0}";
},
{
name = bottom_dd;
position = "{2048, -560}";
},
{
name = tonos;
position = "{272, 2048}";
},
{
name = top;
position = "{1072, 2304}";
},
{
name = top0315;
position = "{1984, 2200}";
},
{
name = top_dd;
position = "{1984, 2200}";
}
);
guideLines = (
{
angle = 90;
position = "{1064, 1652}";
}
);
layerId = "C698F293-3EC0-4A5A-A3A0-0FDB1F5CF265";
paths = (
{
closed = 1;
nodes = (
"1976 1672 OFFCURVE",
"1596 2076 OFFCURVE",
"1072 2076 CURVE SMOOTH",
"548 2076 OFFCURVE",
"168 1672 OFFCURVE",
"168 1024 CURVE",
"168 376 OFFCURVE",
"548 -28 OFFCURVE",
"1072 -28 CURVE SMOOTH",
"1596 -28 OFFCURVE",
"1976 376 OFFCURVE",
"1976 1024 CURVE"
);
},
{
closed = 1;
nodes = (
"1736 492 OFFCURVE",
"1444 204 OFFCURVE",
"1072 204 CURVE SMOOTH",
"700 204 OFFCURVE",
"408 492 OFFCURVE",
"408 1024 CURVE",
"408 1556 OFFCURVE",
"700 1844 OFFCURVE",
"1072 1844 CURVE SMOOTH",
"1444 1844 OFFCURVE",
"1736 1556 OFFCURVE",
"1736 1024 CURVE"
);
}
);
width = 2144;
},
{
anchors = (
{
name = bottom;
position = "{1024, 0}";
},
{
name = bottom_dd;
position = "{1992, -560}";
},
{
name = tonos;
position = "{188, 2000}";
},
{
name = top;
position = "{1024, 2200}";
},
{
name = top0315;
position = "{1992, 2200}";
},
{
name = top_dd;
position = "{1992, 2200}";
}
);
guideLines = (
{
angle = 90;
position = "{1024, 2104}";
}
);
layerId = "5C20EF92-B63D-42A8-8878-93C2863E0093";
paths = (
{
closed = 1;
nodes = (
"1920 1696 OFFCURVE",
"1532 2076 OFFCURVE",
"1024 2076 CURVE SMOOTH",
"512 2076 OFFCURVE",
"120 1696 OFFCURVE",
"120 1020 CURVE",
"120 348 OFFCURVE",
"512 -28 OFFCURVE",
"1024 -28 CURVE SMOOTH",
"1532 -28 OFFCURVE",
"1920 348 OFFCURVE",
"1920 1020 CURVE"
);
},
{
closed = 1;
nodes = (
"1452 560 OFFCURVE",
"1276 388 OFFCURVE",
"1024 388 CURVE SMOOTH",
"772 388 OFFCURVE",
"588 560 OFFCURVE",
"588 1020 CURVE",
"588 1480 OFFCURVE",
"772 1660 OFFCURVE",
"1024 1660 CURVE SMOOTH",
"1276 1660 OFFCURVE",
"1452 1480 OFFCURVE",
"1452 1020 CURVE"
);
}
);
width = 2040;
}
);
leftKerningGroup = C;
rightKerningGroup = D;
unicode = 004F;
userData = {
com.typemytype.robofont.guideline.magnetic.GU6fgH972W = 5;
"interface.width-adjustments" = (
-16
);
};
},
{
glyphname = Oslash;
lastChange = "2018-09-01 23:10:14 +0000";
layers = (
{
anchors = (
{
name = top;
position = "{1068, 2304}";
},
{
name = top0315;
position = "{2020, 2304}";
},
{
name = top_dd;
position = "{2020, 2200}";
}
);
guideLines = (
{
angle = 145.6539;
position = "{396, -96}";
},
{
angle = 90;
position = "{1016, 1852}";
},
{
angle = 56.0077;
position = "{1016, 1024}";
}
);
layerId = "C698F293-3EC0-4A5A-A3A0-0FDB1F5CF265";
paths = (
{
closed = 1;
nodes = (
"1856 2024 LINE",
"1704 2128 LINE",
"280 20 LINE",
"432 -84 LINE"
);
},
{
closed = 1;
nodes = (
"1976 1672 OFFCURVE",
"1596 2076 OFFCURVE",
"1072 2076 CURVE SMOOTH",
"548 2076 OFFCURVE",
"168 1672 OFFCURVE",
"168 1024 CURVE",
"168 376 OFFCURVE",
"548 -28 OFFCURVE",
"1072 -28 CURVE SMOOTH",
"1596 -28 OFFCURVE",
"1976 376 OFFCURVE",
"1976 1024 CURVE"
);
},
{
closed = 1;
nodes = (
"1736 492 OFFCURVE",
"1444 204 OFFCURVE",
"1072 204 CURVE SMOOTH",
"700 204 OFFCURVE",
"408 492 OFFCURVE",
"408 1024 CURVE",
"408 1556 OFFCURVE",
"700 1844 OFFCURVE",
"1072 1844 CURVE SMOOTH",
"1444 1844 OFFCURVE",
"1736 1556 OFFCURVE",
"1736 1024 CURVE"
);
}
);
width = 2144;
},
{
anchors = (
{
name = top;
position = "{1024, 2304}";
},
{
name = top0315;
position = "{1972, 2304}";
},
{
name = top_dd;
position = "{1972, 2200}";
}
);
guideLines = (
{
angle = 90;
position = "{1024, 1588}";
},
{
position = "{1292, 1024}";
},
{
angle = 55.9722;
position = "{1024, 1024}";
}
);
layerId = "5C20EF92-B63D-42A8-8878-93C2863E0093";
paths = (
{
closed = 1;
nodes = (
"1848 2008 LINE",
"1648 2144 LINE",
"224 36 LINE",
"424 -100 LINE"
);
},
{
closed = 1;
nodes = (
"1920 1696 OFFCURVE",
"1532 2076 OFFCURVE",
"1024 2076 CURVE SMOOTH",
"512 2076 OFFCURVE",
"120 1696 OFFCURVE",
"120 1020 CURVE",
"120 348 OFFCURVE",
"512 -28 OFFCURVE",
"1024 -28 CURVE SMOOTH",
"1532 -28 OFFCURVE",
"1920 348 OFFCURVE",
"1920 1020 CURVE"
);
},
{
closed = 1;
nodes = (
"1452 560 OFFCURVE",
"1276 388 OFFCURVE",
"1024 388 CURVE SMOOTH",
"772 388 OFFCURVE",
"588 560 OFFCURVE",
"588 1020 CURVE",
"588 1480 OFFCURVE",
"772 1660 OFFCURVE",
"1024 1660 CURVE SMOOTH",
"1276 1660 OFFCURVE",
"1452 1480 OFFCURVE",
"1452 1020 CURVE"
);
}
);
width = 2040;
}
);
leftKerningGroup = C;
rightKerningGroup = D;
unicode = 00D8;
userData = {
com.typemytype.robofont.guideline.magnetic.7eFhkhwEhv = 5;
com.typemytype.robofont.guideline.magnetic.bDBaZ7HKjd = 5;
com.typemytype.robofont.guideline.magnetic.rquz9RFtyk = 5;
"interface.width-adjustments" = (
-16
);
};
},
{
glyphname = Ohorn;
lastChange = "2018-09-01 23:10:14 +0000";
layers = (
{
anchors = (
{
name = bottom;
position = "{988, 0}";
},
{
name = top;
position = "{1020, 2304}";
},
{
name = top0315;
position = "{1964, 2192}";
}
);
layerId = "C698F293-3EC0-4A5A-A3A0-0FDB1F5CF265";
paths = (
{
closed = 1;
nodes = (
"1904 1964 OFFCURVE",
"1812 1828 OFFCURVE",
"1604 1828 CURVE",
"1604 1632 LINE",
"1960 1632 OFFCURVE",
"2140 1836 OFFCURVE",
"2140 2196 CURVE",
"1904 2196 LINE"
);
},
{
closed = 1;
nodes = (
"1976 1672 OFFCURVE",
"1596 2076 OFFCURVE",
"1072 2076 CURVE SMOOTH",
"548 2076 OFFCURVE",
"168 1672 OFFCURVE",
"168 1024 CURVE",
"168 376 OFFCURVE",
"548 -28 OFFCURVE",
"1072 -28 CURVE SMOOTH",
"1596 -28 OFFCURVE",
"1976 376 OFFCURVE",
"1976 1024 CURVE"
);
},
{
closed = 1;
nodes = (
"1736 492 OFFCURVE",
"1444 204 OFFCURVE",
"1072 204 CURVE SMOOTH",
"700 204 OFFCURVE",
"408 492 OFFCURVE",
"408 1024 CURVE",
"408 1556 OFFCURVE",
"700 1844 OFFCURVE",
"1072 1844 CURVE SMOOTH",
"1444 1844 OFFCURVE",
"1736 1556 OFFCURVE",
"1736 1024 CURVE"
);
}
);
width = 2180;
},
{
anchors = (
{
name = bottom;
position = "{1024, 0}";
},
{
name = top;
position = "{1024, 2212}";
},
{
name = top0315;
position = "{2008, 2212}";
}
);
guideLines = (
{
angle = 90;
position = "{1024, 1568}";
}
);
layerId = "5C20EF92-B63D-42A8-8878-93C2863E0093";
paths = (
{
closed = 1;
nodes = (
"1808 1888 OFFCURVE",
"1760 1740 OFFCURVE",
"1576 1740 CURVE",
"1576 1516 LINE",
"1932 1516 OFFCURVE",
"2084 1744 OFFCURVE",
"2084 2140 CURVE",
"1808 2140 LINE"
);
},
{
closed = 1;
nodes = (
"1920 1696 OFFCURVE",
"1532 2076 OFFCURVE",
"1024 2076 CURVE SMOOTH",
"512 2076 OFFCURVE",
"120 1696 OFFCURVE",
"120 1020 CURVE",
"120 348 OFFCURVE",
"512 -28 OFFCURVE",
"1024 -28 CURVE SMOOTH",
"1532 -28 OFFCURVE",
"1920 348 OFFCURVE",
"1920 1020 CURVE"
);
},
{
closed = 1;
nodes = (
"1452 560 OFFCURVE",
"1276 388 OFFCURVE",
"1024 388 CURVE SMOOTH",
"772 388 OFFCURVE",
"588 560 OFFCURVE",
"588 1020 CURVE",
"588 1480 OFFCURVE",
"772 1660 OFFCURVE",
"1024 1660 CURVE SMOOTH",
"1276 1660 OFFCURVE",
"1452 1480 OFFCURVE",
"1452 1020 CURVE"
);
}
);
width = 2100;
}
);
leftKerningGroup = C;
rightKerningGroup = Ohorn;
unicode = 01A0;
userData = {
interface.gridadjust.original = "{'width': 1928, 'leftMargin': 226, 'rightMargin': -45}";
"interface.width-adjustments" = (
-16
);
};
},
{
color = (219,235,247,1);
glyphname = P;
lastChange = "2018-09-01 23:10:14 +0000";
layers = (
{
anchors = (
{
name = bottom;
position = "{736, 0}";
},
{
name = bottom_dd;
position = "{1796, -560}";
},
{
name = tonos;
position = "{44, 2000}";
},
{
name = top;
position = "{904, 2304}";
},
{
name = top0315;
position = "{1796, 2216}";
},
{
name = top_dd;
position = "{1796, 2200}";
}
);
guideLines = (
{
angle = 90;
position = "{1396, 1760}";
},
{
angle = 90;
position = "{1248, 1804}";
}
);
layerId = "C698F293-3EC0-4A5A-A3A0-0FDB1F5CF265";
paths = (
{
closed = 1;
nodes = (
"1412 740 OFFCURVE",
"1620 1032 OFFCURVE",
"1620 1400 CURVE",
"1620 1768 OFFCURVE",
"1412 2048 OFFCURVE",
"932 2048 CURVE",
"248 2048 LINE",
"248 0 LINE",
"496 0 LINE",
"496 1828 LINE",
"932 1828 LINE",
"1264 1828 OFFCURVE",
"1376 1652 OFFCURVE",
"1376 1400 CURVE",
"1376 1148 OFFCURVE",
"1264 960 OFFCURVE",
"936 960 CURVE",
"448 960 LINE",
"448 740 LINE",
"936 740 LINE"
);
}
);
width = 1784;
},
{
anchors = (
{
name = bottom;
position = "{828, 16}";
},
{
name = bottom_dd;
position = "{1928, -560}";
},
{
name = tonos;
position = "{28, 2000}";
},
{
name = top;
position = "{920, 2216}";
},
{
name = top0315;
position = "{1928, 2216}";
},
{
name = top_dd;
position = "{1928, 2200}";
}
);
guideLines = (
{
position = "{0, 1238.875}";
},
{
position = "{0, 763.125}";
},
{
position = "{0, 1552.375}";
},
{
position = "{808, 1372}";
}
);
layerId = "5C20EF92-B63D-42A8-8878-93C2863E0093";
paths = (
{
closed = 1;
nodes = (
"1448 704 OFFCURVE",
"1668 960 OFFCURVE",
"1668 1372 CURVE",
"1668 1776 OFFCURVE",
"1460 2048 OFFCURVE",
"936 2048 CURVE",
"144 2048 LINE",
"144 0 LINE",
"608 0 LINE",
"608 1664 LINE",
"936 1664 LINE",
"1136 1664 OFFCURVE",
"1208 1532 OFFCURVE",
"1208 1372 CURVE",
"1208 1212 OFFCURVE",
"1136 1084 OFFCURVE",
"936 1084 CURVE",
"436 1084 LINE",
"436 704 LINE",
"936 704 LINE"
);
}
);
width = 1796;
}
);
leftKerningGroup = B;
rightKerningGroup = P;
unicode = 0050;
userData = {
com.typemytype.robofont.guideline.magnetic.fNIC4eKo9v = 5;
com.typemytype.robofont.guideline.magnetic.hdLF6WxJ6g = 5;
"interface.width-adjustments" = (
-16
);
};
},
{
glyphname = uni048E;
lastChange = "2018-09-01 23:10:14 +0000";
layers = (
{
layerId = "C698F293-3EC0-4A5A-A3A0-0FDB1F5CF265";
paths = (
{
closed = 1;
nodes = (
"968 1192 LINE",
"1484 632 LINE",
"1644 780 LINE",
"1128 1340 LINE"
);
},
{
closed = 1;
nodes = (
"1412 740 OFFCURVE",
"1620 1032 OFFCURVE",
"1620 1400 CURVE",
"1620 1768 OFFCURVE",
"1412 2048 OFFCURVE",
"932 2048 CURVE",
"248 2048 LINE",
"248 0 LINE",
"496 0 LINE",
"496 1828 LINE",
"932 1828 LINE",
"1264 1828 OFFCURVE",
"1376 1652 OFFCURVE",
"1376 1400 CURVE",
"1376 1148 OFFCURVE",
"1264 960 OFFCURVE",
"936 960 CURVE",
"448 960 LINE",
"448 740 LINE",
"936 740 LINE"
);
}
);
width = 1784;
},
{
layerId = "5C20EF92-B63D-42A8-8878-93C2863E0093";
paths = (
{
closed = 1;
nodes = (
"788 1268 LINE",
"1324 484 LINE",
"1540 640 LINE",
"1004 1428 LINE"
);
},
{
closed = 1;
nodes = (
"1448 704 OFFCURVE",
"1668 960 OFFCURVE",
"1668 1372 CURVE",
"1668 1776 OFFCURVE",
"1460 2048 OFFCURVE",
"936 2048 CURVE",
"144 2048 LINE",
"144 0 LINE",
"608 0 LINE",
"608 1664 LINE",
"936 1664 LINE",
"1136 1664 OFFCURVE",
"1208 1532 OFFCURVE",
"1208 1372 CURVE",
"1208 1212 OFFCURVE",
"1136 1084 OFFCURVE",
"936 1084 CURVE",
"436 1084 LINE",
"436 704 LINE",
"936 704 LINE"
);
}
);
width = 1796;
}
);
unicode = 048E;
userData = {
interface.gridadjust.original = "{'width': 1801, 'leftMargin': 256, 'rightMargin': 73}";
"interface.width-adjustments" = (
-16
);
};
},
{
glyphname = Phook;
lastChange = "2018-09-01 23:10:14 +0000";
layers = (
{
layerId = "C698F293-3EC0-4A5A-A3A0-0FDB1F5CF265";
paths = (
{
closed = 1;
nodes = (
"616 2048 LINE",
"416 2048 LINE SMOOTH",
"152 2048 OFFCURVE",
"8 1864 OFFCURVE",
"8 1640 CURVE SMOOTH",
"8 1504 LINE",
"240 1504 LINE",
"240 1580 LINE SMOOTH",
"240 1708 OFFCURVE",
"260 1828 OFFCURVE",
"420 1828 CURVE SMOOTH",
"616 1828 LINE"
);
},
{
closed = 1;
nodes = (
"1712 740 OFFCURVE",
"1920 1032 OFFCURVE",
"1920 1400 CURVE",
"1920 1768 OFFCURVE",
"1712 2048 OFFCURVE",
"1232 2048 CURVE",
"548 2048 LINE",
"548 0 LINE",
"796 0 LINE",
"796 1828 LINE",
"1232 1828 LINE",
"1564 1828 OFFCURVE",
"1676 1652 OFFCURVE",
"1676 1400 CURVE",
"1676 1148 OFFCURVE",
"1564 960 OFFCURVE",
"1236 960 CURVE",
"748 960 LINE",
"748 740 LINE",
"1236 740 LINE"
);
}
);
width = 2084;
},
{
layerId = "5C20EF92-B63D-42A8-8878-93C2863E0093";
paths = (
{
closed = 1;
nodes = (
"940 2048 LINE",
"628 2048 LINE SMOOTH",
"252 2048 OFFCURVE",
"16 1840 OFFCURVE",
"16 1496 CURVE SMOOTH",
"16 1284 LINE",
"428 1284 LINE",
"428 1412 LINE SMOOTH",
"428 1536 OFFCURVE",
"468 1668 OFFCURVE",
"628 1668 CURVE SMOOTH",
"940 1668 LINE {name = hr00;}"
);
},
{
closed = 1;
nodes = (
"1976 704 OFFCURVE",
"2196 960 OFFCURVE",
"2196 1372 CURVE",
"2196 1776 OFFCURVE",
"1988 2048 OFFCURVE",
"1464 2048 CURVE",
"672 2048 LINE",
"672 0 LINE",
"1136 0 LINE",
"1136 1664 LINE",
"1464 1664 LINE",
"1664 1664 OFFCURVE",
"1736 1532 OFFCURVE",
"1736 1372 CURVE",
"1736 1212 OFFCURVE",
"1664 1084 OFFCURVE",
"1464 1084 CURVE",
"964 1084 LINE",
"964 704 LINE",
"1464 704 LINE"
);
}
);
width = 2324;
}
);
unicode = 01A4;
userData = {
interface.gridadjust.original = "{'width': 2072, 'leftMargin': 41, 'rightMargin': 158}";
"interface.width-adjustments" = (
-16
);
};
},
{
color = (219,235,247,1);
glyphname = Q;
lastChange = "2018-09-01 23:10:14 +0000";
layers = (
{
anchors = (
{
name = bottom;
position = "{1032, -28}";
},
{
name = bottom_dd;
position = "{1952, -560}";
},
{
name = top;
position = "{1020, 2304}";
},
{
name = top0315;
position = "{1952, 2200}";
},
{
name = top_dd;
position = "{1952, 2200}";
}
);
layerId = "C698F293-3EC0-4A5A-A3A0-0FDB1F5CF265";
paths = (
{
closed = 1;
nodes = (
"1340 184 LINE",
"1396 108 LINE",
"1620 -192 LINE",
"1892 -192 LINE",
"1552 260 LINE",
"1492 340 LINE",
"1264 640 LINE",
"992 640 LINE"
);
},
{
closed = 1;
nodes = (
"1976 1672 OFFCURVE",
"1596 2076 OFFCURVE",
"1072 2076 CURVE SMOOTH",
"548 2076 OFFCURVE",
"168 1672 OFFCURVE",
"168 1024 CURVE",
"168 376 OFFCURVE",
"548 -28 OFFCURVE",
"1072 -28 CURVE SMOOTH",
"1596 -28 OFFCURVE",
"1976 376 OFFCURVE",
"1976 1024 CURVE"
);
},
{
closed = 1;
nodes = (
"1736 492 OFFCURVE",
"1444 204 OFFCURVE",
"1072 204 CURVE SMOOTH",
"700 204 OFFCURVE",
"408 492 OFFCURVE",
"408 1024 CURVE",
"408 1556 OFFCURVE",
"700 1844 OFFCURVE",
"1072 1844 CURVE SMOOTH",
"1444 1844 OFFCURVE",
"1736 1556 OFFCURVE",
"1736 1024 CURVE"
);
}
);
width = 2144;
},
{
anchors = (
{
name = bottom;
position = "{1024, -16}";
},
{
name = bottom_dd;
position = "{2012, -560}";
},
{
name = top;
position = "{1024, 2200}";
},
{
name = top0315;
position = "{2012, 2200}";
},
{
name = top_dd;
position = "{2012, 2200}";
}
);
guideLines = (
{
angle = 90;
position = "{1024, 1432}";
}
);
layerId = "5C20EF92-B63D-42A8-8878-93C2863E0093";
paths = (
{
closed = 1;
nodes = (
"1112 316 LINE",
"1228 124 LINE",
"1448 -192 LINE",
"1876 -192 LINE",
"1556 264 LINE",
"1364 500 LINE",
"1220 704 LINE",
"840 704 LINE"
);
},
{
closed = 1;
nodes = (
"1920 1696 OFFCURVE",
"1532 2076 OFFCURVE",
"1024 2076 CURVE SMOOTH",
"512 2076 OFFCURVE",
"120 1696 OFFCURVE",
"120 1020 CURVE",
"120 348 OFFCURVE",
"512 -28 OFFCURVE",
"1024 -28 CURVE SMOOTH",
"1532 -28 OFFCURVE",
"1920 348 OFFCURVE",
"1920 1020 CURVE"
);
},
{
closed = 1;
nodes = (
"1452 560 OFFCURVE",
"1276 388 OFFCURVE",
"1024 388 CURVE SMOOTH",
"772 388 OFFCURVE",
"588 560 OFFCURVE",
"588 1020 CURVE",
"588 1480 OFFCURVE",
"772 1660 OFFCURVE",
"1024 1660 CURVE SMOOTH",
"1276 1660 OFFCURVE",
"1452 1480 OFFCURVE",
"1452 1020 CURVE"
);
}
);
width = 2040;
}
);
leftKerningGroup = C;
rightKerningGroup = D;
unicode = 0051;
userData = {
"interface.width-adjustments" = (
-16
);
};
},
{
color = (219,235,247,1);
glyphname = R;
lastChange = "2018-09-01 23:10:14 +0000";
layers = (
{
anchors = (
{
name = bottom;
position = "{848, 0}";
},
{
name = bottom_dd;
position = "{1732, -560}";
},
{
name = top;
position = "{904, 2304}";
},
{
name = top0315;
position = "{1732, 2200}";
},
{
name = top_dd;
position = "{1732, 2200}";
}
);
guideLines = (
{
angle = 90;
position = "{924, 2112}";
}
);
layerId = "C698F293-3EC0-4A5A-A3A0-0FDB1F5CF265";
paths = (
{
closed = 1;
nodes = (
"248 0 LINE",
"496 0 LINE",
"496 1828 LINE",
"932 1828 LINE SMOOTH",
"1296 1828 OFFCURVE",
"1376 1612 OFFCURVE",
"1376 1420 CURVE SMOOTH",
"1376 1192 OFFCURVE",
"1264 1024 OFFCURVE",
"904 1024 CURVE SMOOTH",
"440 1024 LINE",
"440 796 LINE",
"1068 796 LINE",
"1144 816 LINE",
"1448 896 OFFCURVE",
"1620 1100 OFFCURVE",
"1620 1420 CURVE SMOOTH",
"1620 1760 OFFCURVE",
"1420 2048 OFFCURVE",
"932 2048 CURVE",
"248 2048 LINE"
);
},
{
closed = 1;
nodes = (
"1692 0 LINE",
"1224 900 LINE",
"944 900 LINE",
"1404 0 LINE"
);
}
);
width = 1784;
},
{
anchors = (
{
name = bottom;
position = "{924, 16}";
},
{
name = bottom_dd;
position = "{1908, -560}";
},
{
name = top;
position = "{900, 2200}";
},
{
name = top0315;
position = "{1908, 2200}";
},
{
name = top_dd;
position = "{1908, 2200}";
}
);
guideLines = (
{
position = "{0, 1552.375}";
},
{
angle = 90;
position = "{1432.75, 0}";
}
);
layerId = "5C20EF92-B63D-42A8-8878-93C2863E0093";
paths = (
{
closed = 1;
nodes = (
"144 0 LINE",
"608 0 LINE",
"608 1664 LINE",
"932 1664 LINE SMOOTH",
"1100 1664 OFFCURVE",
"1208 1572 OFFCURVE",
"1208 1396 CURVE SMOOTH",
"1208 1216 OFFCURVE",
"1096 1132 OFFCURVE",
"932 1132 CURVE SMOOTH",
"432 1132 LINE",
"436 752 LINE",
"1088 752 LINE",
"1240 792 LINE",
"1480 888 OFFCURVE",
"1668 1076 OFFCURVE",
"1668 1408 CURVE SMOOTH",
"1668 1808 OFFCURVE",
"1416 2048 OFFCURVE",
"932 2048 CURVE SMOOTH",
"144 2048 LINE {name = hr00;}"
);
},
{
closed = 1;
nodes = (
"1752 0 LINE",
"1288 932 LINE",
"788 932 LINE",
"1244 0 LINE"
);
}
);
width = 1796;
}
);
leftKerningGroup = B;
rightKerningGroup = R;
unicode = 0052;
userData = {
com.typemytype.robofont.guideline.magnetic.vulxOItvKZ = 5;
"interface.width-adjustments" = (
-16
);
};
},
{
color = (204,240,242,1);
glyphname = response;
lastChange = "2018-09-01 23:10:14 +0000";
layers = (
{
layerId = "C698F293-3EC0-4A5A-A3A0-0FDB1F5CF265";
paths = (
{
closed = 1;
nodes = (
"1084 2476 LINE",
"1004 2288 LINE",
"1264 2160 LINE",
"308 -396 LINE",
"496 -468 LINE",
"1524 2252 LINE"
);
},
{
closed = 1;
nodes = (
"248 0 LINE",
"496 0 LINE",
"496 1828 LINE",
"932 1828 LINE SMOOTH",
"1296 1828 OFFCURVE",
"1376 1612 OFFCURVE",
"1376 1420 CURVE SMOOTH",
"1376 1192 OFFCURVE",
"1264 1024 OFFCURVE",
"904 1024 CURVE SMOOTH",
"440 1024 LINE",
"440 796 LINE",
"1068 796 LINE",
"1144 816 LINE",
"1448 896 OFFCURVE",
"1620 1100 OFFCURVE",
"1620 1420 CURVE SMOOTH",
"1620 1760 OFFCURVE",
"1420 2048 OFFCURVE",
"932 2048 CURVE",
"248 2048 LINE"
);
},
{
closed = 1;
nodes = (
"1692 0 LINE",
"1224 900 LINE",
"944 900 LINE",
"1404 0 LINE"
);
}
);
width = 1784;
},
{
layerId = "5C20EF92-B63D-42A8-8878-93C2863E0093";
paths = (
{
closed = 1;
nodes = (
"852 2420 LINE",
"776 2176 LINE",
"1052 2104 LINE",
"352 -496 LINE",
"584 -496 LINE",
"1352 2260 LINE"
);
},
{
closed = 1;
nodes = (
"144 0 LINE",
"608 0 LINE",
"608 1664 LINE",
"932 1664 LINE SMOOTH",
"1100 1664 OFFCURVE",
"1208 1572 OFFCURVE",
"1208 1396 CURVE SMOOTH",
"1208 1216 OFFCURVE",
"1096 1132 OFFCURVE",
"932 1132 CURVE SMOOTH",
"432 1132 LINE",
"436 752 LINE",
"1088 752 LINE",
"1240 792 LINE",
"1480 888 OFFCURVE",
"1668 1076 OFFCURVE",
"1668 1408 CURVE SMOOTH",
"1668 1808 OFFCURVE",
"1416 2048 OFFCURVE",
"932 2048 CURVE SMOOTH",
"144 2048 LINE {name = hr00;}"
);
},
{
closed = 1;
nodes = (
"1752 0 LINE",
"1288 932 LINE",
"788 932 LINE",
"1244 0 LINE"
);
}
);
width = 1796;
}
);
unicode = 211F;
userData = {
interface.gridadjust.original = "{'width': 1727.0, 'leftMargin': 250, 'rightMargin': 7.0}";
"interface.width-adjustments" = (
-16
);
};
},
{
color = (204,240,242,1);
glyphname = Rx;
lastChange = "2018-09-01 23:10:14 +0000";
layers = (
{
layerId = "C698F293-3EC0-4A5A-A3A0-0FDB1F5CF265";
paths = (
{
closed = 1;
nodes = (
"248 0 LINE",
"496 0 LINE",
"496 1828 LINE",
"932 1828 LINE SMOOTH",
"1296 1828 OFFCURVE",
"1376 1612 OFFCURVE",
"1376 1420 CURVE SMOOTH",
"1376 1192 OFFCURVE",
"1264 1024 OFFCURVE",
"904 1024 CURVE SMOOTH",
"440 1024 LINE",
"440 796 LINE",
"1068 796 LINE",
"1144 816 LINE",
"1448 896 OFFCURVE",
"1620 1100 OFFCURVE",
"1620 1420 CURVE SMOOTH",
"1620 1760 OFFCURVE",
"1420 2048 OFFCURVE",
"932 2048 CURVE",
"248 2048 LINE"
);
},
{
closed = 1;
nodes = (
"1820 0 LINE",
"1160 900 LINE",
"880 900 LINE",
"1532 0 LINE"
);
},
{
closed = 1;
nodes = (
"1820 900 LINE",
"1540 900 LINE",
"880 0 LINE",
"1168 0 LINE"
);
}
);
width = 1924;
},
{
layerId = "5C20EF92-B63D-42A8-8878-93C2863E0093";
paths = (
{
closed = 1;
nodes = (
"144 0 LINE",
"608 0 LINE",
"608 1664 LINE",
"932 1664 LINE SMOOTH",
"1100 1664 OFFCURVE",
"1208 1572 OFFCURVE",
"1208 1396 CURVE SMOOTH",
"1208 1216 OFFCURVE",
"1096 1132 OFFCURVE",
"932 1132 CURVE SMOOTH",
"432 1132 LINE",
"436 752 LINE",
"1088 752 LINE",
"1240 792 LINE",
"1480 888 OFFCURVE",
"1668 1076 OFFCURVE",
"1668 1408 CURVE SMOOTH",
"1668 1808 OFFCURVE",
"1416 2048 OFFCURVE",
"932 2048 CURVE SMOOTH",
"144 2048 LINE {name = hr00;}"
);
},
{
closed = 1;
nodes = (
"2024 0 LINE",
"1368 932 LINE",
"932 932 LINE",
"1580 0 LINE"
);
},
{
closed = 1;
nodes = (
"2024 932 LINE",
"1588 932 LINE",
"932 0 LINE",
"1376 0 LINE"
);
}
);
width = 2120;
}
);
leftKerningGroup = B;
unicode = 211E;
userData = {
interface.gridadjust.original = "{'width': 1865, 'leftMargin': 228, 'rightMargin': 83}";
"interface.width-adjustments" = (
-16
);
};
},
{
glyphname = uni024C;
lastChange = "2018-09-01 23:10:14 +0000";
layers = (
{
anchors = (
{
name = bottom;
position = "{944, 16}";
},
{
name = top;
position = "{944, 2200}";
},
{
name = top0315;
position = "{1920, 2200}";
}
);
layerId = "C698F293-3EC0-4A5A-A3A0-0FDB1F5CF265";
paths = (
{
closed = 1;
nodes = (
"256 0 LINE",
"504 0 LINE",
"504 1828 LINE",
"940 1828 LINE SMOOTH",
"1304 1828 OFFCURVE",
"1384 1612 OFFCURVE",
"1384 1420 CURVE SMOOTH",
"1384 1192 OFFCURVE",
"1272 1024 OFFCURVE",
"912 1024 CURVE SMOOTH",
"8 1024 LINE",
"8 796 LINE",
"1076 796 LINE",
"1152 816 LINE",
"1456 896 OFFCURVE",
"1628 1100 OFFCURVE",
"1628 1420 CURVE SMOOTH",
"1628 1760 OFFCURVE",
"1428 2048 OFFCURVE",
"940 2048 CURVE",
"256 2048 LINE"
);
},
{
closed = 1;
nodes = (
"1700 0 LINE",
"1232 900 LINE",
"952 900 LINE",
"1412 0 LINE"
);
}
);
width = 1792;
},
{
anchors = (
{
name = bottom;
position = "{960, 16}";
},
{
name = top;
position = "{932, 2200}";
},
{
name = top0315;
position = "{2036, 2200}";
}
);
layerId = "5C20EF92-B63D-42A8-8878-93C2863E0093";
paths = (
{
closed = 1;
nodes = (
"144 0 LINE",
"608 0 LINE",
"608 1664 LINE",
"932 1664 LINE SMOOTH",
"1100 1664 OFFCURVE",
"1208 1572 OFFCURVE",
"1208 1396 CURVE SMOOTH",
"1208 1216 OFFCURVE",
"1096 1132 OFFCURVE",
"932 1132 CURVE SMOOTH",
"0 1132 LINE",
"0 752 LINE",
"1088 752 LINE",
"1240 792 LINE",
"1480 888 OFFCURVE",
"1668 1076 OFFCURVE",
"1668 1408 CURVE SMOOTH",
"1668 1808 OFFCURVE",
"1416 2048 OFFCURVE",
"932 2048 CURVE SMOOTH",
"144 2048 LINE {name = hr00;}"
);
},
{
closed = 1;
nodes = (
"1752 0 LINE",
"1288 932 LINE",
"788 932 LINE",
"1244 0 LINE"
);
}
);
width = 1796;
}
);
rightKerningGroup = R;
unicode = 024C;
userData = {
interface.gridadjust.original = "{'width': 1816, 'leftMargin': 55, 'rightMargin': 33}";
"interface.width-adjustments" = (
-16
);
};
},
{
color = (219,235,247,1);
glyphname = S;
lastChange = "2018-09-01 23:10:14 +0000";
layers = (
{
anchors = (
{
name = bottom;
position = "{888, -36}";
},
{
name = bottom_dd;
position = "{1648, -560}";
},
{
name = top;
position = "{888, 2304}";
},
{
name = top0315;
position = "{1648, 2200}";
},
{
name = top_dd;
position = "{1648, 2200}";
}
);
guideLines = (
{
position = "{52, 528}";
}
);
layerId = "C698F293-3EC0-4A5A-A3A0-0FDB1F5CF265";
paths = (
{
closed = 1;
nodes = (
"1600 1520 LINE",
"1580 1844 OFFCURVE",
"1304 2076 OFFCURVE",
"908 2076 CURVE SMOOTH",
"516 2076 OFFCURVE",
"208 1848 OFFCURVE",
"208 1504 CURVE SMOOTH",
"208 1228 OFFCURVE",
"408 1064 OFFCURVE",
"728 972 CURVE SMOOTH",
"980 900 LINE SMOOTH",
"1256 820 OFFCURVE",
"1388 744 OFFCURVE",
"1388 560 CURVE SMOOTH",
"1388 336 OFFCURVE",
"1172 188 OFFCURVE",
"888 188 CURVE SMOOTH",
"644 188 OFFCURVE",
"428 296 OFFCURVE",
"408 528 CURVE",
"152 528 LINE",
"176 192 OFFCURVE",
"448 -36 OFFCURVE",
"888 -36 CURVE SMOOTH",
"1360 -36 OFFCURVE",
"1628 224 OFFCURVE",
"1628 560 CURVE SMOOTH",
"1628 844 OFFCURVE",
"1440 1016 OFFCURVE",
"1052 1120 CURVE SMOOTH",
"844 1176 LINE SMOOTH",
"572 1248 OFFCURVE",
"448 1348 OFFCURVE",
"448 1512 CURVE SMOOTH",
"448 1712 OFFCURVE",
"628 1856 OFFCURVE",
"900 1856 CURVE SMOOTH",
"1148 1856 OFFCURVE",
"1324 1740 OFFCURVE",
"1360 1520 CURVE"
);
}
);
width = 1788;
},
{
anchors = (
{
name = bottom;
position = "{912, 0}";
},
{
name = bottom_dd;
position = "{1760, -560}";
},
{
name = top;
position = "{912, 2200}";
},
{
name = top0315;
position = "{1760, 2200}";
},
{
name = top_dd;
position = "{1760, 2200}";
}
);
guideLines = (
{
position = "{0, 2279.75}";
},
{
position = "{0, 763.125}";
},
{
position = "{0, 1552.375}";
}
);
layerId = "5C20EF92-B63D-42A8-8878-93C2863E0093";
paths = (
{
closed = 1;
nodes = (
"1648 1440 LINE",
"1648 1828 OFFCURVE",
"1344 2076 OFFCURVE",
"904 2076 CURVE SMOOTH",
"464 2076 OFFCURVE",
"144 1844 OFFCURVE",
"144 1500 CURVE",
"144 1196 OFFCURVE",
"396 1000 OFFCURVE",
"736 896 CURVE SMOOTH",
"776 884 LINE SMOOTH",
"1092 784 OFFCURVE",
"1200 696 OFFCURVE",
"1200 572 CURVE SMOOTH {name = hr00;}",
"1200 464 OFFCURVE",
"1108 356 OFFCURVE",
"892 356 CURVE SMOOTH",
"676 356 OFFCURVE",
"540 464 OFFCURVE",
"532 664 CURVE",
"84 664 LINE",
"84 180 OFFCURVE",
"484 -28 OFFCURVE",
"892 -28 CURVE SMOOTH",
"1336 -28 OFFCURVE",
"1648 188 OFFCURVE",
"1648 576 CURVE",
"1648 908 OFFCURVE",
"1420 1076 OFFCURVE",
"1036 1212 CURVE SMOOTH",
"980 1236 LINE SMOOTH",
"760 1316 OFFCURVE",
"596 1368 OFFCURVE",
"596 1496 CURVE",
"596 1612 OFFCURVE",
"724 1688 OFFCURVE",
"904 1688 CURVE SMOOTH",
"1104 1688 OFFCURVE",
"1200 1592 OFFCURVE",
"1208 1440 CURVE"
);
}
);
width = 1776;
}
);
leftKerningGroup = S;
rightKerningGroup = S;
unicode = 0053;
userData = {
com.typemytype.robofont.guideline.magnetic.yXeOBXqbc8 = 5;
"interface.width-adjustments" = (
-16
);
};
},
{
glyphname = Germandbls;
lastChange = "2018-09-01 23:10:14 +0000";
layers = (
{
layerId = "C698F293-3EC0-4A5A-A3A0-0FDB1F5CF265";
paths = (
{
closed = 1;
nodes = (
"232 1316 LINE",
"232 0 LINE",
"480 0 LINE",
"480 1316 LINE"
);
},
{
closed = 1;
nodes = (
"480 1572 OFFCURVE",
"564 1812 OFFCURVE",
"860 1812 CURVE SMOOTH",
"1044 1812 OFFCURVE",
"1148 1744 OFFCURVE",
"1236 1684 CURVE",
"828 1172 LINE",
"828 1000 LINE",
"976 1000 LINE",
"1560 1724 LINE",
"1376 1892 OFFCURVE",
"1160 2032 OFFCURVE",
"860 2032 CURVE SMOOTH",
"444 2032 OFFCURVE",
"232 1792 OFFCURVE",
"232 1316 CURVE",
"480 1316 LINE"
);
},
{
closed = 1;
nodes = (
"804 -8 OFFCURVE",
"932 -28 OFFCURVE",
"1060 -28 CURVE SMOOTH",
"1456 -28 OFFCURVE",
"1744 188 OFFCURVE",
"1744 560 CURVE SMOOTH",
"1744 952 OFFCURVE",
"1484 1168 OFFCURVE",
"1032 1168 CURVE SMOOTH",
"828 1168 LINE",
"828 956 LINE",
"1028 956 LINE SMOOTH",
"1316 956 OFFCURVE",
"1468 836 OFFCURVE",
"1468 556 CURVE SMOOTH",
"1468 348 OFFCURVE",
"1320 192 OFFCURVE",
"1060 192 CURVE SMOOTH",
"928 192 OFFCURVE",
"828 228 OFFCURVE",
"752 260 CURVE",
"672 40 LINE"
);
}
);
width = 1904;
},
{
guideLines = (
{
position = "{0, 2092.75}";
}
);
layerId = "5C20EF92-B63D-42A8-8878-93C2863E0093";
paths = (
{
closed = 1;
nodes = (
"144 1344 LINE",
"144 0 LINE",
"608 0 LINE",
"608 1344 LINE"
);
},
{
closed = 1;
nodes = (
"608 1624 OFFCURVE",
"700 1708 OFFCURVE",
"868 1708 CURVE SMOOTH",
"1000 1708 OFFCURVE",
"1132 1660 OFFCURVE",
"1228 1584 CURVE",
"876 1184 LINE",
"876 1008 LINE",
"1180 1008 LINE",
"1780 1712 LINE",
"1488 1940 OFFCURVE",
"1216 2076 OFFCURVE",
"868 2076 CURVE SMOOTH",
"384 2076 OFFCURVE",
"144 1828 OFFCURVE",
"144 1344 CURVE",
"608 1344 LINE"
);
},
{
closed = 1;
nodes = (
"808 12 OFFCURVE",
"960 -28 OFFCURVE",
"1176 -28 CURVE SMOOTH",
"1552 -28 OFFCURVE",
"1864 176 OFFCURVE",
"1864 596 CURVE SMOOTH",
"1864 996 OFFCURVE",
"1592 1208 OFFCURVE",
"1128 1208 CURVE",
"876 1180 LINE",
"876 916 LINE",
"1056 916 LINE SMOOTH",
"1292 916 OFFCURVE",
"1420 796 OFFCURVE",
"1420 596 CURVE SMOOTH",
"1420 420 OFFCURVE",
"1320 336 OFFCURVE",
"1116 336 CURVE SMOOTH",
"980 336 OFFCURVE",
"876 376 OFFCURVE",
"824 400 CURVE",
"700 56 LINE"
);
}
);
width = 1960;
}
);
rightKerningGroup = S;
unicode = 1E9E;
userData = {
interface.gridadjust.original = "{'width': 1819, 'leftMargin': 188, 'rightMargin': 122}";
"interface.width-adjustments" = (
-16
);
};
},
{
color = (219,235,247,1);
glyphname = T;
lastChange = "2018-09-01 23:10:14 +0000";
layers = (
{
anchors = (
{
name = bottom;
position = "{904, 0}";
},
{
name = bottom_dd;
position = "{1664, -560}";
},
{
name = cross;
position = "{836, 1232}";
},
{
name = right;
position = "{960, 0}";
},
{
name = top;
position = "{904, 2304}";
},
{
name = top0315;
position = "{1664, 2200}";
},
{
name = top_dd;
position = "{1664, 2200}";
}
);
layerId = "C698F293-3EC0-4A5A-A3A0-0FDB1F5CF265";
paths = (
{
closed = 1;
nodes = (
"780 2048 LINE",
"780 0 LINE",
"1028 0 LINE",
"1028 2048 LINE"
);
},
{
closed = 1;
nodes = (
"136 2048 LINE",
"136 1828 LINE",
"1672 1828 LINE",
"1672 2048 LINE"
);
}
);
width = 1808;
},
{
anchors = (
{
name = bottom;
position = "{900, 16}";
},
{
name = bottom_dd;
position = "{1792, -560}";
},
{
name = cross;
position = "{860, 1120}";
},
{
name = right;
position = "{1076, 0}";
},
{
name = top;
position = "{900, 2200}";
},
{
name = top0315;
position = "{1792, 2200}";
},
{
name = top_dd;
position = "{1792, 2200}";
}
);
layerId = "5C20EF92-B63D-42A8-8878-93C2863E0093";
paths = (
{
closed = 1;
nodes = (
"680 2048 LINE",
"680 0 LINE",
"1140 0 LINE",
"1140 2048 LINE"
);
},
{
closed = 1;
nodes = (
"80 2048 LINE",
"80 1664 LINE",
"1740 1664 LINE",
"1740 2048 LINE"
);
}
);
width = 1820;
}
);
leftKerningGroup = T;
rightKerningGroup = T;
unicode = 0054;
userData = {
"interface.width-adjustments" = (
-16
);
};
},
{
glyphname = Thook;
lastChange = "2018-09-01 23:10:14 +0000";
layers = (
{
layerId = "C698F293-3EC0-4A5A-A3A0-0FDB1F5CF265";
paths = (
{
closed = 1;
nodes = (
"432 2048 LINE SMOOTH",
"180 2048 OFFCURVE",
"24 1884 OFFCURVE",
"24 1644 CURVE SMOOTH",
"24 1524 LINE",
"248 1524 LINE",
"248 1600 LINE SMOOTH",
"248 1716 OFFCURVE",
"292 1828 OFFCURVE",
"432 1828 CURVE SMOOTH",
"904 1828 LINE",
"904 2048 LINE"
);
},
{
closed = 1;
nodes = (
"584 2048 LINE",
"584 1828 LINE",
"780 1828 LINE",
"780 0 LINE",
"1028 0 LINE",
"1028 1828 LINE",
"1672 1828 LINE",
"1672 2048 LINE"
);
}
);
width = 1776;
},
{
layerId = "5C20EF92-B63D-42A8-8878-93C2863E0093";
paths = (
{
closed = 1;
nodes = (
"604 2048 LINE SMOOTH",
"228 2048 OFFCURVE",
"24 1840 OFFCURVE",
"24 1496 CURVE SMOOTH",
"24 1284 LINE",
"404 1284 LINE",
"404 1412 LINE SMOOTH",
"404 1536 OFFCURVE",
"440 1664 OFFCURVE",
"604 1664 CURVE SMOOTH",
"1236 1664 LINE",
"1236 2048 LINE"
);
},
{
closed = 1;
nodes = (
"748 2048 LINE",
"748 1664 LINE",
"1024 1664 LINE",
"1024 0 LINE",
"1488 0 LINE",
"1488 1664 LINE",
"2088 1664 LINE",
"2088 2048 LINE"
);
}
);
width = 2168;
}
);
rightKerningGroup = T;
unicode = 01AC;
userData = {
interface.gridadjust.original = "{'width': 1772, 'leftMargin': 41, 'rightMargin': 63}";
"interface.width-adjustments" = (
-16
);
};
},
{
glyphname = Trthook;
lastChange = "2018-09-01 23:10:14 +0000";
layers = (
{
layerId = "C698F293-3EC0-4A5A-A3A0-0FDB1F5CF265";
paths = (
{
closed = 1;
nodes = (
"780 32 LINE",
"780 -168 LINE SMOOTH",
"780 -432 OFFCURVE",
"984 -576 OFFCURVE",
"1208 -576 CURVE",
"1344 -576 LINE",
"1344 -356 LINE",
"1268 -356 LINE",
"1140 -356 OFFCURVE",
"1028 -324 OFFCURVE",
"1028 -164 CURVE SMOOTH",
"1028 32 LINE"
);
},
{
closed = 1;
nodes = (
"780 2048 LINE",
"780 0 LINE",
"1028 0 LINE",
"1028 2048 LINE"
);
},
{
closed = 1;
nodes = (
"136 2048 LINE",
"136 1828 LINE",
"1672 1828 LINE",
"1672 2048 LINE"
);
}
);
width = 1808;
},
{
layerId = "5C20EF92-B63D-42A8-8878-93C2863E0093";
paths = (
{
closed = 1;
nodes = (
"676 184 LINE",
"676 -80 LINE SMOOTH",
"676 -516 OFFCURVE",
"976 -576 OFFCURVE",
"1216 -576 CURVE",
"1424 -576 LINE",
"1424 -220 LINE",
"1340 -220 LINE",
"1236 -220 OFFCURVE",
"1136 -192 OFFCURVE",
"1136 -80 CURVE SMOOTH",
"1136 184 LINE"
);
},
{
closed = 1;
nodes = (
"676 2048 LINE",
"676 0 LINE",
"1136 0 LINE",
"1136 2048 LINE"
);
},
{
closed = 1;
nodes = (
"76 2048 LINE",
"76 1664 LINE",
"1736 1664 LINE",
"1736 2048 LINE"
);
}
);
width = 1820;
}
);
leftKerningGroup = T;
rightKerningGroup = T;
unicode = 01AE;
userData = {
interface.gridadjust.original = "{'width': 1680, 'leftMargin': 67, 'rightMargin': 63}";
"interface.width-adjustments" = (
-16
);
};
},
{
glyphname = uni023E;
lastChange = "2018-09-01 23:10:14 +0000";
layers = (
{
layerId = "C698F293-3EC0-4A5A-A3A0-0FDB1F5CF265";
paths = (
{
closed = 1;
nodes = (
"1504 2164 LINE",
"1332 2236 LINE",
"368 -120 LINE",
"540 -192 LINE"
);
},
{
closed = 1;
nodes = (
"780 2048 LINE",
"780 0 LINE",
"1028 0 LINE",
"1028 2048 LINE"
);
},
{
closed = 1;
nodes = (
"136 2048 LINE",
"136 1828 LINE",
"1672 1828 LINE",
"1672 2048 LINE"
);
}
);
width = 1808;
},
{
layerId = "5C20EF92-B63D-42A8-8878-93C2863E0093";
paths = (
{
closed = 1;
nodes = (
"1616 2200 LINE",
"1396 2312 LINE",
"256 36 LINE",
"476 -76 LINE"
);
},
{
closed = 1;
nodes = (
"688 2048 LINE",
"688 0 LINE",
"1148 0 LINE",
"1148 2048 LINE"
);
},
{
closed = 1;
nodes = (
"88 2048 LINE",
"88 1664 LINE",
"1748 1664 LINE",
"1748 2048 LINE"
);
}
);
width = 1824;
}
);
leftKerningGroup = T;
rightKerningGroup = T;
unicode = 023E;
userData = {
interface.gridadjust.original = "{'width': 1680, 'leftMargin': 128, 'rightMargin': 16}";
"interface.width-adjustments" = (
-16
);
};
},
{
color = (219,235,247,1);
glyphname = U;
lastChange = "2018-09-01 23:10:14 +0000";
layers = (
{
anchors = (
{
name = bottom;
position = "{1044, -28}";
},
{
name = bottom_dd;
position = "{1828, -560}";
},
{
name = ogonek;
position = "{1304, 64}";
},
{
name = right;
position = "{1160, 0}";
},
{
name = top;
position = "{1044, 2304}";
},
{
name = top0315;
position = "{1828, 2200}";
},
{
name = top_dd;
position = "{1828, 2200}";
}
);
guideLines = (
{
angle = 90;
position = "{1036, 2084}";
}
);
layerId = "C698F293-3EC0-4A5A-A3A0-0FDB1F5CF265";
paths = (
{
closed = 1;
nodes = (
"1592 692 LINE SMOOTH",
"1592 372 OFFCURVE",
"1336 196 OFFCURVE",
"1044 196 CURVE SMOOTH",
"752 196 OFFCURVE",
"496 372 OFFCURVE",
"496 692 CURVE SMOOTH",
"496 2048 LINE",
"248 2048 LINE",
"248 692 LINE",
"248 232 OFFCURVE",
"612 -36 OFFCURVE",
"1044 -36 CURVE SMOOTH",
"1476 -36 OFFCURVE",
"1840 232 OFFCURVE",
"1840 692 CURVE",
"1840 2048 LINE",
"1592 2048 LINE"
);
}
);
width = 2088;
},
{
anchors = (
{
name = bottom;
position = "{908, 0}";
},
{
name = bottom_dd;
position = "{1848, -560}";
},
{
name = ogonek;
position = "{1412, 104}";
},
{
name = right;
position = "{1132, 0}";
},
{
name = top;
position = "{976, 2200}";
},
{
name = top0315;
position = "{1864, 2200}";
},
{
name = top_dd;
position = "{1864, 2200}";
}
);
guideLines = (
{
position = "{0, 1238.875}";
},
{
position = "{0, 763.125}";
},
{
position = "{0, 1552.375}";
}
);
layerId = "5C20EF92-B63D-42A8-8878-93C2863E0093";
paths = (
{
closed = 1;
nodes = (
"1344 712 LINE SMOOTH",
"1344 512 OFFCURVE",
"1200 388 OFFCURVE",
"980 388 CURVE SMOOTH",
"760 388 OFFCURVE",
"608 512 OFFCURVE",
"608 712 CURVE SMOOTH",
"608 2048 LINE",
"144 2048 LINE",
"144 696 LINE",
"144 228 OFFCURVE",
"484 -28 OFFCURVE",
"980 -28 CURVE SMOOTH",
"1472 -28 OFFCURVE",
"1808 228 OFFCURVE",
"1808 696 CURVE",
"1808 2048 LINE",
"1344 2048 LINE"
);
}
);
width = 1952;
}
);
leftKerningGroup = U;
rightKerningGroup = IJacute;
unicode = 0055;
userData = {
com.typemytype.robofont.guideline.magnetic.icXM2D4lH7 = 5;
"interface.width-adjustments" = (
-16
);
};
},
{
glyphname = Uhorn;
lastChange = "2018-09-01 23:10:14 +0000";
layers = (
{
anchors = (
{
name = bottom;
position = "{1044, -28}";
},
{
name = top;
position = "{1044, 2304}";
},
{
name = top0315;
position = "{1976, 2216}";
}
);
guideLines = (
{
angle = 90;
position = "{1036, 244}";
}
);
layerId = "C698F293-3EC0-4A5A-A3A0-0FDB1F5CF265";
paths = (
{
closed = 1;
nodes = (
"2068 1908 OFFCURVE",
"1992 1768 OFFCURVE",
"1712 1768 CURVE",
"1712 1572 LINE",
"2136 1572 OFFCURVE",
"2300 1780 OFFCURVE",
"2300 2172 CURVE",
"2068 2172 LINE"
);
},
{
closed = 1;
nodes = (
"1592 692 LINE SMOOTH",
"1592 372 OFFCURVE",
"1336 196 OFFCURVE",
"1044 196 CURVE SMOOTH",
"752 196 OFFCURVE",
"496 372 OFFCURVE",
"496 692 CURVE SMOOTH",
"496 2048 LINE",
"248 2048 LINE",
"248 692 LINE",
"248 232 OFFCURVE",
"612 -36 OFFCURVE",
"1044 -36 CURVE SMOOTH",
"1476 -36 OFFCURVE",
"1840 232 OFFCURVE",
"1840 692 CURVE",
"1840 2048 LINE",
"1592 2048 LINE"
);
}
);
width = 2404;
},
{
anchors = (
{
name = bottom;
position = "{1008, -16}";
},
{
name = top;
position = "{1008, 2216}";
},
{
name = top0315;
position = "{2036, 2216}";
}
);
layerId = "5C20EF92-B63D-42A8-8878-93C2863E0093";
paths = (
{
closed = 1;
nodes = (
"1992 1848 OFFCURVE",
"1976 1684 OFFCURVE",
"1676 1684 CURVE",
"1676 1456 LINE",
"2140 1456 OFFCURVE",
"2268 1700 OFFCURVE",
"2268 2112 CURVE",
"1992 2112 LINE"
);
},
{
closed = 1;
nodes = (
"1344 712 LINE SMOOTH",
"1344 512 OFFCURVE",
"1200 388 OFFCURVE",
"980 388 CURVE SMOOTH",
"760 388 OFFCURVE",
"608 512 OFFCURVE",
"608 712 CURVE SMOOTH",
"608 2048 LINE",
"144 2048 LINE",
"144 696 LINE",
"144 228 OFFCURVE",
"484 -28 OFFCURVE",
"980 -28 CURVE SMOOTH",
"1472 -28 OFFCURVE",
"1808 228 OFFCURVE",
"1808 696 CURVE",
"1808 2048 LINE",
"1344 2048 LINE"
);
}
);
width = 2284;
}
);
leftKerningGroup = U;
rightKerningGroup = Uhorn;
unicode = 01AF;
userData = {
com.typemytype.robofont.guideline.magnetic.w9xhz5LEo8 = 5;
interface.gridadjust.original = "{'width': 1968, 'leftMargin': 256, 'rightMargin': -199}";
};
},
{
glyphname = uni0244;
lastChange = "2018-09-01 23:10:14 +0000";
layers = (
{
anchors = (
{
name = bottom;
position = "{1044, 0}";
},
{
name = top;
position = "{1044, 2304}";
},
{
name = top0315;
position = "{2016, 2200}";
}
);
guideLines = (
{
angle = 90;
position = "{1036, 148}";
}
);
layerId = "C698F293-3EC0-4A5A-A3A0-0FDB1F5CF265";
paths = (
{
closed = 1;
nodes = (
"-8 1188 LINE",
"-8 1024 LINE",
"2096 1024 LINE",
"2096 1188 LINE"
);
},
{
closed = 1;
nodes = (
"1592 692 LINE SMOOTH",
"1592 372 OFFCURVE",
"1336 196 OFFCURVE",
"1044 196 CURVE SMOOTH",
"752 196 OFFCURVE",
"496 372 OFFCURVE",
"496 692 CURVE SMOOTH",
"496 2048 LINE",
"248 2048 LINE",
"248 692 LINE",
"248 232 OFFCURVE",
"612 -36 OFFCURVE",
"1044 -36 CURVE SMOOTH",
"1476 -36 OFFCURVE",
"1840 232 OFFCURVE",
"1840 692 CURVE",
"1840 2048 LINE",
"1592 2048 LINE"
);
}
);
width = 2088;
},
{
anchors = (
{
name = bottom;
position = "{1168, 0}";
},
{
name = top;
position = "{1168, 2200}";
},
{
name = top0315;
position = "{2276, 2200}";
}
);
layerId = "5C20EF92-B63D-42A8-8878-93C2863E0093";
paths = (
{
closed = 1;
nodes = (
"116 1160 LINE",
"116 896 LINE",
"2220 896 LINE",
"2220 1160 LINE"
);
},
{
closed = 1;
nodes = (
"1564 712 LINE SMOOTH",
"1564 512 OFFCURVE",
"1420 388 OFFCURVE",
"1200 388 CURVE SMOOTH",
"980 388 OFFCURVE",
"828 512 OFFCURVE",
"828 712 CURVE SMOOTH",
"828 2048 LINE",
"364 2048 LINE",
"364 696 LINE",
"364 228 OFFCURVE",
"704 -28 OFFCURVE",
"1200 -28 CURVE SMOOTH",
"1692 -28 OFFCURVE",
"2028 228 OFFCURVE",
"2028 696 CURVE",
"2028 2048 LINE",
"1564 2048 LINE"
);
}
);
width = 2336;
}
);
leftKerningGroup = U;
rightKerningGroup = IJacute;
unicode = 0244;
userData = {
com.typemytype.robofont.guideline.magnetic.DxUS4DFy1H = 5;
interface.gridadjust.original = "{'width': 2199, 'leftMargin': 41, 'rightMargin': 42}";
"interface.width-adjustments" = (
-16
);
};
},
{
color = (219,235,247,1);
glyphname = V;
lastChange = "2018-09-01 23:10:14 +0000";
layers = (
{
anchors = (
{
name = bottom;
position = "{952, 16}";
},
{
name = bottom_dd;
position = "{1924, -560}";
},
{
name = top;
position = "{952, 2304}";
},
{
name = top0315;
position = "{1924, 2216}";
},
{
name = top_dd;
position = "{1924, 2200}";
}
);
guideLines = (
{
angle = 90;
position = "{944, 476}";
},
{
angle = 90;
position = "{312, 2088}";
},
{
angle = 90;
position = "{1552, 2196}";
}
);
layerId = "C698F293-3EC0-4A5A-A3A0-0FDB1F5CF265";
paths = (
{
closed = 1;
nodes = (
"72 2048 LINE",
"824 0 LINE",
"1080 0 LINE",
"1832 2048 LINE",
"1572 2048 LINE",
"964 324 LINE",
"940 324 LINE",
"332 2048 LINE"
);
}
);
width = 1904;
},
{
anchors = (
{
name = bottom;
position = "{1080, 16}";
},
{
name = bottom_dd;
position = "{2012, -560}";
},
{
name = top;
position = "{1080, 2216}";
},
{
name = top0315;
position = "{2012, 2216}";
},
{
name = top_dd;
position = "{2012, 2200}";
}
);
guideLines = (
{
angle = 90;
position = "{1104, 1048}";
}
);
layerId = "5C20EF92-B63D-42A8-8878-93C2863E0093";
paths = (
{
closed = 1;
nodes = (
"80 2048 LINE",
"836 0 LINE",
"1332 0 LINE",
"2088 2048 LINE",
"1600 2048 LINE",
"1096 580 LINE",
"1072 580 LINE",
"568 2048 LINE"
);
}
);
width = 2168;
}
);
leftKerningGroup = V;
rightKerningGroup = V;
unicode = 0056;
userData = {
com.typemytype.robofont.guideline.magnetic.IJvllllLzF = 5;
com.typemytype.robofont.guideline.magnetic.KeOP4W9VuQ = 5;
com.typemytype.robofont.guideline.magnetic.yHrbtxZ5FX = 5;
"interface.width-adjustments" = (
-16
);
};
},
{
color = (219,235,247,1);
glyphname = W;
lastChange = "2018-09-01 23:10:14 +0000";
layers = (
{
anchors = (
{
name = bottom;
position = "{1336, 16}";
},
{
name = bottom_dd;
position = "{2500, -560}";
},
{
name = top;
position = "{1336, 2304}";
},
{
name = top0315;
position = "{2500, 2200}";
},
{
name = top_dd;
position = "{2500, 2200}";
}
);
guideLines = (
{
position = "{1128, 360}";
},
{
angle = 90;
position = "{1328, 2096}";
},
{
angle = 90;
position = "{740, 332}";
},
{
angle = 90;
position = "{1916, 356}";
}
);
layerId = "C698F293-3EC0-4A5A-A3A0-0FDB1F5CF265";
paths = (
{
closed = 1;
nodes = (
"60 2048 LINE",
"620 0 LINE",
"876 0 LINE",
"1328 1632 LINE",
"1344 1632 LINE",
"1796 0 LINE",
"2052 0 LINE",
"2612 2048 LINE",
"2360 2048 LINE",
"1932 380 LINE",
"1912 380 LINE",
"1476 2048 LINE",
"1196 2048 LINE",
"760 380 LINE",
"740 380 LINE",
"312 2048 LINE"
);
}
);
width = 2672;
},
{
anchors = (
{
name = bottom;
position = "{1448, 16}";
},
{
name = bottom_dd;
position = "{2612, -560}";
},
{
name = top;
position = "{1448, 2200}";
},
{
name = top0315;
position = "{2612, 2200}";
},
{
name = top_dd;
position = "{2612, 2200}";
}
);
guideLines = (
{
position = "{0, 2512.125}";
},
{
angle = 90;
position = "{1448, 2076}";
},
{
angle = 90;
position = "{880, 988}";
},
{
angle = 90;
position = "{2016, 852}";
},
{
angle = 90;
position = "{2368, 2120}";
},
{
angle = 90;
position = "{528, 2084}";
}
);
layerId = "5C20EF92-B63D-42A8-8878-93C2863E0093";
paths = (
{
closed = 1;
nodes = (
"108 2048 LINE",
"628 0 LINE",
"1100 0 LINE",
"1440 1284 LINE",
"1456 1284 LINE",
"1796 0 LINE",
"2268 0 LINE",
"2788 2048 LINE",
"2368 2048 LINE",
"2024 668 LINE",
"2008 668 LINE",
"1652 2048 LINE",
"1244 2048 LINE",
"888 672 LINE",
"872 672 LINE",
"528 2048 LINE"
);
}
);
width = 2896;
}
);
leftKerningGroup = W;
rightKerningGroup = W;
unicode = 0057;
userData = {
com.typemytype.robofont.guideline.magnetic.8gZT6dIVxI = 5;
com.typemytype.robofont.guideline.magnetic.ZoWqubfLj9 = 5;
com.typemytype.robofont.guideline.magnetic.k6chDe7LUI = 5;
com.typemytype.robofont.guideline.magnetic.tUpIEqa0MC = 5;
"interface.width-adjustments" = (
-16
);
};
},
{
color = (219,235,247,1);
glyphname = X;
lastChange = "2018-09-01 23:10:14 +0000";
layers = (
{
anchors = (
{
name = bottom;
position = "{904, 16}";
},
{
name = bottom_dd;
position = "{1848, -560}";
},
{
name = cross;
position = "{964, 1020}";
},
{
name = right;
position = "{1596, 0}";
},
{
name = top;
position = "{904, 2304}";
},
{
name = top0315;
position = "{1848, 2216}";
},
{
name = top_dd;
position = "{1848, 2200}";
}
);
guideLines = (
{
angle = 90;
position = "{1724, 2180}";
},
{
angle = 90;
position = "{896, 1372}";
},
{
angle = 90;
position = "{68, 2060}";
},
{
position = "{944, 1196}";
},
{
position = "{1352, 852}";
}
);
layerId = "C698F293-3EC0-4A5A-A3A0-0FDB1F5CF265";
paths = (
{
closed = 1;
nodes = (
"76 2048 LINE",
"736 1024 LINE",
"76 0 LINE",
"368 0 LINE",
"896 836 LINE",
"912 836 LINE",
"1440 0 LINE",
"1732 0 LINE",
"1088 1024 LINE",
"1732 2048 LINE",
"1440 2048 LINE",
"912 1196 LINE",
"896 1196 LINE",
"368 2048 LINE"
);
}
);
width = 1808;
},
{
anchors = (
{
name = bottom;
position = "{988, 0}";
},
{
name = bottom_dd;
position = "{1888, -560}";
},
{
name = cross;
position = "{988, 1024}";
},
{
name = right;
position = "{1652, 0}";
},
{
name = top;
position = "{988, 2216}";
},
{
name = top0315;
position = "{1888, 2216}";
},
{
name = top_dd;
position = "{1888, 2200}";
}
);
guideLines = (
{
angle = 90;
position = "{988, 2152}";
},
{
angle = 90;
position = "{88, 2084}";
},
{
angle = 90;
position = "{1888, 2080}";
},
{
position = "{1148, 1024}";
}
);
layerId = "5C20EF92-B63D-42A8-8878-93C2863E0093";
paths = (
{
closed = 1;
nodes = (
"88 2048 LINE",
"684 1024 LINE",
"72 0 LINE",
"604 0 LINE",
"980 672 LINE",
"996 672 LINE",
"1372 0 LINE",
"1904 0 LINE",
"1292 1024 LINE",
"1888 2048 LINE",
"1364 2048 LINE",
"996 1380 LINE",
"980 1380 LINE",
"612 2048 LINE"
);
}
);
width = 1976;
}
);
leftKerningGroup = X;
rightKerningGroup = X;
unicode = 0058;
userData = {
com.typemytype.robofont.guideline.magnetic.1jwe8yH4eD = 5;
com.typemytype.robofont.guideline.magnetic.AJAcp0DKEy = 5;
com.typemytype.robofont.guideline.magnetic.QFtArEHSdm = 5;
com.typemytype.robofont.guideline.magnetic.TR4vAYYyfi = 5;
com.typemytype.robofont.guideline.magnetic.nnmV4p3je2 = 5;
"interface.width-adjustments" = (
-16
);
};
},
{
color = (219,235,247,1);
glyphname = Y;
lastChange = "2018-09-01 23:10:14 +0000";
layers = (
{
anchors = (
{
name = bottom;
position = "{940, 0}";
},
{
name = bottom_dd;
position = "{1912, -560}";
},
{
name = cross;
position = "{920, 816}";
},
{
name = tonos;
position = "{28, 2048}";
},
{
name = top;
position = "{940, 2304}";
},
{
name = top0315;
position = "{1912, 2200}";
},
{
name = top_dd;
position = "{1912, 2200}";
}
);
guideLines = (
{
angle = 90;
position = "{932, 1360}";
},
{
angle = 90;
position = "{336, 2092}";
},
{
angle = 90;
position = "{1496, 2100}";
}
);
layerId = "C698F293-3EC0-4A5A-A3A0-0FDB1F5CF265";
paths = (
{
closed = 1;
nodes = (
"76 2048 LINE",
"816 844 LINE",
"816 0 LINE",
"1064 0 LINE",
"1064 844 LINE",
"1804 2048 LINE",
"1520 2048 LINE",
"940 1072 LINE",
"360 2048 LINE"
);
},
{
closed = 1;
nodes = (
"964 1044 LINE",
"964 1092 LINE",
"916 1092 LINE",
"916 1044 LINE"
);
}
);
width = 1880;
},
{
anchors = (
{
name = bottom;
position = "{944, 64}";
},
{
name = bottom_dd;
position = "{1828, -560}";
},
{
name = cross;
position = "{956, 832}";
},
{
name = tonos;
position = "{-32, 2000}";
},
{
name = top;
position = "{1076, 2200}";
},
{
name = top0315;
position = "{1972, 2200}";
},
{
name = top_dd;
position = "{1972, 2200}";
}
);
guideLines = (
{
angle = 90;
position = "{1076, 1724}";
}
);
layerId = "5C20EF92-B63D-42A8-8878-93C2863E0093";
paths = (
{
closed = 1;
nodes = (
"64 2048 LINE",
"844 780 LINE",
"844 0 LINE",
"1308 0 LINE",
"1308 780 LINE",
"2088 2048 LINE",
"1584 2048 LINE",
"1076 1160 LINE",
"568 2048 LINE"
);
},
{
closed = 1;
nodes = (
"1100 1132 LINE",
"1100 1180 LINE",
"1052 1180 LINE",
"1052 1132 LINE"
);
}
);
width = 2152;
}
);
leftKerningGroup = Y;
rightKerningGroup = Y;
unicode = 0059;
userData = {
com.typemytype.robofont.guideline.magnetic.KceIXUepDd = 5;
com.typemytype.robofont.guideline.magnetic.TWkdg41wEI = 5;
com.typemytype.robofont.guideline.magnetic.o5DXjGQkF9 = 5;
"interface.width-adjustments" = (
-16
);
};
},
{
glyphname = Yhook;
lastChange = "2018-09-01 23:10:14 +0000";
layers = (
{
guideLines = (
{
angle = 238.6031;
position = "{1496, 1588}";
},
{
angle = 239.3277;
position = "{1304, 1724}";
}
);
layerId = "C698F293-3EC0-4A5A-A3A0-0FDB1F5CF265";
paths = (
{
closed = 1;
nodes = (
"1612 1740 LINE SMOOTH",
"1684 1864 OFFCURVE",
"1772 1872 OFFCURVE",
"1868 1832 CURVE",
"1932 2032 LINE",
"1736 2124 OFFCURVE",
"1532 2064 OFFCURVE",
"1400 1844 CURVE SMOOTH",
"1356 1772 LINE",
"1572 1672 LINE"
);
},
{
closed = 1;
nodes = (
"964 1044 LINE",
"964 1092 LINE",
"916 1092 LINE",
"916 1044 LINE"
);
},
{
closed = 1;
nodes = (
"76 2048 LINE",
"816 844 LINE",
"816 0 LINE",
"1064 0 LINE",
"1064 844 LINE",
"1572 1672 LINE",
"1356 1772 LINE",
"940 1072 LINE",
"360 2048 LINE"
);
}
);
width = 1988;
},
{
guideLines = (
{
angle = 240.4178;
position = "{1176, 1336}";
},
{
angle = 238.4456;
position = "{1436, 988}";
}
);
layerId = "5C20EF92-B63D-42A8-8878-93C2863E0093";
paths = (
{
closed = 1;
nodes = (
"1776 1544 LINE SMOOTH",
"1856 1680 OFFCURVE",
"1924 1720 OFFCURVE",
"2064 1676 CURVE",
"2160 2024 LINE",
"1904 2120 OFFCURVE",
"1604 2092 OFFCURVE",
"1424 1772 CURVE SMOOTH",
"1356 1652 LINE",
"1740 1484 LINE"
);
},
{
closed = 1;
nodes = (
"1100 1132 LINE",
"1100 1180 LINE",
"1052 1180 LINE",
"1052 1132 LINE"
);
},
{
closed = 1;
nodes = (
"64 2048 LINE",
"844 780 LINE",
"844 0 LINE",
"1308 0 LINE",
"1308 780 LINE",
"1740 1484 LINE",
"1356 1652 LINE",
"1076 1160 LINE",
"568 2048 LINE"
);
}
);
width = 2192;
}
);
leftKerningGroup = Y;
rightKerningGroup = Y;
unicode = 01B3;
userData = {
com.typemytype.robofont.guideline.magnetic.1p4TietnVi = 5;
com.typemytype.robofont.guideline.magnetic.a19mK3ffcr = 5;
interface.gridadjust.original = "{'width': 1843, 'leftMargin': 18, 'rightMargin': -41}";
"interface.width-adjustments" = (
-16
);
};
},
{
glyphname = uni024E;
lastChange = "2018-09-01 23:10:14 +0000";
layers = (
{
anchors = (
{
name = bottom;
position = "{928, 0}";
},
{
name = top;
position = "{928, 2304}";
},
{
name = top0315;
position = "{1856, 2200}";
}
);
guideLines = (
{
angle = 90;
position = "{932, 1188}";
}
);
layerId = "C698F293-3EC0-4A5A-A3A0-0FDB1F5CF265";
paths = (
{
closed = 1;
nodes = (
"-4 1628 LINE",
"-4 1464 LINE",
"1860 1464 LINE",
"1860 1628 LINE"
);
},
{
closed = 1;
nodes = (
"64 2048 LINE",
"804 844 LINE",
"804 0 LINE",
"1052 0 LINE",
"1052 844 LINE",
"1792 2048 LINE",
"1508 2048 LINE",
"928 1072 LINE",
"348 2048 LINE"
);
},
{
closed = 1;
nodes = (
"952 1044 LINE",
"952 1092 LINE",
"904 1092 LINE",
"904 1044 LINE"
);
}
);
width = 1856;
},
{
anchors = (
{
name = bottom;
position = "{992, 64}";
},
{
name = top;
position = "{992, 2200}";
},
{
name = top0315;
position = "{2024, 2200}";
}
);
layerId = "5C20EF92-B63D-42A8-8878-93C2863E0093";
paths = (
{
closed = 1;
nodes = (
"100 1620 LINE",
"100 1388 LINE",
"2052 1388 LINE",
"2052 1620 LINE"
);
},
{
closed = 1;
nodes = (
"64 2048 LINE",
"844 780 LINE",
"844 0 LINE",
"1308 0 LINE",
"1308 780 LINE",
"2088 2048 LINE",
"1584 2048 LINE",
"1076 1160 LINE",
"568 2048 LINE"
);
},
{
closed = 1;
nodes = (
"1100 1132 LINE",
"1100 1180 LINE",
"1052 1180 LINE",
"1052 1132 LINE"
);
}
);
width = 2152;
}
);
unicode = 024E;
userData = {
com.typemytype.robofont.guideline.magnetic.lWiVRVgKy6 = 5;
interface.gridadjust.original = "{'width': 1911, 'leftMargin': 41, 'rightMargin': 41}";
"interface.width-adjustments" = (
-16
);
};
},
{
color = (219,235,247,1);
glyphname = Z;
lastChange = "2018-09-01 23:10:14 +0000";
layers = (
{
anchors = (
{
name = bottom;
position = "{880, 16}";
},
{
name = bottom_dd;
position = "{1680, -560}";
},
{
name = top;
position = "{880, 2304}";
},
{
name = top0315;
position = "{1744, 2200}";
},
{
name = top_dd;
position = "{1744, 2200}";
}
);
guideLines = (
{
angle = 90;
position = "{1584, 248}";
},
{
angle = 90;
position = "{160, 1280}";
},
{
angle = 90;
position = "{872, 2156}";
}
);
layerId = "C698F293-3EC0-4A5A-A3A0-0FDB1F5CF265";
paths = (
{
closed = 1;
nodes = (
"284 220 LINE",
"284 0 LINE",
"1592 0 LINE",
"1592 220 LINE"
);
},
{
closed = 1;
nodes = (
"1580 2048 LINE",
"1432 2048 LINE",
"180 180 LINE",
"180 0 LINE",
"328 0 LINE",
"1580 1868 LINE"
);
},
{
closed = 1;
nodes = (
"168 2048 LINE",
"168 1828 LINE",
"1456 1828 LINE",
"1456 2048 LINE"
);
}
);
width = 1760;
},
{
anchors = (
{
name = bottom;
position = "{916, 16}";
},
{
name = bottom_dd;
position = "{1760, -560}";
},
{
name = top;
position = "{916, 2200}";
},
{
name = top0315;
position = "{1760, 2200}";
},
{
name = top_dd;
position = "{1760, 2200}";
}
);
guideLines = (
{
position = "{0, 1553.75}";
},
{
angle = 55.0453;
position = "{1680, 1788}";
},
{
angle = 55.0343;
position = "{124, 276}";
},
{
angle = 90;
position = "{120, 1664}";
},
{
angle = 90;
position = "{1672, 384}";
}
);
layerId = "5C20EF92-B63D-42A8-8878-93C2863E0093";
paths = (
{
closed = 1;
nodes = (
"316 384 LINE",
"316 0 LINE",
"1688 0 LINE",
"1688 384 LINE"
);
},
{
closed = 1;
nodes = (
"1688 2048 LINE",
"1380 2048 LINE",
"136 272 LINE",
"136 0 LINE",
"444 0 LINE",
"1688 1776 LINE"
);
},
{
closed = 1;
nodes = (
"136 2048 LINE",
"136 1664 LINE",
"1500 1664 LINE",
"1500 2048 LINE"
);
}
);
width = 1824;
}
);
leftKerningGroup = Z;
rightKerningGroup = Z;
unicode = 005A;
userData = {
com.typemytype.robofont.guideline.magnetic.7L9fK9Z9Br = 5;
com.typemytype.robofont.guideline.magnetic.DPCAFAyemJ = 5;
com.typemytype.robofont.guideline.magnetic.VxRM18zW9m = 5;
"interface.width-adjustments" = (
-16
);
};
},
{
glyphname = uni0224;
lastChange = "2018-09-01 23:10:14 +0000";
layers = (
{
layerId = "C698F293-3EC0-4A5A-A3A0-0FDB1F5CF265";
paths = (
{
closed = 1;
nodes = (
"728 0 LINE",
"1200 0 LINE SMOOTH",
"1340 0 OFFCURVE",
"1384 -112 OFFCURVE",
"1384 -228 CURVE",
"1384 -304 LINE",
"1608 -304 LINE",
"1608 -184 LINE",
"1608 56 OFFCURVE",
"1452 220 OFFCURVE",
"1200 220 CURVE SMOOTH",
"728 220 LINE"
);
},
{
closed = 1;
nodes = (
"476 220 LINE",
"1580 1868 LINE",
"1580 2048 LINE",
"168 2048 LINE",
"168 1828 LINE",
"1284 1828 LINE",
"180 180 LINE",
"180 0 LINE",
"1016 0 LINE",
"1016 220 LINE"
);
}
);
width = 1760;
},
{
layerId = "5C20EF92-B63D-42A8-8878-93C2863E0093";
paths = (
{
closed = 1;
nodes = (
"892 0 LINE",
"1140 0 LINE SMOOTH",
"1316 0 OFFCURVE",
"1344 -128 OFFCURVE",
"1344 -252 CURVE",
"1344 -360 LINE",
"1720 -360 LINE",
"1720 -168 LINE",
"1720 176 OFFCURVE",
"1516 384 OFFCURVE",
"1140 384 CURVE SMOOTH",
"892 384 LINE"
);
},
{
closed = 1;
nodes = (
"712 384 LINE",
"1688 1776 LINE",
"1688 2048 LINE",
"136 2048 LINE",
"136 1664 LINE",
"1112 1664 LINE",
"136 272 LINE",
"136 0 LINE",
"1048 0 LINE",
"1048 384 LINE"
);
}
);
width = 1824;
}
);
leftKerningGroup = Z;
rightKerningGroup = Z;
unicode = 0224;
userData = {
interface.gridadjust.original = "{'width': 1724, 'leftMargin': 118, 'rightMargin': 44}";
"interface.width-adjustments" = (
-16
);
};
},
{
glyphname = uni2C7F;
lastChange = "2018-09-01 23:10:14 +0000";
layers = (
{
layerId = "C698F293-3EC0-4A5A-A3A0-0FDB1F5CF265";
paths = (
{
closed = 1;
nodes = (
"796 0 OFFCURVE",
"972 -600 OFFCURVE",
"1388 -600 CURVE SMOOTH",
"1480 -600 OFFCURVE",
"1572 -584 OFFCURVE",
"1616 -564 CURVE",
"1616 -344 LINE",
"1564 -356 OFFCURVE",
"1508 -368 OFFCURVE",
"1432 -368 CURVE SMOOTH",
"1108 -368 OFFCURVE",
"948 224 OFFCURVE",
"296 224 CURVE",
"288 0 LINE"
);
},
{
closed = 1;
nodes = (
"1580 2048 LINE",
"1432 2048 LINE",
"180 180 LINE",
"180 0 LINE",
"328 0 LINE",
"1580 1868 LINE"
);
},
{
closed = 1;
nodes = (
"168 2048 LINE",
"168 1828 LINE",
"1456 1828 LINE",
"1456 2048 LINE"
);
}
);
width = 1760;
},
{
layerId = "5C20EF92-B63D-42A8-8878-93C2863E0093";
paths = (
{
closed = 1;
nodes = (
"836 0 OFFCURVE",
"944 -600 OFFCURVE",
"1460 -600 CURVE SMOOTH",
"1564 -600 OFFCURVE",
"1648 -576 OFFCURVE",
"1696 -556 CURVE",
"1696 -196 LINE",
"1632 -216 OFFCURVE",
"1572 -224 OFFCURVE",
"1496 -224 CURVE SMOOTH",
"1164 -224 OFFCURVE",
"1008 376 OFFCURVE",
"408 376 CURVE",
"272 0 LINE"
);
},
{
closed = 1;
nodes = (
"1668 2004 LINE",
"1352 2004 LINE",
"132 252 LINE",
"132 0 LINE",
"464 0 LINE",
"1668 1756 LINE"
);
},
{
closed = 1;
nodes = (
"132 2004 LINE",
"132 1632 LINE",
"1520 1632 LINE",
"1520 2004 LINE"
);
}
);
width = 1824;
}
);
leftKerningGroup = Z;
rightKerningGroup = Z;
unicode = 2C7F;
userData = {
interface.gridadjust.original = "{'width': 1687, 'leftMargin': 117, 'rightMargin': 115}";
"interface.width-adjustments" = (
-16
);
};
},
{
glyphname = OE;
lastChange = "2018-09-01 23:10:14 +0000";
layers = (
{
anchors = (
{
name = bottom;
position = "{1348, 0}";
},
{
name = bottom_dd;
position = "{2736, -560}";
},
{
name = top;
position = "{1348, 2304}";
},
{
name = top0315;
position = "{2736, 2200}";
},
{
name = top_dd;
position = "{2736, 2200}";
}
);
layerId = "C698F293-3EC0-4A5A-A3A0-0FDB1F5CF265";
paths = (
{
closed = 1;
nodes = (
"492 2048 OFFCURVE",
"184 1720 OFFCURVE",
"184 1236 CURVE",
"184 816 LINE",
"184 332 OFFCURVE",
"496 0 OFFCURVE",
"952 0 CURVE SMOOTH",
"1348 0 LINE",
"1348 220 LINE",
"952 220 LINE SMOOTH",
"652 220 OFFCURVE",
"456 420 OFFCURVE",
"456 816 CURVE",
"456 1236 LINE",
"456 1632 OFFCURVE",
"648 1828 OFFCURVE",
"952 1828 CURVE",
"1348 1828 LINE",
"1348 2048 LINE",
"952 2048 LINE"
);
},
{
closed = 1;
nodes = (
"1436 220 LINE",
"1436 0 LINE",
"2504 0 LINE",
"2504 220 LINE"
);
},
{
closed = 1;
nodes = (
"1252 2048 LINE",
"1252 0 LINE",
"1500 0 LINE",
"1500 2048 LINE"
);
},
{
closed = 1;
nodes = (
"1436 1136 LINE",
"1436 916 LINE",
"2384 916 LINE",
"2384 1136 LINE"
);
},
{
closed = 1;
nodes = (
"1436 2048 LINE",
"1436 1828 LINE",
"2488 1828 LINE",
"2488 2048 LINE"
);
}
);
width = 2652;
},
{
anchors = (
{
name = bottom;
position = "{1400, 0}";
},
{
name = bottom_dd;
position = "{2764, -560}";
},
{
name = top;
position = "{1400, 2200}";
},
{
name = top0315;
position = "{2764, 2200}";
},
{
name = top_dd;
position = "{2764, 2200}";
}
);
layerId = "5C20EF92-B63D-42A8-8878-93C2863E0093";
paths = (
{
closed = 1;
nodes = (
"500 2048 OFFCURVE",
"152 1720 OFFCURVE",
"152 1236 CURVE",
"152 816 LINE",
"152 332 OFFCURVE",
"500 0 OFFCURVE",
"1008 0 CURVE SMOOTH",
"1404 0 LINE",
"1404 360 LINE",
"1008 360 LINE SMOOTH",
"756 360 OFFCURVE",
"596 508 OFFCURVE",
"596 816 CURVE",
"596 1236 LINE",
"596 1544 OFFCURVE",
"752 1688 OFFCURVE",
"1008 1688 CURVE SMOOTH",
"1404 1688 LINE",
"1404 2048 LINE",
"1008 2048 LINE SMOOTH"
);
},
{
closed = 1;
nodes = (
"1548 384 LINE",
"1548 0 LINE",
"2612 0 LINE",
"2612 384 LINE"
);
},
{
closed = 1;
nodes = (
"1244 2048 LINE",
"1244 0 LINE",
"1708 0 LINE",
"1708 2048 LINE"
);
},
{
closed = 1;
nodes = (
"1548 1216 LINE",
"1548 832 LINE",
"2472 832 LINE",
"2472 1216 LINE"
);
},
{
closed = 1;
nodes = (
"1548 2048 LINE",
"1548 1664 LINE",
"2612 1664 LINE",
"2612 2048 LINE"
);
}
);
width = 2848;
}
);
leftKerningGroup = C;
rightKerningGroup = E;
unicode = 0152;
userData = {
interface.gridadjust.original = "{'width': 2698, 'leftMargin': 143, 'rightMargin': 191}";
"interface.width-adjustments" = (
-16
);
};
},
{
color = (219,235,247,1);
glyphname = a;
lastChange = "2018-09-04 17:10:35 +0000";
layers = (
{
anchors = (
{
name = bottom;
position = "{764, 0}";
},
{
name = bottom_dd;
position = "{1512, -560}";
},
{
name = ogonek;
position = "{1372, 0}";
},
{
name = rhalfring;
position = "{804, 1792}";
},
{
name = rhotichook;
position = "{1280, 908}";
},
{
name = top;
position = "{804, 1792}";
},
{
name = top0315;
position = "{1280, 1792}";
},
{
name = top_dd;
position = "{1512, 2176}";
}
);
guideLines = (
{
angle = 90;
position = "{796, 1160}";
}
);
layerId = "C698F293-3EC0-4A5A-A3A0-0FDB1F5CF265";
paths = (
{
closed = 1;
nodes = (
"1136 364 OFFCURVE",
"984 176 OFFCURVE",
"704 176 CURVE SMOOTH",
"516 176 OFFCURVE",
"380 260 OFFCURVE",
"380 424 CURVE SMOOTH",
"380 604 OFFCURVE",
"544 660 OFFCURVE",
"728 684 CURVE SMOOTH",
"828 696 OFFCURVE",
"1096 724 OFFCURVE",
"1136 772 CURVE",
"1136 556 LINE SMOOTH"
);
},
{
closed = 1;
nodes = (
"1372 0 LINE",
"1372 1012 LINE SMOOTH",
"1372 1500 OFFCURVE",
"1000 1556 OFFCURVE",
"804 1556 CURVE SMOOTH",
"572 1556 OFFCURVE",
"308 1476 OFFCURVE",
"188 1196 CURVE",
"412 1116 LINE",
"464 1228 OFFCURVE",
"588 1348 OFFCURVE",
"816 1348 CURVE SMOOTH",
"1000 1348 OFFCURVE",
"1136 1268 OFFCURVE",
"1136 1012 CURVE SMOOTH",
"1136 1008 LINE",
"1136 908 OFFCURVE",
"952 916 OFFCURVE",
"740 888 CURVE SMOOTH",
"452 852 OFFCURVE",
"144 784 OFFCURVE",
"144 436 CURVE SMOOTH",
"144 136 OFFCURVE",
"376 -36 OFFCURVE",
"668 -36 CURVE SMOOTH",
"936 -36 OFFCURVE",
"1076 108 OFFCURVE",
"1124 208 CURVE",
"1136 208 LINE",
"1136 0 LINE"
);
}
);
width = 1588;
},
{
anchors = (
{
name = bottom;
position = "{776, 0}";
},
{
name = bottom_dd;
position = "{1544, -560}";
},
{
name = ogonek;
position = "{1408, 0}";
},
{
name = rhalfring;
position = "{780, 1776}";
},
{
name = rhotichook;
position = "{1220, 900}";
},
{
name = top;
position = "{780, 1776}";
},
{
name = top0315;
position = "{1552, 1776}";
},
{
name = top_dd;
position = "{1544, 2200}";
}
);
guideLines = (
{
position = "{0, 2279.75}";
}
);
layerId = "5C20EF92-B63D-42A8-8878-93C2863E0093";
paths = (
{
closed = 1;
nodes = (
"944 384 OFFCURVE",
"824 304 OFFCURVE",
"704 304 CURVE SMOOTH",
"604 304 OFFCURVE",
"540 360 OFFCURVE",
"540 444 CURVE SMOOTH",
"540 556 OFFCURVE",
"600 620 OFFCURVE",
"784 640 CURVE SMOOTH",
"840 648 OFFCURVE",
"920 664 OFFCURVE",
"944 688 CURVE",
"944 492 LINE SMOOTH"
);
},
{
closed = 1;
nodes = (
"1408 0 LINE",
"1408 1040 LINE SMOOTH",
"1408 1384 OFFCURVE",
"1144 1556 OFFCURVE",
"788 1556 CURVE SMOOTH",
"416 1556 OFFCURVE",
"168 1368 OFFCURVE",
"120 1084 CURVE",
"552 1044 LINE",
"568 1144 OFFCURVE",
"664 1208 OFFCURVE",
"768 1208 CURVE SMOOTH",
"880 1208 OFFCURVE",
"944 1132 OFFCURVE",
"944 1052 CURVE SMOOTH",
"944 1020 LINE",
"944 948 OFFCURVE",
"824 936 OFFCURVE",
"724 928 CURVE SMOOTH",
"288 892 OFFCURVE",
"96 704 OFFCURVE",
"96 432 CURVE SMOOTH",
"96 136 OFFCURVE",
"320 -28 OFFCURVE",
"584 -28 CURVE SMOOTH",
"776 -28 OFFCURVE",
"892 60 OFFCURVE",
"948 156 CURVE",
"968 156 LINE",
"968 0 LINE"
);
}
);
width = 1552;
}
);
leftKerningGroup = a;
rightKerningGroup = a;
unicode = 0061;
userData = {
com.typemytype.robofont.guideline.magnetic.bPqRSFRUb5 = 5;
"interface.width-adjustments" = (
-16
);
};
},
{
glyphname = ae;
lastChange = "2018-09-01 23:10:14 +0000";
layers = (
{
anchors = (
{
name = top;
position = "{1284, 1792}";
},
{
name = top0315;
position = "{2464, 1776}";
},
{
name = top_dd;
position = "{2464, 2200}";
}
);
guideLines = (
{
position = "{1332, 888}";
}
);
layerId = "C698F293-3EC0-4A5A-A3A0-0FDB1F5CF265";
paths = (
{
closed = 1;
nodes = (
"1136 364 OFFCURVE",
"984 176 OFFCURVE",
"704 176 CURVE SMOOTH",
"516 176 OFFCURVE",
"380 260 OFFCURVE",
"380 424 CURVE SMOOTH",
"380 604 OFFCURVE",
"544 660 OFFCURVE",
"728 684 CURVE SMOOTH",
"828 696 OFFCURVE",
"1096 724 OFFCURVE",
"1136 772 CURVE",
"1136 556 LINE SMOOTH"
);
},
{
closed = 1;
nodes = (
"412 1116 LINE",
"464 1228 OFFCURVE",
"588 1348 OFFCURVE",
"816 1348 CURVE SMOOTH",
"1000 1348 OFFCURVE",
"1136 1268 OFFCURVE",
"1136 1012 CURVE SMOOTH",
"1136 1008 LINE",
"1136 908 OFFCURVE",
"952 916 OFFCURVE",
"740 888 CURVE SMOOTH",
"452 852 OFFCURVE",
"144 784 OFFCURVE",
"144 436 CURVE SMOOTH",
"144 136 OFFCURVE",
"376 -36 OFFCURVE",
"668 -36 CURVE SMOOTH",
"1028 -36 OFFCURVE",
"1212 220 OFFCURVE",
"1228 328 CURVE",
"1240 328 LINE",
"1304 1272 LINE",
"1252 1428 OFFCURVE",
"1084 1556 OFFCURVE",
"804 1556 CURVE SMOOTH",
"572 1556 OFFCURVE",
"308 1476 OFFCURVE",
"188 1196 CURVE"
);
},
{
closed = 1;
nodes = (
"2208 420 LINE",
"2148 260 OFFCURVE",
"2012 180 OFFCURVE",
"1824 180 CURVE SMOOTH",
"1524 180 OFFCURVE",
"1344 384 OFFCURVE",
"1344 768 CURVE",
"1344 1132 OFFCURVE",
"1532 1344 OFFCURVE",
"1800 1344 CURVE",
"2056 1344 OFFCURVE",
"2220 1152 OFFCURVE",
"2220 892 CURVE",
"1276 820 LINE",
"1276 616 LINE",
"2460 708 LINE",
"2460 788 LINE SMOOTH",
"2460 1360 OFFCURVE",
"2120 1556 OFFCURVE",
"1800 1556 CURVE SMOOTH",
"1528 1556 OFFCURVE",
"1336 1416 OFFCURVE",
"1236 1184 CURVE",
"1192 452 LINE",
"1272 152 OFFCURVE",
"1484 -32 OFFCURVE",
"1824 -32 CURVE",
"2136 -32 OFFCURVE",
"2364 124 OFFCURVE",
"2436 356 CURVE"
);
}
);
width = 2604;
},
{
anchors = (
{
name = top;
position = "{1244, 1776}";
},
{
name = top0315;
position = "{2476, 1776}";
},
{
name = top_dd;
position = "{2476, 2200}";
}
);
guideLines = (
{
position = "{0, 1146.75}";
}
);
layerId = "5C20EF92-B63D-42A8-8878-93C2863E0093";
paths = (
{
closed = 1;
nodes = (
"952 384 OFFCURVE",
"832 304 OFFCURVE",
"712 304 CURVE SMOOTH",
"612 304 OFFCURVE",
"548 360 OFFCURVE",
"548 444 CURVE SMOOTH",
"548 556 OFFCURVE",
"608 620 OFFCURVE",
"792 640 CURVE SMOOTH",
"848 648 OFFCURVE",
"928 664 OFFCURVE",
"952 688 CURVE",
"952 492 LINE SMOOTH"
);
},
{
closed = 1;
nodes = (
"552 1020 LINE",
"580 1128 OFFCURVE",
"656 1192 OFFCURVE",
"764 1192 CURVE SMOOTH",
"868 1192 OFFCURVE",
"952 1132 OFFCURVE",
"952 1052 CURVE SMOOTH",
"952 1020 LINE",
"952 948 OFFCURVE",
"832 936 OFFCURVE",
"732 928 CURVE SMOOTH",
"296 892 OFFCURVE",
"104 704 OFFCURVE",
"104 432 CURVE SMOOTH",
"104 100 OFFCURVE",
"392 -28 OFFCURVE",
"672 -28 CURVE SMOOTH",
"972 -28 OFFCURVE",
"1112 120 OFFCURVE",
"1140 192 CURVE",
"1220 192 LINE",
"1300 1372 LINE",
"1188 1496 OFFCURVE",
"1008 1556 OFFCURVE",
"796 1556 CURVE SMOOTH",
"424 1556 OFFCURVE",
"176 1368 OFFCURVE",
"128 1084 CURVE"
);
},
{
closed = 1;
nodes = (
"1932 540 LINE",
"1900 448 OFFCURVE",
"1840 340 OFFCURVE",
"1656 340 CURVE SMOOTH",
"1428 340 OFFCURVE",
"1336 504 OFFCURVE",
"1336 744 CURVE",
"1336 1020 OFFCURVE",
"1440 1192 OFFCURVE",
"1644 1192 CURVE SMOOTH",
"1824 1192 OFFCURVE",
"1920 1080 OFFCURVE",
"1920 936 CURVE",
"1204 868 LINE",
"1204 576 LINE",
"2348 692 LINE",
"2348 832 LINE SMOOTH",
"2348 1288 OFFCURVE",
"2072 1556 OFFCURVE",
"1648 1556 CURVE SMOOTH",
"1392 1556 OFFCURVE",
"1188 1448 OFFCURVE",
"1060 1272 CURVE",
"1060 340 LINE",
"1180 112 OFFCURVE",
"1344 -28 OFFCURVE",
"1660 -28 CURVE",
"2088 -28 OFFCURVE",
"2288 232 OFFCURVE",
"2336 432 CURVE"
);
}
);
width = 2444;
}
);
leftKerningGroup = a;
rightKerningGroup = ae;
unicode = 00E6;
userData = {
com.typemytype.robofont.guideline.magnetic.47oKtqvLS5 = 5;
interface.gridadjust.original = "{'width': 2377, 'leftMargin': 106, 'rightMargin': 93}";
"interface.width-adjustments" = (
-16
);
};
},
{
color = (196,242,194,1);
export = 0;
glyphname = leftloop.cn;
lastChange = "2018-09-02 05:51:08 +0000";
layers = (
{
guideLines = (
{
position = "{76, 764}";
},
{
angle = 90;
position = "{112, 764}";
}
);
layerId = "C698F293-3EC0-4A5A-A3A0-0FDB1F5CF265";
paths = (
{
closed = 1;
nodes = (
"1240 1292 LINE",
"1188 1372 OFFCURVE",
"1092 1556 OFFCURVE",
"792 1556 CURVE SMOOTH",
"404 1556 OFFCURVE",
"136 1248 OFFCURVE",
"136 764 CURVE SMOOTH",
"136 276 OFFCURVE",
"404 -32 OFFCURVE",
"788 -32 CURVE SMOOTH",
"1084 -32 OFFCURVE",
"1188 152 OFFCURVE",
"1240 236 CURVE",
"1352 236 LINE",
"1352 1292 LINE"
);
},
{
closed = 1;
nodes = (
"372 1092 OFFCURVE",
"520 1344 OFFCURVE",
"820 1344 CURVE SMOOTH",
"1108 1344 OFFCURVE",
"1260 1112 OFFCURVE",
"1260 768 CURVE SMOOTH",
"1260 420 OFFCURVE",
"1104 180 OFFCURVE",
"820 180 CURVE SMOOTH",
"524 180 OFFCURVE",
"372 440 OFFCURVE",
"372 768 CURVE SMOOTH"
);
}
);
width = 1680;
},
{
guideLines = (
{
angle = 90;
position = "{80, 768}";
}
);
layerId = "5C20EF92-B63D-42A8-8878-93C2863E0093";
paths = (
{
closed = 1;
nodes = (
"1032 1372 LINE",
"980 1488 OFFCURVE",
"848 1556 OFFCURVE",
"688 1556 CURVE SMOOTH",
"380 1556 OFFCURVE",
"96 1304 OFFCURVE",
"96 768 CURVE SMOOTH",
"96 244 OFFCURVE",
"364 -24 OFFCURVE",
"688 -24 CURVE SMOOTH",
"848 -24 OFFCURVE",
"980 40 OFFCURVE",
"1032 156 CURVE",
"1232 156 LINE",
"1232 1372 LINE"
);
},
{
closed = 1;
nodes = (
"528 1036 OFFCURVE",
"628 1192 OFFCURVE",
"824 1192 CURVE SMOOTH",
"1036 1192 OFFCURVE",
"1100 1004 OFFCURVE",
"1100 768 CURVE SMOOTH",
"1100 536 OFFCURVE",
"1040 340 OFFCURVE",
"824 340 CURVE SMOOTH",
"628 340 OFFCURVE",
"528 500 OFFCURVE",
"528 768 CURVE SMOOTH"
);
}
);
width = 1576;
}
);
userData = {
com.typemytype.robofont.guideline.magnetic.U786EO8tPc = 5;
com.typemytype.robofont.guideline.magnetic.p5MfOltxSt = 5;
"interface.width-adjustments" = (
-16
);
};
},
{
color = (196,242,194,1);
export = 0;
glyphname = rightloop.cn;
lastChange = "2018-09-02 05:51:11 +0000";
layers = (
{
guideLines = (
{
angle = 90;
position = "{1528, 652}";
},
{
angle = 90;
position = "{1528, 748}";
}
);
layerId = "C698F293-3EC0-4A5A-A3A0-0FDB1F5CF265";
paths = (
{
closed = 1;
nodes = (
"304 236 LINE",
"420 236 LINE",
"472 152 OFFCURVE",
"572 -32 OFFCURVE",
"868 -32 CURVE SMOOTH",
"1252 -32 OFFCURVE",
"1520 276 OFFCURVE",
"1520 764 CURVE SMOOTH",
"1520 1248 OFFCURVE",
"1252 1556 OFFCURVE",
"864 1556 CURVE SMOOTH",
"564 1556 OFFCURVE",
"472 1372 OFFCURVE",
"420 1292 CURVE",
"304 1292 LINE"
);
},
{
closed = 1;
nodes = (
"1284 440 OFFCURVE",
"1132 180 OFFCURVE",
"836 180 CURVE SMOOTH",
"552 180 OFFCURVE",
"396 420 OFFCURVE",
"396 768 CURVE SMOOTH",
"396 1112 OFFCURVE",
"548 1344 OFFCURVE",
"836 1344 CURVE SMOOTH",
"1136 1344 OFFCURVE",
"1284 1092 OFFCURVE",
"1284 768 CURVE SMOOTH"
);
}
);
width = 1680;
},
{
guideLines = (
{
angle = 90;
position = "{1576, 756}";
},
{
angle = 90;
position = "{640, 932}";
},
{
angle = 90;
position = "{984, 1524}";
}
);
layerId = "5C20EF92-B63D-42A8-8878-93C2863E0093";
paths = (
{
closed = 1;
nodes = (
"456 156 LINE",
"656 156 LINE",
"708 40 OFFCURVE",
"840 -24 OFFCURVE",
"1000 -24 CURVE SMOOTH",
"1324 -24 OFFCURVE",
"1592 244 OFFCURVE",
"1592 768 CURVE SMOOTH",
"1592 1304 OFFCURVE",
"1308 1556 OFFCURVE",
"1000 1556 CURVE SMOOTH",
"840 1556 OFFCURVE",
"708 1488 OFFCURVE",
"656 1372 CURVE",
"456 1372 LINE"
);
},
{
closed = 1;
nodes = (
"1160 500 OFFCURVE",
"1060 340 OFFCURVE",
"864 340 CURVE SMOOTH",
"648 340 OFFCURVE",
"588 536 OFFCURVE",
"588 768 CURVE SMOOTH",
"588 1004 OFFCURVE",
"652 1192 OFFCURVE",
"864 1192 CURVE SMOOTH",
"1060 1192 OFFCURVE",
"1160 1036 OFFCURVE",
"1160 768 CURVE SMOOTH"
);
}
);
width = 1824;
}
);
userData = {
com.typemytype.robofont.guideline.magnetic.STn0UlVqXt = 5;
com.typemytype.robofont.guideline.magnetic.bYS0NLsfa8 = 5;
"interface.width-adjustments" = (
-16
);
};
},
{
color = (219,235,247,1);
glyphname = b;
lastChange = "2018-09-01 23:10:14 +0000";
layers = (
{
anchors = (
{
name = bottom;
position = "{904, 0}";
},
{
name = bottom_dd;
position = "{1700, -560}";
},
{
name = top;
position = "{900, 2304}";
},
{
name = top0315;
position = "{1700, 2216}";
},
{
name = top_dd;
position = "{1700, 2200}";
}
);
layerId = "C698F293-3EC0-4A5A-A3A0-0FDB1F5CF265";
paths = (
{
closed = 1;
nodes = (
"216 0 LINE",
"444 0 LINE",
"444 288 LINE",
"372 784 LINE",
"452 1172 LINE",
"452 2048 LINE",
"216 2048 LINE"
);
},
{
closed = 1;
nodes = (
"356 236 LINE",
"472 236 LINE",
"524 152 OFFCURVE",
"624 -32 OFFCURVE",
"920 -32 CURVE SMOOTH",
"1304 -32 OFFCURVE",
"1572 276 OFFCURVE",
"1572 764 CURVE SMOOTH",
"1572 1248 OFFCURVE",
"1304 1556 OFFCURVE",
"916 1556 CURVE SMOOTH",
"616 1556 OFFCURVE",
"524 1372 OFFCURVE",
"472 1292 CURVE",
"356 1292 LINE"
);
},
{
closed = 1;
nodes = (
"1336 440 OFFCURVE",
"1184 180 OFFCURVE",
"888 180 CURVE SMOOTH",
"604 180 OFFCURVE",
"448 420 OFFCURVE",
"448 768 CURVE SMOOTH",
"448 1112 OFFCURVE",
"600 1344 OFFCURVE",
"888 1344 CURVE SMOOTH",
"1188 1344 OFFCURVE",
"1336 1092 OFFCURVE",
"1336 768 CURVE SMOOTH"
);
}
);
width = 1716;
},
{
anchors = (
{
name = bottom;
position = "{932, 0}";
},
{
name = bottom_dd;
position = "{1720, -560}";
},
{
name = top;
position = "{1064, 2200}";
},
{
name = top0315;
position = "{1720, 2200}";
},
{
name = top_dd;
position = "{1720, 2200}";
}
);
layerId = "5C20EF92-B63D-42A8-8878-93C2863E0093";
paths = (
{
closed = 1;
nodes = (
"144 0 LINE",
"600 0 LINE",
"600 304 LINE",
"436 744 LINE",
"604 1272 LINE",
"604 2048 LINE",
"144 2048 LINE"
);
},
{
closed = 1;
nodes = (
"420 156 LINE",
"620 156 LINE",
"672 40 OFFCURVE",
"804 -24 OFFCURVE",
"964 -24 CURVE SMOOTH",
"1288 -24 OFFCURVE",
"1556 244 OFFCURVE",
"1556 768 CURVE SMOOTH",
"1556 1304 OFFCURVE",
"1272 1556 OFFCURVE",
"964 1556 CURVE SMOOTH",
"804 1556 OFFCURVE",
"672 1488 OFFCURVE",
"620 1372 CURVE",
"420 1372 LINE"
);
},
{
closed = 1;
nodes = (
"1124 500 OFFCURVE",
"1024 340 OFFCURVE",
"828 340 CURVE SMOOTH",
"612 340 OFFCURVE",
"552 536 OFFCURVE",
"552 768 CURVE SMOOTH",
"552 1004 OFFCURVE",
"616 1192 OFFCURVE",
"828 1192 CURVE SMOOTH",
"1024 1192 OFFCURVE",
"1124 1036 OFFCURVE",
"1124 768 CURVE SMOOTH"
);
}
);
width = 1652;
}
);
leftKerningGroup = B;
rightKerningGroup = b;
unicode = 0062;
userData = {
"interface.width-adjustments" = (
-16
);
};
},
{
glyphname = btopbar;
lastChange = "2018-09-01 23:10:14 +0000";
layers = (
{
layerId = "C698F293-3EC0-4A5A-A3A0-0FDB1F5CF265";
paths = (
{
closed = 1;
nodes = (
"216 2048 LINE",
"216 1828 LINE",
"1400 1828 LINE",
"1400 2048 LINE"
);
},
{
closed = 1;
nodes = (
"356 236 LINE",
"472 236 LINE",
"524 152 OFFCURVE",
"624 -32 OFFCURVE",
"920 -32 CURVE SMOOTH",
"1304 -32 OFFCURVE",
"1572 276 OFFCURVE",
"1572 764 CURVE SMOOTH",
"1572 1248 OFFCURVE",
"1304 1556 OFFCURVE",
"916 1556 CURVE SMOOTH",
"616 1556 OFFCURVE",
"524 1372 OFFCURVE",
"472 1292 CURVE",
"356 1292 LINE"
);
},
{
closed = 1;
nodes = (
"1336 440 OFFCURVE",
"1184 180 OFFCURVE",
"888 180 CURVE SMOOTH",
"604 180 OFFCURVE",
"448 420 OFFCURVE",
"448 768 CURVE SMOOTH",
"448 1112 OFFCURVE",
"600 1344 OFFCURVE",
"888 1344 CURVE SMOOTH",
"1188 1344 OFFCURVE",
"1336 1092 OFFCURVE",
"1336 768 CURVE SMOOTH"
);
},
{
closed = 1;
nodes = (
"216 0 LINE",
"444 0 LINE",
"444 288 LINE",
"372 784 LINE",
"452 1172 LINE",
"452 2048 LINE",
"216 2048 LINE"
);
}
);
width = 1716;
},
{
layerId = "5C20EF92-B63D-42A8-8878-93C2863E0093";
paths = (
{
closed = 1;
nodes = (
"388 2048 LINE",
"388 1668 LINE",
"1324 1668 LINE",
"1324 2048 LINE {name = hr00;}"
);
},
{
closed = 1;
nodes = (
"420 156 LINE",
"620 156 LINE",
"672 40 OFFCURVE",
"804 -24 OFFCURVE",
"964 -24 CURVE SMOOTH",
"1288 -24 OFFCURVE",
"1556 244 OFFCURVE",
"1556 768 CURVE SMOOTH",
"1556 1304 OFFCURVE",
"1272 1556 OFFCURVE",
"964 1556 CURVE SMOOTH",
"804 1556 OFFCURVE",
"672 1488 OFFCURVE",
"620 1372 CURVE",
"420 1372 LINE"
);
},
{
closed = 1;
nodes = (
"1124 500 OFFCURVE",
"1024 340 OFFCURVE",
"828 340 CURVE SMOOTH",
"612 340 OFFCURVE",
"552 536 OFFCURVE",
"552 768 CURVE SMOOTH",
"552 1004 OFFCURVE",
"616 1192 OFFCURVE",
"828 1192 CURVE SMOOTH",
"1024 1192 OFFCURVE",
"1124 1036 OFFCURVE",
"1124 768 CURVE SMOOTH"
);
},
{
closed = 1;
nodes = (
"144 0 LINE",
"600 0 LINE",
"600 304 LINE",
"436 744 LINE",
"604 1272 LINE",
"604 2048 LINE",
"144 2048 LINE"
);
}
);
width = 1824;
}
);
unicode = 0183;
userData = {
interface.gridadjust.original = "{'width': 1585, 'leftMargin': 256, 'rightMargin': 49}";
"interface.width-adjustments" = (
-16
);
};
},
{
glyphname = bhook;
lastChange = "2018-09-01 23:10:14 +0000";
layers = (
{
anchors = (
{
name = bottom;
position = "{888, 0}";
},
{
name = top;
position = "{928, 2340}";
},
{
name = top0315;
position = "{1652, 2340}";
}
);
layerId = "C698F293-3EC0-4A5A-A3A0-0FDB1F5CF265";
paths = (
{
closed = 1;
nodes = (
"452 1664 LINE SMOOTH",
"452 1824 OFFCURVE",
"548 1872 OFFCURVE",
"676 1872 CURVE SMOOTH",
"704 1872 OFFCURVE",
"732 1868 OFFCURVE",
"752 1864 CURVE",
"752 2064 LINE",
"716 2076 OFFCURVE",
"664 2076 OFFCURVE",
"616 2076 CURVE SMOOTH",
"392 2076 OFFCURVE",
"216 1928 OFFCURVE",
"216 1664 CURVE SMOOTH",
"216 1400 LINE",
"452 1400 LINE"
);
},
{
closed = 1;
nodes = (
"216 0 LINE",
"444 0 LINE",
"444 236 LINE",
"472 236 LINE",
"524 152 OFFCURVE",
"624 -32 OFFCURVE",
"920 -32 CURVE SMOOTH",
"1304 -32 OFFCURVE",
"1572 276 OFFCURVE",
"1572 764 CURVE SMOOTH",
"1572 1248 OFFCURVE",
"1304 1556 OFFCURVE",
"916 1556 CURVE SMOOTH",
"616 1556 OFFCURVE",
"524 1372 OFFCURVE",
"472 1292 CURVE",
"452 1292 LINE",
"452 1536 LINE",
"216 1536 LINE"
);
},
{
closed = 1;
nodes = (
"1336 440 OFFCURVE",
"1184 180 OFFCURVE",
"888 180 CURVE SMOOTH",
"604 180 OFFCURVE",
"448 420 OFFCURVE",
"448 768 CURVE SMOOTH",
"448 1112 OFFCURVE",
"600 1344 OFFCURVE",
"888 1344 CURVE SMOOTH",
"1188 1344 OFFCURVE",
"1336 1092 OFFCURVE",
"1336 768 CURVE SMOOTH"
);
}
);
width = 1716;
},
{
anchors = (
{
name = bottom;
position = "{1024, -16}";
},
{
name = top;
position = "{1012, 2340}";
},
{
name = top0315;
position = "{1676, 2340}";
}
);
layerId = "5C20EF92-B63D-42A8-8878-93C2863E0093";
paths = (
{
closed = 1;
nodes = (
"604 1580 LINE SMOOTH",
"604 1692 OFFCURVE",
"720 1720 OFFCURVE",
"824 1720 CURVE SMOOTH",
"864 1720 OFFCURVE",
"900 1716 OFFCURVE",
"932 1712 CURVE",
"932 2060 LINE",
"876 2068 OFFCURVE",
"800 2076 OFFCURVE",
"700 2076 CURVE SMOOTH",
"460 2076 OFFCURVE",
"144 2024 OFFCURVE",
"144 1580 CURVE SMOOTH",
"144 1444 LINE",
"604 1444 LINE"
);
},
{
closed = 1;
nodes = (
"144 0 LINE",
"600 0 LINE",
"600 156 LINE",
"620 156 LINE",
"672 40 OFFCURVE",
"804 -24 OFFCURVE",
"964 -24 CURVE SMOOTH",
"1288 -24 OFFCURVE",
"1556 244 OFFCURVE",
"1556 768 CURVE SMOOTH",
"1556 1304 OFFCURVE",
"1272 1556 OFFCURVE",
"964 1556 CURVE SMOOTH",
"804 1556 OFFCURVE",
"672 1488 OFFCURVE",
"620 1372 CURVE",
"604 1372 LINE",
"604 1536 LINE",
"144 1536 LINE"
);
},
{
closed = 1;
nodes = (
"1124 500 OFFCURVE",
"1024 340 OFFCURVE",
"828 340 CURVE SMOOTH",
"612 340 OFFCURVE",
"552 536 OFFCURVE",
"552 768 CURVE SMOOTH",
"552 1004 OFFCURVE",
"616 1192 OFFCURVE",
"828 1192 CURVE SMOOTH",
"1024 1192 OFFCURVE",
"1124 1036 OFFCURVE",
"1124 768 CURVE SMOOTH"
);
}
);
width = 1652;
}
);
rightKerningGroup = b;
unicode = 0253;
userData = {
interface.gridadjust.original = "{'width': 1588, 'leftMargin': 188, 'rightMargin': 126}";
"interface.width-adjustments" = (
-16
);
};
},
{
color = (219,235,247,1);
glyphname = c;
lastChange = "2018-09-01 23:10:14 +0000";
layers = (
{
anchors = (
{
name = bottom;
position = "{832, 0}";
},
{
name = bottom_dd;
position = "{1464, -560}";
},
{
name = marktop;
position = "{832, 1792}";
},
{
name = top;
position = "{832, 1792}";
},
{
name = top0315;
position = "{1464, 1776}";
},
{
name = top_dd;
position = "{1464, 2200}";
}
);
guideLines = (
{
angle = 90;
position = "{832, 1472}";
}
);
layerId = "C698F293-3EC0-4A5A-A3A0-0FDB1F5CF265";
paths = (
{
closed = 1;
nodes = (
"1404 1364 OFFCURVE",
"1160 1556 OFFCURVE",
"836 1556 CURVE SMOOTH",
"420 1556 OFFCURVE",
"144 1228 OFFCURVE",
"144 768 CURVE SMOOTH",
"144 296 OFFCURVE",
"412 -32 OFFCURVE",
"840 -32 CURVE SMOOTH",
"1180 -32 OFFCURVE",
"1404 176 OFFCURVE",
"1444 448 CURVE",
"1208 448 LINE",
"1164 280 OFFCURVE",
"1024 180 OFFCURVE",
"840 180 CURVE SMOOTH",
"560 180 OFFCURVE",
"380 412 OFFCURVE",
"380 768 CURVE SMOOTH",
"380 1116 OFFCURVE",
"564 1344 OFFCURVE",
"840 1344 CURVE SMOOTH",
"1048 1344 OFFCURVE",
"1172 1216 OFFCURVE",
"1208 1076 CURVE",
"1444 1076 LINE"
);
}
);
width = 1572;
},
{
anchors = (
{
name = bottom;
position = "{820, 0}";
},
{
name = bottom_dd;
position = "{1512, -560}";
},
{
name = marktop;
position = "{816, 1776}";
},
{
name = top;
position = "{816, 1776}";
},
{
name = top0315;
position = "{1512, 1776}";
},
{
name = top_dd;
position = "{1512, 2200}";
}
);
layerId = "5C20EF92-B63D-42A8-8878-93C2863E0093";
paths = (
{
closed = 1;
nodes = (
"1436 1352 OFFCURVE",
"1180 1556 OFFCURVE",
"820 1556 CURVE SMOOTH",
"368 1556 OFFCURVE",
"96 1232 OFFCURVE",
"96 768 CURVE SMOOTH",
"96 304 OFFCURVE",
"368 -28 OFFCURVE",
"820 -28 CURVE SMOOTH",
"1168 -28 OFFCURVE",
"1424 168 OFFCURVE",
"1496 472 CURVE",
"1072 548 LINE",
"1036 424 OFFCURVE",
"960 340 OFFCURVE",
"820 340 CURVE SMOOTH",
"612 340 OFFCURVE",
"532 512 OFFCURVE",
"532 768 CURVE SMOOTH",
"532 1024 OFFCURVE",
"612 1192 OFFCURVE",
"820 1192 CURVE SMOOTH",
"972 1192 OFFCURVE",
"1044 1100 OFFCURVE",
"1080 952 CURVE",
"1500 1032 LINE"
);
}
);
width = 1588;
}
);
leftKerningGroup = c;
rightKerningGroup = c;
unicode = 0063;
userData = {
com.typemytype.robofont.guideline.magnetic.woLfa0Gzpt = 5;
"interface.width-adjustments" = (
-16
);
};
},
{
glyphname = uni023C;
lastChange = "2018-09-01 23:10:14 +0000";
layers = (
{
layerId = "C698F293-3EC0-4A5A-A3A0-0FDB1F5CF265";
paths = (
{
closed = 1;
nodes = (
"1168 2004 LINE",
"116 -572 LINE",
"308 -572 LINE",
"1356 2004 LINE"
);
},
{
closed = 1;
nodes = (
"1336 1364 OFFCURVE",
"1092 1556 OFFCURVE",
"768 1556 CURVE SMOOTH",
"352 1556 OFFCURVE",
"76 1228 OFFCURVE",
"76 768 CURVE SMOOTH",
"76 296 OFFCURVE",
"344 -32 OFFCURVE",
"772 -32 CURVE SMOOTH",
"1112 -32 OFFCURVE",
"1336 176 OFFCURVE",
"1376 448 CURVE",
"1140 448 LINE",
"1096 280 OFFCURVE",
"956 180 OFFCURVE",
"772 180 CURVE SMOOTH",
"492 180 OFFCURVE",
"312 412 OFFCURVE",
"312 768 CURVE SMOOTH",
"312 1116 OFFCURVE",
"496 1344 OFFCURVE",
"772 1344 CURVE SMOOTH",
"980 1344 OFFCURVE",
"1104 1216 OFFCURVE",
"1140 1076 CURVE",
"1376 1076 LINE"
);
}
);
width = 1520;
},
{
layerId = "5C20EF92-B63D-42A8-8878-93C2863E0093";
paths = (
{
closed = 1;
nodes = (
"1068 2004 LINE",
"240 -572 LINE",
"488 -572 LINE",
"1316 2004 LINE"
);
},
{
closed = 1;
nodes = (
"1436 1352 OFFCURVE",
"1180 1556 OFFCURVE",
"820 1556 CURVE SMOOTH",
"368 1556 OFFCURVE",
"96 1232 OFFCURVE",
"96 768 CURVE SMOOTH",
"96 304 OFFCURVE",
"368 -28 OFFCURVE",
"820 -28 CURVE SMOOTH",
"1168 -28 OFFCURVE",
"1424 168 OFFCURVE",
"1496 472 CURVE",
"1072 548 LINE",
"1036 424 OFFCURVE",
"960 340 OFFCURVE",
"820 340 CURVE SMOOTH",
"612 340 OFFCURVE",
"532 512 OFFCURVE",
"532 768 CURVE SMOOTH",
"532 1024 OFFCURVE",
"612 1192 OFFCURVE",
"820 1192 CURVE SMOOTH",
"972 1192 OFFCURVE",
"1044 1100 OFFCURVE",
"1080 952 CURVE",
"1500 1032 LINE"
);
}
);
width = 1588;
}
);
unicode = 023C;
userData = {
interface.gridadjust.original = "{'width': 1480, 'leftMargin': 110, 'rightMargin': -48}";
"interface.width-adjustments" = (
-16
);
};
},
{
glyphname = chook;
lastChange = "2018-09-01 23:10:14 +0000";
layers = (
{
layerId = "C698F293-3EC0-4A5A-A3A0-0FDB1F5CF265";
paths = (
{
closed = 1;
nodes = (
"1444 1276 LINE SMOOTH",
"1444 1436 OFFCURVE",
"1540 1484 OFFCURVE",
"1668 1484 CURVE SMOOTH",
"1696 1484 OFFCURVE",
"1724 1480 OFFCURVE",
"1744 1476 CURVE",
"1744 1676 LINE",
"1708 1688 OFFCURVE",
"1656 1688 OFFCURVE",
"1608 1688 CURVE SMOOTH",
"1384 1688 OFFCURVE",
"1208 1540 OFFCURVE",
"1208 1276 CURVE SMOOTH",
"1208 1076 LINE",
"1444 1076 LINE"
);
},
{
closed = 1;
nodes = (
"1404 1364 OFFCURVE",
"1160 1556 OFFCURVE",
"836 1556 CURVE SMOOTH",
"420 1556 OFFCURVE",
"144 1228 OFFCURVE",
"144 768 CURVE SMOOTH",
"144 296 OFFCURVE",
"412 -32 OFFCURVE",
"840 -32 CURVE SMOOTH",
"1180 -32 OFFCURVE",
"1404 176 OFFCURVE",
"1444 448 CURVE",
"1208 448 LINE",
"1164 280 OFFCURVE",
"1024 180 OFFCURVE",
"840 180 CURVE SMOOTH",
"560 180 OFFCURVE",
"380 412 OFFCURVE",
"380 768 CURVE SMOOTH",
"380 1116 OFFCURVE",
"564 1344 OFFCURVE",
"840 1344 CURVE SMOOTH",
"1048 1344 OFFCURVE",
"1172 1216 OFFCURVE",
"1208 1076 CURVE",
"1444 1076 LINE"
);
}
);
width = 1720;
},
{
layerId = "5C20EF92-B63D-42A8-8878-93C2863E0093";
paths = (
{
closed = 1;
nodes = (
"1500 1184 LINE SMOOTH",
"1500 1336 OFFCURVE",
"1560 1376 OFFCURVE",
"1664 1376 CURVE SMOOTH",
"1704 1376 OFFCURVE",
"1736 1368 OFFCURVE",
"1772 1364 CURVE",
"1772 1660 LINE",
"1708 1676 OFFCURVE",
"1656 1684 OFFCURVE",
"1592 1684 CURVE SMOOTH",
"1300 1684 OFFCURVE",
"1080 1508 OFFCURVE",
"1080 1188 CURVE SMOOTH",
"1080 952 LINE",
"1500 1032 LINE"
);
},
{
closed = 1;
nodes = (
"1436 1352 OFFCURVE",
"1180 1556 OFFCURVE",
"820 1556 CURVE SMOOTH",
"368 1556 OFFCURVE",
"96 1232 OFFCURVE",
"96 768 CURVE SMOOTH",
"96 304 OFFCURVE",
"368 -28 OFFCURVE",
"820 -28 CURVE SMOOTH",
"1168 -28 OFFCURVE",
"1424 168 OFFCURVE",
"1496 472 CURVE",
"1072 548 LINE",
"1036 424 OFFCURVE",
"960 340 OFFCURVE",
"820 340 CURVE SMOOTH",
"612 340 OFFCURVE",
"532 512 OFFCURVE",
"532 768 CURVE SMOOTH",
"532 1024 OFFCURVE",
"612 1192 OFFCURVE",
"820 1192 CURVE SMOOTH",
"972 1192 OFFCURVE",
"1044 1100 OFFCURVE",
"1080 952 CURVE",
"1500 1032 LINE"
);
}
);
width = 1756;
}
);
leftKerningGroup = c;
rightKerningGroup = c;
unicode = 0188;
userData = {
interface.gridadjust.original = "{'width': 1701, 'leftMargin': 256, 'rightMargin': 28}";
"interface.width-adjustments" = (
-16
);
};
},
{
glyphname = ccurl;
lastChange = "2018-09-01 23:10:14 +0000";
layers = (
{
anchors = (
{
name = bottom;
position = "{840, 0}";
},
{
name = top;
position = "{840, 1776}";
},
{
name = top0315;
position = "{1528, 1776}";
}
);
layerId = "C698F293-3EC0-4A5A-A3A0-0FDB1F5CF265";
paths = (
{
closed = 1;
nodes = (
"840 -32 LINE",
"1156 -32 OFFCURVE",
"1408 140 OFFCURVE",
"1408 416 CURVE SMOOTH",
"1408 616 OFFCURVE",
"1280 760 OFFCURVE",
"1012 760 CURVE SMOOTH",
"512 760 OFFCURVE",
"136 252 OFFCURVE",
"-20 92 CURVE",
"144 -52 LINE",
"268 72 OFFCURVE",
"692 552 OFFCURVE",
"1008 552 CURVE SMOOTH",
"1076 552 OFFCURVE",
"1168 508 OFFCURVE",
"1168 408 CURVE SMOOTH",
"1168 276 OFFCURVE",
"1024 180 OFFCURVE",
"840 180 CURVE"
);
},
{
closed = 1;
nodes = (
"1404 1364 OFFCURVE",
"1160 1556 OFFCURVE",
"836 1556 CURVE SMOOTH",
"420 1556 OFFCURVE",
"144 1228 OFFCURVE",
"144 768 CURVE SMOOTH",
"144 296 OFFCURVE",
"412 -32 OFFCURVE",
"840 -32 CURVE",
"840 180 LINE",
"560 180 OFFCURVE",
"380 412 OFFCURVE",
"380 768 CURVE SMOOTH",
"380 1116 OFFCURVE",
"564 1344 OFFCURVE",
"840 1344 CURVE SMOOTH",
"1048 1344 OFFCURVE",
"1172 1216 OFFCURVE",
"1208 1076 CURVE",
"1444 1076 LINE"
);
}
);
width = 1560;
},
{
anchors = (
{
name = bottom;
position = "{800, 0}";
},
{
name = top;
position = "{800, 1776}";
},
{
name = top0315;
position = "{1504, 1776}";
}
);
layerId = "5C20EF92-B63D-42A8-8878-93C2863E0093";
paths = (
{
closed = 1;
nodes = (
"820 -28 LINE",
"1244 -28 OFFCURVE",
"1428 220 OFFCURVE",
"1428 464 CURVE SMOOTH",
"1428 652 OFFCURVE",
"1316 840 OFFCURVE",
"1000 840 CURVE SMOOTH",
"844 840 OFFCURVE",
"532 808 OFFCURVE",
"36 48 CURVE",
"328 -184 LINE",
"672 288 OFFCURVE",
"828 480 OFFCURVE",
"944 480 CURVE SMOOTH",
"984 480 OFFCURVE",
"1008 456 OFFCURVE",
"1008 420 CURVE SMOOTH",
"1008 348 OFFCURVE",
"900 340 OFFCURVE",
"820 340 CURVE"
);
},
{
closed = 1;
nodes = (
"1436 1352 OFFCURVE",
"1180 1556 OFFCURVE",
"820 1556 CURVE SMOOTH",
"368 1556 OFFCURVE",
"96 1232 OFFCURVE",
"96 768 CURVE SMOOTH",
"96 304 OFFCURVE",
"368 -28 OFFCURVE",
"820 -28 CURVE",
"820 340 LINE",
"612 340 OFFCURVE",
"532 512 OFFCURVE",
"532 768 CURVE SMOOTH",
"532 1024 OFFCURVE",
"612 1192 OFFCURVE",
"820 1192 CURVE SMOOTH",
"972 1192 OFFCURVE",
"1044 1100 OFFCURVE",
"1080 952 CURVE",
"1500 1032 LINE"
);
}
);
width = 1588;
}
);
leftKerningGroup = c;
unicode = 0255;
userData = {
interface.gridadjust.original = "{'width': 1497, 'leftMargin': 52, 'rightMargin': 88}";
"interface.width-adjustments" = (
-16
);
};
},
{
color = (219,235,247,1);
glyphname = d;
lastChange = "2018-09-01 23:10:14 +0000";
layers = (
{
anchors = (
{
name = bottom;
position = "{820, 0}";
},
{
name = bottom_dd;
position = "{1620, -560}";
},
{
name = caron;
position = "{1560, 2112}";
},
{
name = cross;
position = "{1236, 1796}";
},
{
name = top;
position = "{820, 2304}";
},
{
name = top0315;
position = "{1620, 2216}";
},
{
name = top_dd;
position = "{1620, 2200}";
}
);
layerId = "C698F293-3EC0-4A5A-A3A0-0FDB1F5CF265";
paths = (
{
closed = 1;
nodes = (
"1500 2048 LINE",
"1264 2048 LINE",
"1264 1156 LINE",
"1336 748 LINE",
"1272 344 LINE",
"1272 0 LINE",
"1500 0 LINE"
);
},
{
closed = 1;
nodes = (
"1248 1292 LINE",
"1196 1372 OFFCURVE",
"1100 1556 OFFCURVE",
"800 1556 CURVE SMOOTH",
"412 1556 OFFCURVE",
"144 1248 OFFCURVE",
"144 764 CURVE SMOOTH",
"144 276 OFFCURVE",
"412 -32 OFFCURVE",
"796 -32 CURVE SMOOTH",
"1092 -32 OFFCURVE",
"1196 152 OFFCURVE",
"1248 236 CURVE",
"1360 236 LINE",
"1360 1292 LINE"
);
},
{
closed = 1;
nodes = (
"380 1092 OFFCURVE",
"528 1344 OFFCURVE",
"828 1344 CURVE SMOOTH",
"1116 1344 OFFCURVE",
"1268 1112 OFFCURVE",
"1268 768 CURVE SMOOTH",
"1268 420 OFFCURVE",
"1112 180 OFFCURVE",
"828 180 CURVE SMOOTH",
"532 180 OFFCURVE",
"380 440 OFFCURVE",
"380 768 CURVE SMOOTH"
);
}
);
width = 1716;
},
{
anchors = (
{
name = bottom;
position = "{756, 0}";
},
{
name = bottom_dd;
position = "{1672, -560}";
},
{
name = caron;
position = "{1696, 2112}";
},
{
name = cross;
position = "{1228, 1796}";
},
{
name = top;
position = "{748, 2200}";
},
{
name = top0315;
position = "{1672, 2200}";
},
{
name = top_dd;
position = "{1672, 2200}";
}
);
layerId = "5C20EF92-B63D-42A8-8878-93C2863E0093";
paths = (
{
closed = 1;
nodes = (
"1508 2048 LINE",
"1048 2048 LINE",
"1048 1256 LINE",
"1204 732 LINE",
"1052 308 LINE",
"1052 0 LINE",
"1508 0 LINE"
);
},
{
closed = 1;
nodes = (
"1032 1372 LINE",
"980 1488 OFFCURVE",
"848 1556 OFFCURVE",
"688 1556 CURVE SMOOTH",
"380 1556 OFFCURVE",
"96 1304 OFFCURVE",
"96 768 CURVE SMOOTH",
"96 244 OFFCURVE",
"364 -24 OFFCURVE",
"688 -24 CURVE SMOOTH",
"848 -24 OFFCURVE",
"980 40 OFFCURVE",
"1032 156 CURVE",
"1232 156 LINE",
"1232 1372 LINE"
);
},
{
closed = 1;
nodes = (
"528 1036 OFFCURVE",
"628 1192 OFFCURVE",
"824 1192 CURVE SMOOTH",
"1036 1192 OFFCURVE",
"1100 1004 OFFCURVE",
"1100 768 CURVE SMOOTH",
"1100 536 OFFCURVE",
"1040 340 OFFCURVE",
"824 340 CURVE SMOOTH",
"628 340 OFFCURVE",
"528 500 OFFCURVE",
"528 768 CURVE SMOOTH"
);
}
);
width = 1652;
}
);
leftKerningGroup = c;
rightKerningGroup = H;
unicode = 0064;
userData = {
"interface.width-adjustments" = (
-16
);
};
},
{
glyphname = drthook;
lastChange = "2018-09-01 23:10:14 +0000";
layers = (
{
anchors = (
{
name = bottom;
position = "{860, -616}";
},
{
name = top;
position = "{780, 2200}";
},
{
name = top0315;
position = "{1672, 2200}";
}
);
layerId = "C698F293-3EC0-4A5A-A3A0-0FDB1F5CF265";
paths = (
{
closed = 1;
nodes = (
"1264 292 LINE",
"1264 -164 LINE SMOOTH",
"1264 -428 OFFCURVE",
"1440 -576 OFFCURVE",
"1664 -576 CURVE SMOOTH",
"1712 -576 OFFCURVE",
"1764 -576 OFFCURVE",
"1800 -564 CURVE",
"1800 -364 LINE",
"1780 -368 OFFCURVE",
"1752 -372 OFFCURVE",
"1724 -372 CURVE SMOOTH",
"1596 -372 OFFCURVE",
"1500 -324 OFFCURVE",
"1500 -164 CURVE SMOOTH",
"1500 292 LINE"
);
},
{
closed = 1;
nodes = (
"1248 1292 LINE",
"1196 1372 OFFCURVE",
"1100 1556 OFFCURVE",
"800 1556 CURVE SMOOTH",
"412 1556 OFFCURVE",
"144 1248 OFFCURVE",
"144 764 CURVE SMOOTH",
"144 276 OFFCURVE",
"412 -32 OFFCURVE",
"796 -32 CURVE SMOOTH",
"1092 -32 OFFCURVE",
"1196 152 OFFCURVE",
"1248 236 CURVE",
"1360 236 LINE",
"1360 1292 LINE"
);
},
{
closed = 1;
nodes = (
"380 1092 OFFCURVE",
"528 1344 OFFCURVE",
"828 1344 CURVE SMOOTH",
"1116 1344 OFFCURVE",
"1268 1112 OFFCURVE",
"1268 768 CURVE SMOOTH",
"1268 420 OFFCURVE",
"1112 180 OFFCURVE",
"828 180 CURVE SMOOTH",
"532 180 OFFCURVE",
"380 440 OFFCURVE",
"380 768 CURVE SMOOTH"
);
},
{
closed = 1;
nodes = (
"1500 2048 LINE",
"1264 2048 LINE",
"1264 1156 LINE",
"1336 748 LINE",
"1272 344 LINE",
"1272 0 LINE",
"1500 0 LINE"
);
}
);
width = 1724;
},
{
anchors = (
{
name = bottom;
position = "{812, -616}";
},
{
name = top;
position = "{676, 2340}";
},
{
name = top0315;
position = "{1804, 2340}";
}
);
layerId = "5C20EF92-B63D-42A8-8878-93C2863E0093";
paths = (
{
closed = 1;
nodes = (
"1048 184 LINE",
"1048 -80 LINE SMOOTH",
"1048 -516 OFFCURVE",
"1348 -576 OFFCURVE",
"1588 -576 CURVE SMOOTH",
"1688 -576 OFFCURVE",
"1764 -568 OFFCURVE",
"1820 -560 CURVE",
"1820 -212 LINE",
"1788 -216 OFFCURVE",
"1752 -220 OFFCURVE",
"1712 -220 CURVE SMOOTH",
"1608 -220 OFFCURVE",
"1508 -192 OFFCURVE",
"1508 -80 CURVE SMOOTH",
"1508 184 LINE"
);
},
{
closed = 1;
nodes = (
"1032 1372 LINE",
"980 1488 OFFCURVE",
"848 1556 OFFCURVE",
"688 1556 CURVE SMOOTH",
"380 1556 OFFCURVE",
"96 1304 OFFCURVE",
"96 768 CURVE SMOOTH",
"96 244 OFFCURVE",
"364 -24 OFFCURVE",
"688 -24 CURVE SMOOTH",
"848 -24 OFFCURVE",
"980 40 OFFCURVE",
"1032 156 CURVE",
"1232 156 LINE",
"1232 1372 LINE"
);
},
{
closed = 1;
nodes = (
"528 1036 OFFCURVE",
"628 1192 OFFCURVE",
"824 1192 CURVE SMOOTH",
"1036 1192 OFFCURVE",
"1100 1004 OFFCURVE",
"1100 768 CURVE SMOOTH",
"1100 536 OFFCURVE",
"1040 340 OFFCURVE",
"824 340 CURVE SMOOTH",
"628 340 OFFCURVE",
"528 500 OFFCURVE",
"528 768 CURVE SMOOTH"
);
},
{
closed = 1;
nodes = (
"1508 2048 LINE",
"1048 2048 LINE",
"1048 1256 LINE",
"1204 732 LINE",
"1052 308 LINE",
"1052 0 LINE",
"1508 0 LINE"
);
}
);
width = 1860;
}
);
leftKerningGroup = c;
rightKerningGroup = rthook;
unicode = 0256;
userData = {
interface.gridadjust.original = "{'width': 1664, 'leftMargin': 256, 'rightMargin': -14}";
"interface.width-adjustments" = (
-16
);
};
},
{
glyphname = dhook;
lastChange = "2018-09-01 23:10:14 +0000";
layers = (
{
anchors = (
{
name = bottom;
position = "{836, 0}";
},
{
name = top;
position = "{756, 2200}";
},
{
name = top0315;
position = "{1652, 2200}";
}
);
layerId = "C698F293-3EC0-4A5A-A3A0-0FDB1F5CF265";
paths = (
{
closed = 1;
nodes = (
"1500 1392 LINE",
"1500 1672 LINE SMOOTH",
"1500 1832 OFFCURVE",
"1600 1868 OFFCURVE",
"1728 1868 CURVE SMOOTH",
"1748 1868 OFFCURVE",
"1784 1868 OFFCURVE",
"1804 1860 CURVE",
"1804 2064 LINE",
"1768 2076 OFFCURVE",
"1712 2080 OFFCURVE",
"1668 2080 CURVE SMOOTH",
"1440 2080 OFFCURVE",
"1264 1936 OFFCURVE",
"1264 1672 CURVE SMOOTH",
"1264 1392 LINE"
);
},
{
closed = 1;
nodes = (
"1500 1536 LINE",
"1264 1536 LINE",
"1264 1292 LINE",
"1244 1292 LINE",
"1192 1372 OFFCURVE",
"1100 1556 OFFCURVE",
"800 1556 CURVE SMOOTH",
"412 1556 OFFCURVE",
"144 1248 OFFCURVE",
"144 764 CURVE SMOOTH",
"144 276 OFFCURVE",
"412 -32 OFFCURVE",
"796 -32 CURVE SMOOTH",
"1092 -32 OFFCURVE",
"1192 152 OFFCURVE",
"1244 236 CURVE",
"1272 236 LINE",
"1272 0 LINE",
"1500 0 LINE"
);
},
{
closed = 1;
nodes = (
"380 1092 OFFCURVE",
"528 1344 OFFCURVE",
"828 1344 CURVE SMOOTH",
"1116 1344 OFFCURVE",
"1268 1112 OFFCURVE",
"1268 768 CURVE SMOOTH",
"1268 420 OFFCURVE",
"1112 180 OFFCURVE",
"828 180 CURVE SMOOTH",
"532 180 OFFCURVE",
"380 440 OFFCURVE",
"380 768 CURVE SMOOTH"
);
}
);
width = 1732;
},
{
anchors = (
{
name = bottom;
position = "{776, 0}";
},
{
name = top;
position = "{640, 2200}";
},
{
name = top0315;
position = "{1768, 2200}";
}
);
layerId = "5C20EF92-B63D-42A8-8878-93C2863E0093";
paths = (
{
closed = 1;
nodes = (
"1508 1432 LINE",
"1508 1568 LINE SMOOTH",
"1508 1724 OFFCURVE",
"1664 1720 OFFCURVE",
"1744 1720 CURVE SMOOTH",
"1780 1720 OFFCURVE",
"1812 1716 OFFCURVE",
"1852 1708 CURVE",
"1852 2056 LINE",
"1804 2064 OFFCURVE",
"1720 2076 OFFCURVE",
"1620 2076 CURVE SMOOTH",
"1400 2076 OFFCURVE",
"1048 2016 OFFCURVE",
"1048 1568 CURVE SMOOTH",
"1048 1432 LINE"
);
},
{
closed = 1;
nodes = (
"1508 1536 LINE",
"1048 1536 LINE",
"1048 1372 LINE",
"1032 1372 LINE",
"980 1488 OFFCURVE",
"848 1556 OFFCURVE",
"688 1556 CURVE SMOOTH",
"380 1556 OFFCURVE",
"96 1304 OFFCURVE",
"96 768 CURVE SMOOTH",
"96 244 OFFCURVE",
"364 -24 OFFCURVE",
"688 -24 CURVE SMOOTH",
"848 -24 OFFCURVE",
"980 40 OFFCURVE",
"1032 156 CURVE",
"1052 156 LINE",
"1052 0 LINE",
"1508 0 LINE"
);
},
{
closed = 1;
nodes = (
"528 1036 OFFCURVE",
"628 1192 OFFCURVE",
"824 1192 CURVE SMOOTH",
"1036 1192 OFFCURVE",
"1100 1004 OFFCURVE",
"1100 768 CURVE SMOOTH",
"1100 536 OFFCURVE",
"1040 340 OFFCURVE",
"824 340 CURVE SMOOTH",
"628 340 OFFCURVE",
"528 500 OFFCURVE",
"528 768 CURVE SMOOTH"
);
}
);
width = 1824;
}
);
leftKerningGroup = c;
unicode = 0257;
userData = {
interface.gridadjust.original = "{'width': 1664, 'leftMargin': 127, 'rightMargin': -14}";
"interface.width-adjustments" = (
-16
);
};
},
{
glyphname = dtopbar;
lastChange = "2018-09-01 23:10:14 +0000";
layers = (
{
layerId = "C698F293-3EC0-4A5A-A3A0-0FDB1F5CF265";
paths = (
{
closed = 1;
nodes = (
"316 2048 LINE",
"316 1828 LINE",
"1500 1828 LINE",
"1500 2048 LINE"
);
},
{
closed = 1;
nodes = (
"1500 2048 LINE",
"1264 2048 LINE",
"1264 1156 LINE",
"1336 748 LINE",
"1272 344 LINE",
"1272 0 LINE",
"1500 0 LINE"
);
},
{
closed = 1;
nodes = (
"1248 1292 LINE",
"1196 1372 OFFCURVE",
"1100 1556 OFFCURVE",
"800 1556 CURVE SMOOTH",
"412 1556 OFFCURVE",
"144 1248 OFFCURVE",
"144 764 CURVE SMOOTH",
"144 276 OFFCURVE",
"412 -32 OFFCURVE",
"796 -32 CURVE SMOOTH",
"1092 -32 OFFCURVE",
"1196 152 OFFCURVE",
"1248 236 CURVE",
"1360 236 LINE",
"1360 1292 LINE"
);
},
{
closed = 1;
nodes = (
"380 1092 OFFCURVE",
"528 1344 OFFCURVE",
"828 1344 CURVE SMOOTH",
"1116 1344 OFFCURVE",
"1268 1112 OFFCURVE",
"1268 768 CURVE SMOOTH",
"1268 420 OFFCURVE",
"1112 180 OFFCURVE",
"828 180 CURVE SMOOTH",
"532 180 OFFCURVE",
"380 440 OFFCURVE",
"380 768 CURVE SMOOTH"
);
}
);
width = 1716;
},
{
layerId = "5C20EF92-B63D-42A8-8878-93C2863E0093";
paths = (
{
closed = 1;
nodes = (
"300 2048 LINE",
"300 1668 LINE",
"1236 1668 LINE",
"1236 2048 LINE {name = hr00;}"
);
},
{
closed = 1;
nodes = (
"1516 2048 LINE",
"1056 2048 LINE",
"1056 1256 LINE",
"1212 732 LINE",
"1060 308 LINE",
"1060 0 LINE",
"1516 0 LINE"
);
},
{
closed = 1;
nodes = (
"1040 1372 LINE",
"988 1488 OFFCURVE",
"856 1556 OFFCURVE",
"696 1556 CURVE SMOOTH",
"388 1556 OFFCURVE",
"104 1304 OFFCURVE",
"104 768 CURVE SMOOTH",
"104 244 OFFCURVE",
"372 -24 OFFCURVE",
"696 -24 CURVE SMOOTH",
"856 -24 OFFCURVE",
"988 40 OFFCURVE",
"1040 156 CURVE",
"1240 156 LINE",
"1240 1372 LINE"
);
},
{
closed = 1;
nodes = (
"536 1036 OFFCURVE",
"636 1192 OFFCURVE",
"832 1192 CURVE SMOOTH",
"1044 1192 OFFCURVE",
"1108 1004 OFFCURVE",
"1108 768 CURVE SMOOTH",
"1108 536 OFFCURVE",
"1048 340 OFFCURVE",
"832 340 CURVE SMOOTH",
"636 340 OFFCURVE",
"536 500 OFFCURVE",
"536 768 CURVE SMOOTH"
);
}
);
width = 1568;
}
);
unicode = 018C;
userData = {
interface.gridadjust.original = "{'width': 1594, 'leftMargin': 256, 'rightMargin': 58}";
"interface.width-adjustments" = (
-16
);
};
},
{
glyphname = uni0221;
lastChange = "2018-09-01 23:10:14 +0000";
layers = (
{
layerId = "C698F293-3EC0-4A5A-A3A0-0FDB1F5CF265";
paths = (
{
closed = 1;
nodes = (
"1264 -144 LINE",
"1264 -348 OFFCURVE",
"1380 -576 OFFCURVE",
"1688 -576 CURVE SMOOTH",
"1936 -576 OFFCURVE",
"2092 -428 OFFCURVE",
"2092 -212 CURVE SMOOTH",
"2092 8 OFFCURVE",
"1928 152 OFFCURVE",
"1708 152 CURVE SMOOTH",
"1556 152 OFFCURVE",
"1392 84 OFFCURVE",
"1264 -48 CURVE SMOOTH",
"952 -368 LINE",
"1104 -524 LINE",
"1384 -232 LINE SMOOTH",
"1468 -144 OFFCURVE",
"1548 -60 OFFCURVE",
"1676 -60 CURVE SMOOTH",
"1780 -60 OFFCURVE",
"1848 -116 OFFCURVE",
"1848 -212 CURVE SMOOTH",
"1848 -304 OFFCURVE",
"1784 -372 OFFCURVE",
"1688 -372 CURVE SMOOTH",
"1588 -372 OFFCURVE",
"1500 -296 OFFCURVE",
"1500 -204 CURVE SMOOTH",
"1500 -120 OFFCURVE",
"1500 336 OFFCURVE",
"1500 336 CURVE",
"1264 336 LINE"
);
},
{
closed = 1;
nodes = (
"1500 2048 LINE",
"1264 2048 LINE",
"1264 1156 LINE",
"1336 748 LINE",
"1272 344 LINE",
"1272 0 LINE",
"1500 0 LINE"
);
},
{
closed = 1;
nodes = (
"1248 1292 LINE",
"1196 1372 OFFCURVE",
"1100 1556 OFFCURVE",
"800 1556 CURVE SMOOTH",
"412 1556 OFFCURVE",
"144 1248 OFFCURVE",
"144 764 CURVE SMOOTH",
"144 276 OFFCURVE",
"412 -32 OFFCURVE",
"796 -32 CURVE SMOOTH",
"1092 -32 OFFCURVE",
"1196 152 OFFCURVE",
"1248 236 CURVE",
"1360 236 LINE",
"1360 1292 LINE"
);
},
{
closed = 1;
nodes = (
"380 1092 OFFCURVE",
"528 1344 OFFCURVE",
"828 1344 CURVE SMOOTH",
"1116 1344 OFFCURVE",
"1268 1112 OFFCURVE",
"1268 768 CURVE SMOOTH",
"1268 420 OFFCURVE",
"1112 180 OFFCURVE",
"828 180 CURVE SMOOTH",
"532 180 OFFCURVE",
"380 440 OFFCURVE",
"380 768 CURVE SMOOTH"
);
}
);
width = 2024;
},
{
layerId = "5C20EF92-B63D-42A8-8878-93C2863E0093";
paths = (
{
closed = 1;
nodes = (
"1092 -52 LINE",
"1092 -352 OFFCURVE",
"1216 -600 OFFCURVE",
"1652 -600 CURVE SMOOTH",
"1996 -600 OFFCURVE",
"2164 -440 OFFCURVE",
"2164 -208 CURVE SMOOTH",
"2164 24 OFFCURVE",
"2000 172 OFFCURVE",
"1688 172 CURVE SMOOTH",
"1448 172 OFFCURVE",
"1280 120 OFFCURVE",
"1116 16 CURVE",
"720 -300 LINE",
"908 -572 LINE",
"1180 -348 LINE",
"1368 -200 OFFCURVE",
"1496 -124 OFFCURVE",
"1644 -124 CURVE SMOOTH",
"1724 -124 OFFCURVE",
"1780 -156 OFFCURVE",
"1780 -220 CURVE SMOOTH",
"1780 -296 OFFCURVE",
"1720 -324 OFFCURVE",
"1656 -324 CURVE SMOOTH",
"1568 -324 OFFCURVE",
"1536 -264 OFFCURVE",
"1536 -168 CURVE SMOOTH",
"1536 -128 OFFCURVE",
"1536 344 OFFCURVE",
"1536 344 CURVE",
"1092 344 LINE"
);
},
{
closed = 1;
nodes = (
"1584 2048 LINE",
"1124 2048 LINE",
"1124 1256 LINE",
"1280 732 LINE",
"1128 308 LINE",
"1128 0 LINE",
"1584 0 LINE"
);
},
{
closed = 1;
nodes = (
"1108 1372 LINE",
"1056 1488 OFFCURVE",
"924 1556 OFFCURVE",
"764 1556 CURVE SMOOTH",
"456 1556 OFFCURVE",
"172 1304 OFFCURVE",
"172 768 CURVE SMOOTH",
"172 244 OFFCURVE",
"440 -24 OFFCURVE",
"764 -24 CURVE SMOOTH",
"924 -24 OFFCURVE",
"1056 40 OFFCURVE",
"1108 156 CURVE",
"1308 156 LINE",
"1308 1372 LINE"
);
},
{
closed = 1;
nodes = (
"604 1036 OFFCURVE",
"704 1192 OFFCURVE",
"900 1192 CURVE SMOOTH",
"1112 1192 OFFCURVE",
"1176 1004 OFFCURVE",
"1176 768 CURVE SMOOTH",
"1176 536 OFFCURVE",
"1116 340 OFFCURVE",
"900 340 CURVE SMOOTH",
"704 340 OFFCURVE",
"604 500 OFFCURVE",
"604 768 CURVE SMOOTH"
);
}
);
width = 2336;
}
);
leftKerningGroup = c;
unicode = 0221;
userData = {
interface.gridadjust.original = "{'width': 2013.0, 'leftMargin': 256, 'rightMargin': 41.0}";
"interface.width-adjustments" = (
-16
);
};
},
{
glyphname = dyogh;
lastChange = "2018-09-01 23:10:14 +0000";
layers = (
{
anchors = (
{
name = bottom;
position = "{1780, -616}";
},
{
name = top;
position = "{1780, 2200}";
},
{
name = top0315;
position = "{2608, 2200}";
}
);
layerId = "C698F293-3EC0-4A5A-A3A0-0FDB1F5CF265";
paths = (
{
closed = 1;
nodes = (
"1500 1316 LINE",
"2216 1316 LINE",
"1696 600 LINE",
"1696 384 LINE",
"1896 384 LINE SMOOTH",
"2196 384 OFFCURVE",
"2356 184 OFFCURVE",
"2356 -16 CURVE SMOOTH",
"2356 -220 OFFCURVE",
"2188 -408 OFFCURVE",
"1928 -408 CURVE SMOOTH",
"1704 -408 OFFCURVE",
"1536 -280 OFFCURVE",
"1508 -128 CURVE",
"1280 -128 LINE",
"1332 -472 OFFCURVE",
"1612 -600 OFFCURVE",
"1928 -600 CURVE SMOOTH",
"2324 -600 OFFCURVE",
"2588 -372 OFFCURVE",
"2588 -12 CURVE SMOOTH",
"2588 320 OFFCURVE",
"2372 568 OFFCURVE",
"1968 592 CURVE",
"2540 1368 LINE",
"2536 1536 LINE",
"1500 1536 LINE",
"1500 2048 LINE",
"1264 2048 LINE",
"1264 1292 LINE",
"1248 1292 LINE",
"1196 1372 OFFCURVE",
"1100 1556 OFFCURVE",
"800 1556 CURVE SMOOTH",
"412 1556 OFFCURVE",
"144 1248 OFFCURVE",
"144 764 CURVE SMOOTH",
"144 276 OFFCURVE",
"412 -32 OFFCURVE",
"796 -32 CURVE SMOOTH",
"1092 -32 OFFCURVE",
"1196 152 OFFCURVE",
"1248 236 CURVE",
"1272 236 LINE",
"1272 0 LINE",
"1500 0 LINE"
);
},
{
closed = 1;
nodes = (
"380 1092 OFFCURVE",
"528 1344 OFFCURVE",
"828 1344 CURVE SMOOTH",
"1116 1344 OFFCURVE",
"1268 1112 OFFCURVE",
"1268 768 CURVE SMOOTH",
"1268 420 OFFCURVE",
"1112 180 OFFCURVE",
"828 180 CURVE SMOOTH",
"532 180 OFFCURVE",
"380 440 OFFCURVE",
"380 768 CURVE SMOOTH"
);
}
);
width = 2692;
},
{
anchors = (
{
name = bottom;
position = "{1812, -616}";
},
{
name = top;
position = "{1812, 2200}";
},
{
name = top0315;
position = "{2636, 2200}";
}
);
layerId = "5C20EF92-B63D-42A8-8878-93C2863E0093";
paths = (
{
closed = 1;
nodes = (
"1508 1180 LINE",
"2088 1180 LINE",
"1636 632 LINE",
"1636 364 LINE",
"1816 364 LINE SMOOTH",
"2052 364 OFFCURVE",
"2180 260 OFFCURVE",
"2180 40 CURVE SMOOTH",
"2180 -136 OFFCURVE",
"2068 -244 OFFCURVE",
"1864 -244 CURVE SMOOTH",
"1660 -244 OFFCURVE",
"1568 -176 OFFCURVE",
"1516 -84 CURVE",
"1072 -84 LINE",
"1172 -504 OFFCURVE",
"1524 -600 OFFCURVE",
"1876 -600 CURVE SMOOTH",
"2312 -600 OFFCURVE",
"2624 -384 OFFCURVE",
"2624 8 CURVE SMOOTH",
"2624 352 OFFCURVE",
"2432 572 OFFCURVE",
"2096 632 CURVE",
"2592 1240 LINE",
"2592 1536 LINE",
"1508 1536 LINE",
"1508 2048 LINE",
"1048 2048 LINE",
"1048 1372 LINE",
"1032 1372 LINE",
"980 1488 OFFCURVE",
"848 1556 OFFCURVE",
"688 1556 CURVE SMOOTH",
"380 1556 OFFCURVE",
"96 1304 OFFCURVE",
"96 768 CURVE SMOOTH",
"96 244 OFFCURVE",
"364 -24 OFFCURVE",
"688 -24 CURVE SMOOTH",
"848 -24 OFFCURVE",
"980 40 OFFCURVE",
"1032 156 CURVE",
"1052 156 LINE",
"1052 0 LINE",
"1508 0 LINE"
);
},
{
closed = 1;
nodes = (
"528 1036 OFFCURVE",
"628 1192 OFFCURVE",
"824 1192 CURVE SMOOTH",
"1036 1192 OFFCURVE",
"1100 1004 OFFCURVE",
"1100 768 CURVE SMOOTH",
"1100 536 OFFCURVE",
"1040 340 OFFCURVE",
"824 340 CURVE SMOOTH",
"628 340 OFFCURVE",
"528 500 OFFCURVE",
"528 768 CURVE SMOOTH"
);
}
);
width = 2720;
}
);
leftKerningGroup = c;
unicode = 02A4;
userData = {
interface.gridadjust.original = "{'width': 2593, 'leftMargin': 256, 'rightMargin': 143}";
"interface.width-adjustments" = (
-16
);
};
},
{
color = (219,235,247,1);
glyphname = e;
lastChange = "2018-09-01 23:10:14 +0000";
layers = (
{
anchors = (
{
name = bottom;
position = "{840, 0}";
},
{
name = bottom_dd;
position = "{1496, -560}";
},
{
name = ogonek;
position = "{1260, 92}";
},
{
name = rhotichook;
position = "{1204, 788}";
},
{
name = top;
position = "{836, 1792}";
},
{
name = top0315;
position = "{1424, 1792}";
},
{
name = top_dd;
position = "{1496, 2176}";
}
);
guideLines = (
{
angle = 90;
position = "{832, 1764}";
}
);
layerId = "C698F293-3EC0-4A5A-A3A0-0FDB1F5CF265";
paths = (
{
closed = 1;
nodes = (
"1172 -32 OFFCURVE",
"1400 124 OFFCURVE",
"1472 356 CURVE",
"1244 420 LINE",
"1184 260 OFFCURVE",
"1048 180 OFFCURVE",
"860 180 CURVE SMOOTH",
"560 180 OFFCURVE",
"380 384 OFFCURVE",
"380 768 CURVE",
"380 1132 OFFCURVE",
"568 1344 OFFCURVE",
"836 1344 CURVE",
"1092 1344 OFFCURVE",
"1256 1152 OFFCURVE",
"1256 892 CURVE",
"312 892 LINE",
"312 688 LINE",
"1496 688 LINE",
"1496 788 LINE SMOOTH",
"1496 1360 OFFCURVE",
"1156 1556 OFFCURVE",
"836 1556 CURVE SMOOTH",
"420 1556 OFFCURVE",
"144 1228 OFFCURVE",
"144 756 CURVE",
"144 284 OFFCURVE",
"416 -32 OFFCURVE",
"860 -32 CURVE"
);
}
);
width = 1644;
},
{
anchors = (
{
name = bottom;
position = "{812, 0}";
},
{
name = bottom_dd;
position = "{1536, -560}";
},
{
name = ogonek;
position = "{1204, 48}";
},
{
name = rhotichook;
position = "{1272, 900}";
},
{
name = top;
position = "{804, 1776}";
},
{
name = top0315;
position = "{1536, 1776}";
},
{
name = top_dd;
position = "{1536, 2200}";
}
);
guideLines = (
{
angle = 90;
position = "{1054.625, 0}";
},
{
position = "{196, 724}";
},
{
angle = 90;
position = "{788, 1004}";
}
);
layerId = "5C20EF92-B63D-42A8-8878-93C2863E0093";
paths = (
{
closed = 1;
nodes = (
"1292 -28 OFFCURVE",
"1480 232 OFFCURVE",
"1528 432 CURVE",
"1124 540 LINE",
"1092 448 OFFCURVE",
"1032 340 OFFCURVE",
"848 340 CURVE SMOOTH",
"620 340 OFFCURVE",
"528 504 OFFCURVE",
"528 744 CURVE",
"528 1020 OFFCURVE",
"632 1192 OFFCURVE",
"836 1192 CURVE SMOOTH",
"1016 1192 OFFCURVE",
"1112 1080 OFFCURVE",
"1112 936 CURVE",
"268 936 LINE",
"268 640 LINE",
"1540 640 LINE",
"1540 832 LINE SMOOTH",
"1540 1288 OFFCURVE",
"1264 1556 OFFCURVE",
"840 1556 CURVE SMOOTH",
"360 1556 OFFCURVE",
"96 1212 OFFCURVE",
"96 744 CURVE",
"96 260 OFFCURVE",
"384 -28 OFFCURVE",
"852 -28 CURVE"
);
}
);
width = 1636;
}
);
leftKerningGroup = c;
rightKerningGroup = ae;
unicode = 0065;
userData = {
com.typemytype.robofont.guideline.magnetic.5XWlAkuiPv = 5;
"interface.width-adjustments" = (
-16
);
};
},
{
glyphname = uni0247;
lastChange = "2018-09-01 23:10:14 +0000";
layers = (
{
layerId = "C698F293-3EC0-4A5A-A3A0-0FDB1F5CF265";
paths = (
{
closed = 1;
nodes = (
"1236 2048 LINE",
"184 -576 LINE",
"376 -576 LINE",
"1424 2048 LINE"
);
},
{
closed = 1;
nodes = (
"1172 -32 OFFCURVE",
"1400 124 OFFCURVE",
"1472 356 CURVE",
"1244 420 LINE",
"1184 260 OFFCURVE",
"1048 180 OFFCURVE",
"860 180 CURVE SMOOTH",
"560 180 OFFCURVE",
"380 384 OFFCURVE",
"380 768 CURVE",
"380 1132 OFFCURVE",
"568 1344 OFFCURVE",
"836 1344 CURVE",
"1092 1344 OFFCURVE",
"1256 1152 OFFCURVE",
"1256 892 CURVE",
"312 892 LINE",
"312 688 LINE",
"1496 688 LINE",
"1496 788 LINE SMOOTH",
"1496 1360 OFFCURVE",
"1156 1556 OFFCURVE",
"836 1556 CURVE SMOOTH",
"420 1556 OFFCURVE",
"144 1228 OFFCURVE",
"144 756 CURVE",
"144 284 OFFCURVE",
"416 -32 OFFCURVE",
"860 -32 CURVE"
);
}
);
width = 1640;
},
{
layerId = "5C20EF92-B63D-42A8-8878-93C2863E0093";
paths = (
{
closed = 1;
nodes = (
"1076 2048 LINE",
"248 -576 LINE",
"500 -576 LINE",
"1328 2048 LINE"
);
},
{
closed = 1;
nodes = (
"1292 -28 OFFCURVE",
"1480 232 OFFCURVE",
"1528 432 CURVE",
"1124 540 LINE",
"1092 448 OFFCURVE",
"1032 340 OFFCURVE",
"848 340 CURVE SMOOTH",
"620 340 OFFCURVE",
"528 504 OFFCURVE",
"528 744 CURVE",
"528 1020 OFFCURVE",
"632 1192 OFFCURVE",
"836 1192 CURVE SMOOTH",
"1016 1192 OFFCURVE",
"1112 1080 OFFCURVE",
"1112 936 CURVE",
"268 936 LINE",
"268 640 LINE",
"1540 640 LINE",
"1540 832 LINE SMOOTH",
"1540 1288 OFFCURVE",
"1264 1556 OFFCURVE",
"840 1556 CURVE SMOOTH",
"360 1556 OFFCURVE",
"96 1212 OFFCURVE",
"96 744 CURVE",
"96 260 OFFCURVE",
"384 -28 OFFCURVE",
"852 -28 CURVE"
);
}
);
width = 1568;
}
);
leftKerningGroup = c;
rightKerningGroup = ae;
unicode = 0247;
userData = {
interface.gridadjust.original = "{'width': 1502, 'leftMargin': 110, 'rightMargin': 102}";
"interface.width-adjustments" = (
-16
);
};
},
{
color = (219,235,247,1);
glyphname = f;
lastChange = "2018-09-01 23:10:14 +0000";
layers = (
{
anchors = (
{
name = bottom;
position = "{440, 0}";
},
{
name = bottom_dd;
position = "{980, -560}";
},
{
name = top;
position = "{544, 2304}";
},
{
name = top0315;
position = "{924, 2116}";
},
{
name = top_dd;
position = "{764, 1484}";
}
);
layerId = "C698F293-3EC0-4A5A-A3A0-0FDB1F5CF265";
paths = (
{
closed = 1;
nodes = (
"72 1536 LINE",
"72 1316 LINE",
"900 1316 LINE",
"900 1536 LINE"
);
},
{
closed = 1;
nodes = (
"556 0 LINE",
"556 1624 LINE",
"556 1776 OFFCURVE",
"620 1856 OFFCURVE",
"776 1856 CURVE SMOOTH",
"844 1856 OFFCURVE",
"884 1840 OFFCURVE",
"908 1832 CURVE",
"976 2036 LINE",
"940 2052 OFFCURVE",
"868 2076 OFFCURVE",
"752 2076 CURVE SMOOTH",
"532 2076 OFFCURVE",
"320 1944 OFFCURVE",
"320 1680 CURVE",
"320 0 LINE"
);
}
);
width = 1008;
},
{
anchors = (
{
name = bottom;
position = "{492, 0}";
},
{
name = bottom_dd;
position = "{1048, -560}";
},
{
name = top;
position = "{644, 2284}";
},
{
name = top0315;
position = "{1048, 2284}";
},
{
name = top_dd;
position = "{1048, 2200}";
}
);
guideLines = (
{
position = "{0, 1229.25}";
},
{
position = "{0, 257.125}";
}
);
layerId = "5C20EF92-B63D-42A8-8878-93C2863E0093";
paths = (
{
closed = 1;
nodes = (
"76 1536 LINE",
"76 1216 LINE",
"1008 1216 LINE",
"1008 1536 LINE"
);
},
{
closed = 1;
nodes = (
"724 0 LINE {name = hr00;}",
"724 1560 LINE SMOOTH",
"724 1664 OFFCURVE",
"768 1712 OFFCURVE",
"872 1712 CURVE SMOOTH",
"916 1712 OFFCURVE",
"964 1704 OFFCURVE",
"1004 1692 CURVE",
"1080 2032 LINE",
"1024 2048 OFFCURVE",
"908 2076 OFFCURVE",
"768 2076 CURVE SMOOTH",
"472 2076 OFFCURVE",
"264 1908 OFFCURVE",
"264 1560 CURVE SMOOTH",
"264 0 LINE"
);
}
);
width = 1104;
}
);
leftKerningGroup = f;
rightKerningGroup = f;
unicode = 0066;
userData = {
"interface.width-adjustments" = (
-16
);
};
},
{
glyphname = slongstroke;
lastChange = "2018-09-01 23:10:14 +0000";
layers = (
{
layerId = "C698F293-3EC0-4A5A-A3A0-0FDB1F5CF265";
paths = (
{
closed = 1;
nodes = (
"100 1032 LINE",
"100 796 LINE",
"776 1052 LINE",
"776 1288 LINE"
);
},
{
closed = 1;
nodes = (
"556 1640 LINE SMOOTH",
"556 1820 OFFCURVE",
"720 1860 OFFCURVE",
"796 1860 CURVE SMOOTH",
"868 1860 OFFCURVE",
"872 1856 OFFCURVE",
"904 1852 CURVE",
"904 2060 LINE",
"880 2068 OFFCURVE",
"836 2076 OFFCURVE",
"780 2076 CURVE SMOOTH",
"528 2076 OFFCURVE",
"320 1920 OFFCURVE",
"320 1640 CURVE SMOOTH",
"320 0 LINE",
"556 0 LINE"
);
}
);
width = 1008;
},
{
layerId = "5C20EF92-B63D-42A8-8878-93C2863E0093";
paths = (
{
closed = 1;
nodes = (
"32 896 LINE",
"32 608 LINE",
"928 892 LINE",
"928 1176 LINE {name = hr00;}"
);
},
{
closed = 1;
nodes = (
"692 1608 LINE SMOOTH",
"692 1724 OFFCURVE",
"772 1784 OFFCURVE",
"908 1784 CURVE SMOOTH",
"956 1784 OFFCURVE",
"992 1780 OFFCURVE",
"1024 1772 CURVE",
"1024 2112 LINE",
"960 2128 OFFCURVE",
"888 2140 OFFCURVE",
"812 2140 CURVE SMOOTH",
"468 2140 OFFCURVE",
"248 1956 OFFCURVE",
"248 1608 CURVE SMOOTH",
"248 0 LINE",
"692 0 LINE"
);
}
);
width = 1056;
}
);
leftKerningGroup = f;
rightKerningGroup = f;
unicode = 1E9C;
userData = {
interface.gridadjust.original = "{'width': 1031, 'leftMargin': 125, 'rightMargin': 41}";
"interface.width-adjustments" = (
-16
);
};
},
{
glyphname = slongdotaccent;
lastChange = "2018-09-01 23:10:14 +0000";
layers = (
{
layerId = "C698F293-3EC0-4A5A-A3A0-0FDB1F5CF265";
paths = (
{
closed = 1;
nodes = (
"452 1640 LINE SMOOTH",
"452 1820 OFFCURVE",
"616 1860 OFFCURVE",
"692 1860 CURVE SMOOTH",
"764 1860 OFFCURVE",
"768 1856 OFFCURVE",
"800 1852 CURVE",
"800 2060 LINE",
"776 2068 OFFCURVE",
"732 2076 OFFCURVE",
"676 2076 CURVE SMOOTH",
"424 2076 OFFCURVE",
"216 1920 OFFCURVE",
"216 1640 CURVE SMOOTH",
"216 0 LINE",
"452 0 LINE"
);
},
{
closed = 1;
nodes = (
"576 2360 OFFCURVE",
"640 2432 OFFCURVE",
"640 2520 CURVE",
"640 2600 OFFCURVE",
"576 2680 OFFCURVE",
"472 2680 CURVE",
"368 2680 OFFCURVE",
"304 2600 OFFCURVE",
"304 2520 CURVE SMOOTH",
"304 2432 OFFCURVE",
"368 2360 OFFCURVE",
"472 2360 CURVE"
);
}
);
width = 824;
},
{
layerId = "5C20EF92-B63D-42A8-8878-93C2863E0093";
paths = (
{
closed = 1;
nodes = (
"584 1608 LINE SMOOTH",
"584 1724 OFFCURVE",
"660 1784 OFFCURVE",
"800 1784 CURVE SMOOTH",
"848 1784 OFFCURVE",
"884 1780 OFFCURVE",
"916 1772 CURVE",
"916 2112 LINE",
"852 2128 OFFCURVE",
"780 2140 OFFCURVE",
"704 2140 CURVE SMOOTH",
"356 2140 OFFCURVE",
"140 1956 OFFCURVE",
"140 1608 CURVE SMOOTH",
"140 0 LINE",
"584 0 LINE"
);
},
{
closed = 1;
nodes = (
"748 2292 OFFCURVE",
"856 2392 OFFCURVE",
"856 2508 CURVE SMOOTH",
"856 2624 OFFCURVE",
"748 2724 OFFCURVE",
"612 2724 CURVE SMOOTH",
"476 2724 OFFCURVE",
"364 2624 OFFCURVE",
"364 2508 CURVE SMOOTH",
"364 2392 OFFCURVE",
"476 2292 OFFCURVE",
"612 2292 CURVE SMOOTH"
);
}
);
width = 1056;
}
);
unicode = 1E9B;
userData = {
interface.gridadjust.original = "{'width': 989, 'leftMargin': 315, 'rightMargin': -1}";
"interface.width-adjustments" = (
-16
);
};
},
{
color = (219,235,247,1);
glyphname = g;
lastChange = "2018-09-01 23:10:14 +0000";
layers = (
{
anchors = (
{
name = bottom;
position = "{828, -588}";
},
{
name = bottom_dd;
position = "{1644, -560}";
},
{
name = top;
position = "{888, 1792}";
},
{
name = top0315;
position = "{1644, 1776}";
},
{
name = top_dd;
position = "{1644, 2200}";
}
);
layerId = "C698F293-3EC0-4A5A-A3A0-0FDB1F5CF265";
paths = (
{
closed = 1;
nodes = (
"1272 1200 LINE",
"1348 768 LINE",
"1264 360 LINE",
"1264 280 LINE",
"1264 12 LINE",
"1268 -244 OFFCURVE",
"1064 -364 OFFCURVE",
"828 -364 CURVE SMOOTH",
"564 -364 OFFCURVE",
"456 -212 OFFCURVE",
"396 -136 CURVE",
"208 -268 LINE",
"304 -432 OFFCURVE",
"500 -576 OFFCURVE",
"828 -576 CURVE SMOOTH",
"1184 -576 OFFCURVE",
"1500 -408 OFFCURVE",
"1500 -12 CURVE SMOOTH",
"1500 1536 LINE",
"1272 1536 LINE"
);
},
{
closed = 1;
nodes = (
"1248 1292 LINE",
"1196 1372 OFFCURVE",
"1100 1556 OFFCURVE",
"800 1556 CURVE SMOOTH",
"412 1556 OFFCURVE",
"144 1248 OFFCURVE",
"144 776 CURVE SMOOTH",
"144 296 OFFCURVE",
"424 24 OFFCURVE",
"796 24 CURVE SMOOTH",
"1096 24 OFFCURVE",
"1192 200 OFFCURVE",
"1244 284 CURVE",
"1360 284 LINE",
"1360 1292 LINE"
);
},
{
closed = 1;
nodes = (
"380 1092 OFFCURVE",
"528 1344 OFFCURVE",
"828 1344 CURVE SMOOTH",
"1116 1344 OFFCURVE",
"1268 1112 OFFCURVE",
"1268 780 CURVE SMOOTH",
"1268 440 OFFCURVE",
"1112 236 OFFCURVE",
"828 236 CURVE SMOOTH",
"532 236 OFFCURVE",
"380 460 OFFCURVE",
"380 780 CURVE SMOOTH"
);
}
);
width = 1716;
},
{
anchors = (
{
name = bottom;
position = "{764, -576}";
},
{
name = bottom_dd;
position = "{1628, -560}";
},
{
name = top;
position = "{776, 1776}";
},
{
name = top0315;
position = "{1628, 1776}";
},
{
name = top_dd;
position = "{1628, 2200}";
}
);
layerId = "5C20EF92-B63D-42A8-8878-93C2863E0093";
paths = (
{
closed = 1;
nodes = (
"1052 1240 LINE",
"1232 740 LINE",
"1060 264 LINE",
"1060 148 LINE",
"1060 92 LINE",
"1060 -132 OFFCURVE",
"940 -216 OFFCURVE",
"748 -216 CURVE SMOOTH",
"588 -216 OFFCURVE",
"460 -156 OFFCURVE",
"364 -84 CURVE",
"172 -396 LINE",
"256 -480 OFFCURVE",
"488 -588 OFFCURVE",
"764 -588 CURVE SMOOTH",
"1208 -588 OFFCURVE",
"1508 -356 OFFCURVE",
"1508 68 CURVE SMOOTH",
"1508 1528 LINE",
"1052 1528 LINE"
);
},
{
closed = 1;
nodes = (
"1032 1372 LINE",
"980 1488 OFFCURVE",
"848 1556 OFFCURVE",
"688 1556 CURVE SMOOTH",
"380 1556 OFFCURVE",
"96 1304 OFFCURVE",
"96 780 CURVE SMOOTH",
"96 256 OFFCURVE",
"380 32 OFFCURVE",
"688 32 CURVE SMOOTH",
"872 32 OFFCURVE",
"996 112 OFFCURVE",
"1036 192 CURVE",
"1232 192 LINE",
"1232 1372 LINE"
);
},
{
closed = 1;
nodes = (
"528 1032 OFFCURVE",
"628 1192 OFFCURVE",
"824 1192 CURVE SMOOTH",
"1028 1192 OFFCURVE",
"1100 1004 OFFCURVE",
"1100 780 CURVE SMOOTH",
"1100 548 OFFCURVE",
"1024 388 OFFCURVE",
"824 388 CURVE SMOOTH",
"644 388 OFFCURVE",
"528 512 OFFCURVE",
"528 780 CURVE SMOOTH"
);
}
);
width = 1652;
}
);
leftKerningGroup = c;
rightKerningGroup = g;
unicode = 0067;
userData = {
"interface.width-adjustments" = (
-16
);
};
},
{
glyphname = ghook;
lastChange = "2018-09-01 23:10:14 +0000";
layers = (
{
anchors = (
{
name = bottom;
position = "{748, -616}";
},
{
name = top;
position = "{748, 1776}";
},
{
name = top0315;
position = "{1652, 1776}";
}
);
layerId = "C698F293-3EC0-4A5A-A3A0-0FDB1F5CF265";
paths = (
{
closed = 1;
nodes = (
"1500 1664 LINE SMOOTH",
"1500 1824 OFFCURVE",
"1596 1872 OFFCURVE",
"1724 1872 CURVE SMOOTH",
"1752 1872 OFFCURVE",
"1780 1868 OFFCURVE",
"1800 1864 CURVE",
"1800 2064 LINE",
"1764 2076 OFFCURVE",
"1712 2076 OFFCURVE",
"1664 2076 CURVE SMOOTH",
"1440 2076 OFFCURVE",
"1272 1928 OFFCURVE",
"1272 1664 CURVE SMOOTH",
"1272 1464 LINE",
"1500 1464 LINE"
);
},
{
closed = 1;
nodes = (
"1272 1200 LINE",
"1348 768 LINE",
"1264 360 LINE",
"1264 280 LINE",
"1264 12 LINE",
"1268 -244 OFFCURVE",
"1064 -364 OFFCURVE",
"828 -364 CURVE SMOOTH",
"564 -364 OFFCURVE",
"456 -212 OFFCURVE",
"396 -136 CURVE",
"208 -268 LINE",
"304 -432 OFFCURVE",
"500 -576 OFFCURVE",
"828 -576 CURVE SMOOTH",
"1184 -576 OFFCURVE",
"1500 -408 OFFCURVE",
"1500 -12 CURVE SMOOTH",
"1500 1536 LINE",
"1272 1536 LINE"
);
},
{
closed = 1;
nodes = (
"1248 1292 LINE",
"1196 1372 OFFCURVE",
"1100 1556 OFFCURVE",
"800 1556 CURVE SMOOTH",
"412 1556 OFFCURVE",
"144 1248 OFFCURVE",
"144 776 CURVE SMOOTH",
"144 296 OFFCURVE",
"424 24 OFFCURVE",
"796 24 CURVE SMOOTH",
"1096 24 OFFCURVE",
"1192 200 OFFCURVE",
"1244 284 CURVE",
"1360 284 LINE",
"1360 1292 LINE"
);
},
{
closed = 1;
nodes = (
"380 1092 OFFCURVE",
"528 1344 OFFCURVE",
"828 1344 CURVE SMOOTH",
"1116 1344 OFFCURVE",
"1268 1112 OFFCURVE",
"1268 780 CURVE SMOOTH",
"1268 440 OFFCURVE",
"1112 236 OFFCURVE",
"828 236 CURVE SMOOTH",
"532 236 OFFCURVE",
"380 460 OFFCURVE",
"380 780 CURVE SMOOTH"
);
}
);
width = 1728;
},
{
anchors = (
{
name = bottom;
position = "{852, -616}";
},
{
name = top;
position = "{852, 1776}";
},
{
name = top0315;
position = "{1912, 1776}";
}
);
layerId = "5C20EF92-B63D-42A8-8878-93C2863E0093";
paths = (
{
closed = 1;
nodes = (
"1508 1580 LINE SMOOTH",
"1508 1692 OFFCURVE",
"1624 1720 OFFCURVE",
"1728 1720 CURVE SMOOTH",
"1768 1720 OFFCURVE",
"1804 1716 OFFCURVE",
"1836 1712 CURVE",
"1836 2060 LINE",
"1780 2068 OFFCURVE",
"1704 2076 OFFCURVE",
"1604 2076 CURVE SMOOTH",
"1364 2076 OFFCURVE",
"1052 2016 OFFCURVE",
"1052 1580 CURVE SMOOTH",
"1052 1444 LINE",
"1508 1444 LINE"
);
},
{
closed = 1;
nodes = (
"1052 1240 LINE",
"1232 740 LINE",
"1060 264 LINE",
"1060 148 LINE",
"1060 92 LINE",
"1060 -132 OFFCURVE",
"940 -216 OFFCURVE",
"748 -216 CURVE SMOOTH",
"588 -216 OFFCURVE",
"460 -156 OFFCURVE",
"364 -84 CURVE",
"172 -396 LINE",
"256 -480 OFFCURVE",
"488 -588 OFFCURVE",
"764 -588 CURVE SMOOTH",
"1208 -588 OFFCURVE",
"1508 -356 OFFCURVE",
"1508 68 CURVE SMOOTH",
"1508 1528 LINE",
"1052 1528 LINE"
);
},
{
closed = 1;
nodes = (
"1032 1372 LINE",
"980 1488 OFFCURVE",
"848 1556 OFFCURVE",
"688 1556 CURVE SMOOTH",
"380 1556 OFFCURVE",
"96 1304 OFFCURVE",
"96 780 CURVE SMOOTH",
"96 256 OFFCURVE",
"380 32 OFFCURVE",
"688 32 CURVE SMOOTH",
"872 32 OFFCURVE",
"996 112 OFFCURVE",
"1036 192 CURVE",
"1232 192 LINE",
"1232 1372 LINE"
);
},
{
closed = 1;
nodes = (
"528 1032 OFFCURVE",
"628 1192 OFFCURVE",
"824 1192 CURVE SMOOTH",
"1028 1192 OFFCURVE",
"1100 1004 OFFCURVE",
"1100 780 CURVE SMOOTH",
"1100 548 OFFCURVE",
"1024 388 OFFCURVE",
"824 388 CURVE SMOOTH",
"644 388 OFFCURVE",
"528 512 OFFCURVE",
"528 780 CURVE SMOOTH"
);
}
);
width = 1788;
}
);
unicode = 0260;
userData = {
interface.gridadjust.original = "{'width': 1667, 'leftMargin': 129, 'rightMargin': -13}";
"interface.width-adjustments" = (
-16
);
};
},
{
color = (219,235,247,1);
glyphname = h;
lastChange = "2018-09-04 16:24:36 +0000";
layers = (
{
anchors = (
{
name = bottom;
position = "{820, 0}";
},
{
name = bottom_dd;
position = "{1528, -560}";
},
{
name = cross;
position = "{364, 1796}";
},
{
name = right;
position = "{1348, 0}";
},
{
name = top;
position = "{884, 2304}";
},
{
name = top0315;
position = "{1528, 2216}";
},
{
name = top_dd;
position = "{1528, 2200}";
}
);
layerId = "C698F293-3EC0-4A5A-A3A0-0FDB1F5CF265";
paths = (
{
closed = 1;
nodes = (
"452 1216 OFFCURVE",
"660 1328 OFFCURVE",
"848 1328 CURVE SMOOTH",
"1052 1328 OFFCURVE",
"1184 1200 OFFCURVE",
"1184 976 CURVE SMOOTH",
"1184 0 LINE",
"1420 0 LINE",
"1420 976 LINE SMOOTH",
"1420 1356 OFFCURVE",
"1212 1556 OFFCURVE",
"924 1556 CURVE SMOOTH",
"692 1556 OFFCURVE",
"544 1436 OFFCURVE",
"468 1320 CURVE",
"452 1320 LINE",
"452 2048 LINE",
"216 2048 LINE",
"216 0 LINE",
"452 0 LINE",
"452 928 LINE SMOOTH"
);
}
);
width = 1636;
},
{
anchors = (
{
name = bottom;
position = "{812, 0}";
},
{
name = bottom_dd;
position = "{1600, -560}";
},
{
name = cross;
position = "{420, 1792}";
},
{
name = right;
position = "{1468, 0}";
},
{
name = top;
position = "{912, 2328}";
},
{
name = top0315;
position = "{1600, 2328}";
},
{
name = top_dd;
position = "{1600, 2200}";
}
);
guideLines = (
{
position = "{0, 1238.875}";
},
{
position = "{0, 763.125}";
}
);
layerId = "5C20EF92-B63D-42A8-8878-93C2863E0093";
paths = (
{
closed = 1;
nodes = (
"604 1028 OFFCURVE",
"664 1192 OFFCURVE",
"836 1192 CURVE SMOOTH",
"964 1192 OFFCURVE",
"1008 1100 OFFCURVE",
"1008 964 CURVE SMOOTH",
"1008 0 LINE",
"1468 0 LINE",
"1468 960 LINE SMOOTH",
"1468 1368 OFFCURVE",
"1276 1556 OFFCURVE",
"1000 1556 CURVE SMOOTH",
"832 1556 OFFCURVE",
"692 1488 OFFCURVE",
"604 1372 CURVE",
"588 1372 LINE",
"588 2048 LINE",
"144 2048 LINE",
"144 0 LINE",
"604 0 LINE",
"604 816 LINE SMOOTH"
);
}
);
width = 1612;
}
);
leftKerningGroup = B;
rightKerningGroup = a;
unicode = 0068;
userData = {
"interface.width-adjustments" = (
-16
);
};
},
{
glyphname = djecyrillic;
lastChange = "2018-09-01 23:10:14 +0000";
layers = (
{
layerId = "C698F293-3EC0-4A5A-A3A0-0FDB1F5CF265";
paths = (
{
closed = 1;
nodes = (
"1200 -164 LINE SMOOTH",
"1200 -324 OFFCURVE",
"1104 -372 OFFCURVE",
"976 -372 CURVE SMOOTH",
"948 -372 OFFCURVE",
"920 -368 OFFCURVE",
"900 -364 CURVE",
"900 -564 LINE",
"936 -576 OFFCURVE",
"988 -576 OFFCURVE",
"1036 -576 CURVE SMOOTH",
"1260 -576 OFFCURVE",
"1436 -428 OFFCURVE",
"1436 -164 CURVE SMOOTH",
"1436 36 LINE",
"1200 36 LINE"
);
},
{
closed = 1;
nodes = (
"468 1216 OFFCURVE",
"676 1328 OFFCURVE",
"864 1328 CURVE SMOOTH",
"1068 1328 OFFCURVE",
"1200 1200 OFFCURVE",
"1200 976 CURVE SMOOTH",
"1200 0 LINE",
"1436 0 LINE",
"1436 976 LINE SMOOTH",
"1436 1356 OFFCURVE",
"1228 1556 OFFCURVE",
"940 1556 CURVE SMOOTH",
"708 1556 OFFCURVE",
"560 1436 OFFCURVE",
"484 1320 CURVE",
"468 1320 LINE",
"468 2048 LINE",
"232 2048 LINE",
"232 0 LINE",
"468 0 LINE",
"468 928 LINE SMOOTH"
);
},
{
closed = 1;
nodes = (
"8 1920 LINE",
"8 1736 LINE",
"888 1736 LINE",
"888 1920 LINE"
);
}
);
width = 1652;
},
{
layerId = "5C20EF92-B63D-42A8-8878-93C2863E0093";
paths = (
{
closed = 1;
nodes = (
"1132 -20 LINE SMOOTH",
"1132 -168 OFFCURVE",
"1076 -244 OFFCURVE",
"972 -244 CURVE SMOOTH",
"912 -244 OFFCURVE",
"880 -240 OFFCURVE",
"832 -228 CURVE",
"816 -580 LINE",
"892 -596 OFFCURVE",
"952 -600 OFFCURVE",
"1028 -600 CURVE SMOOTH",
"1368 -600 OFFCURVE",
"1576 -396 OFFCURVE",
"1576 -20 CURVE SMOOTH",
"1576 656 LINE",
"1132 656 LINE"
);
},
{
closed = 1;
nodes = (
"712 1028 OFFCURVE",
"772 1192 OFFCURVE",
"944 1192 CURVE SMOOTH",
"1072 1192 OFFCURVE",
"1116 1100 OFFCURVE",
"1116 964 CURVE SMOOTH",
"1116 0 LINE",
"1576 0 LINE",
"1576 960 LINE SMOOTH",
"1576 1368 OFFCURVE",
"1384 1556 OFFCURVE",
"1108 1556 CURVE SMOOTH",
"940 1556 OFFCURVE",
"800 1488 OFFCURVE",
"712 1372 CURVE",
"696 1372 LINE",
"696 2048 LINE",
"252 2048 LINE",
"252 0 LINE",
"712 0 LINE",
"712 816 LINE SMOOTH"
);
},
{
closed = 1;
nodes = (
"-8 1892 LINE",
"-8 1628 LINE",
"984 1628 LINE",
"984 1892 LINE"
);
}
);
width = 1568;
}
);
rightKerningGroup = acyrillic;
unicode = 0452;
userData = {
interface.gridadjust.original = "{'width': 1552, 'leftMargin': -33, 'rightMargin': 16}";
"interface.width-adjustments" = (
-16
);
};
},
{
glyphname = hhook;
lastChange = "2018-09-01 23:10:14 +0000";
layers = (
{
anchors = (
{
name = bottom;
position = "{764, 0}";
},
{
name = top;
position = "{840, 2340}";
},
{
name = top0315;
position = "{1532, 2340}";
}
);
layerId = "C698F293-3EC0-4A5A-A3A0-0FDB1F5CF265";
paths = (
{
closed = 1;
nodes = (
"452 1664 LINE SMOOTH",
"452 1824 OFFCURVE",
"548 1872 OFFCURVE",
"676 1872 CURVE SMOOTH",
"704 1872 OFFCURVE",
"732 1868 OFFCURVE",
"752 1864 CURVE",
"752 2064 LINE",
"716 2076 OFFCURVE",
"664 2076 OFFCURVE",
"616 2076 CURVE SMOOTH",
"392 2076 OFFCURVE",
"216 1928 OFFCURVE",
"216 1664 CURVE SMOOTH",
"216 1464 LINE",
"452 1464 LINE"
);
},
{
closed = 1;
nodes = (
"452 1216 OFFCURVE",
"660 1328 OFFCURVE",
"848 1328 CURVE SMOOTH",
"1052 1328 OFFCURVE",
"1184 1200 OFFCURVE",
"1184 976 CURVE SMOOTH",
"1184 0 LINE",
"1420 0 LINE",
"1420 976 LINE SMOOTH",
"1420 1356 OFFCURVE",
"1212 1556 OFFCURVE",
"924 1556 CURVE SMOOTH",
"692 1556 OFFCURVE",
"544 1436 OFFCURVE",
"468 1320 CURVE",
"452 1320 LINE",
"452 1536 LINE",
"216 1536 LINE",
"216 0 LINE",
"452 0 LINE",
"452 928 LINE SMOOTH"
);
}
);
width = 1636;
},
{
anchors = (
{
name = bottom;
position = "{796, 0}";
},
{
name = top;
position = "{852, 2340}";
},
{
name = top0315;
position = "{1580, 2340}";
}
);
layerId = "5C20EF92-B63D-42A8-8878-93C2863E0093";
paths = (
{
closed = 1;
nodes = (
"596 1580 LINE SMOOTH",
"596 1692 OFFCURVE",
"696 1720 OFFCURVE",
"800 1720 CURVE SMOOTH",
"840 1720 OFFCURVE",
"876 1716 OFFCURVE",
"908 1712 CURVE",
"908 2060 LINE",
"852 2068 OFFCURVE",
"776 2076 OFFCURVE",
"676 2076 CURVE SMOOTH",
"436 2076 OFFCURVE",
"144 2016 OFFCURVE",
"144 1580 CURVE SMOOTH",
"144 1316 LINE",
"596 1316 LINE"
);
},
{
closed = 1;
nodes = (
"604 1028 OFFCURVE",
"664 1192 OFFCURVE",
"836 1192 CURVE SMOOTH",
"964 1192 OFFCURVE",
"1008 1100 OFFCURVE",
"1008 964 CURVE SMOOTH",
"1008 0 LINE",
"1468 0 LINE",
"1468 960 LINE SMOOTH",
"1468 1368 OFFCURVE",
"1276 1556 OFFCURVE",
"1000 1556 CURVE SMOOTH",
"832 1556 OFFCURVE",
"692 1488 OFFCURVE",
"604 1372 CURVE",
"588 1372 LINE",
"588 1476 LINE",
"144 1476 LINE",
"144 0 LINE",
"604 0 LINE",
"604 816 LINE SMOOTH"
);
}
);
width = 1612;
}
);
rightKerningGroup = a;
unicode = 0266;
userData = {
interface.gridadjust.original = "{'width': 1552, 'leftMargin': 188, 'rightMargin': 182}";
"interface.width-adjustments" = (
-16
);
};
},
{
glyphname = henghook;
lastChange = "2018-09-01 23:10:14 +0000";
layers = (
{
anchors = (
{
name = bottom;
position = "{764, -616}";
},
{
name = top;
position = "{840, 2340}";
},
{
name = top0315;
position = "{1532, 2340}";
}
);
layerId = "C698F293-3EC0-4A5A-A3A0-0FDB1F5CF265";
paths = (
{
closed = 1;
nodes = (
"452 1664 LINE SMOOTH",
"452 1824 OFFCURVE",
"548 1872 OFFCURVE",
"676 1872 CURVE SMOOTH",
"704 1872 OFFCURVE",
"732 1868 OFFCURVE",
"752 1864 CURVE",
"752 2064 LINE",
"716 2076 OFFCURVE",
"664 2076 OFFCURVE",
"616 2076 CURVE SMOOTH",
"392 2076 OFFCURVE",
"216 1928 OFFCURVE",
"216 1664 CURVE SMOOTH",
"216 1464 LINE",
"452 1464 LINE"
);
},
{
closed = 1;
nodes = (
"452 1216 OFFCURVE",
"660 1328 OFFCURVE",
"848 1328 CURVE SMOOTH",
"1052 1328 OFFCURVE",
"1184 1200 OFFCURVE",
"1184 976 CURVE SMOOTH",
"1184 0 LINE",
"1420 0 LINE",
"1420 976 LINE SMOOTH",
"1420 1356 OFFCURVE",
"1212 1556 OFFCURVE",
"924 1556 CURVE SMOOTH",
"692 1556 OFFCURVE",
"544 1436 OFFCURVE",
"468 1320 CURVE",
"452 1320 LINE",
"452 1536 LINE",
"216 1536 LINE",
"216 0 LINE",
"452 0 LINE",
"452 928 LINE SMOOTH"
);
},
{
closed = 1;
nodes = (
"1184 -164 LINE SMOOTH",
"1184 -324 OFFCURVE",
"1088 -372 OFFCURVE",
"960 -372 CURVE SMOOTH",
"932 -372 OFFCURVE",
"904 -368 OFFCURVE",
"884 -364 CURVE",
"884 -564 LINE",
"920 -576 OFFCURVE",
"972 -576 OFFCURVE",
"1020 -576 CURVE SMOOTH",
"1244 -576 OFFCURVE",
"1420 -428 OFFCURVE",
"1420 -164 CURVE SMOOTH",
"1420 36 LINE",
"1184 36 LINE"
);
}
);
width = 1636;
},
{
anchors = (
{
name = bottom;
position = "{796, -616}";
},
{
name = top;
position = "{852, 2340}";
},
{
name = top0315;
position = "{1580, 2340}";
}
);
layerId = "5C20EF92-B63D-42A8-8878-93C2863E0093";
paths = (
{
closed = 1;
nodes = (
"596 1580 LINE SMOOTH",
"596 1692 OFFCURVE",
"696 1720 OFFCURVE",
"800 1720 CURVE SMOOTH",
"840 1720 OFFCURVE",
"876 1716 OFFCURVE",
"908 1712 CURVE",
"908 2060 LINE",
"852 2068 OFFCURVE",
"776 2076 OFFCURVE",
"676 2076 CURVE SMOOTH",
"436 2076 OFFCURVE",
"144 2016 OFFCURVE",
"144 1580 CURVE SMOOTH",
"144 1316 LINE",
"596 1316 LINE"
);
},
{
closed = 1;
nodes = (
"604 1028 OFFCURVE",
"664 1192 OFFCURVE",
"836 1192 CURVE SMOOTH",
"964 1192 OFFCURVE",
"1008 1100 OFFCURVE",
"1008 964 CURVE SMOOTH",
"1008 0 LINE",
"1468 0 LINE",
"1468 960 LINE SMOOTH",
"1468 1368 OFFCURVE",
"1276 1556 OFFCURVE",
"1000 1556 CURVE SMOOTH",
"832 1556 OFFCURVE",
"692 1488 OFFCURVE",
"604 1372 CURVE",
"588 1372 LINE",
"588 1476 LINE",
"144 1476 LINE",
"144 0 LINE",
"604 0 LINE",
"604 816 LINE SMOOTH"
);
},
{
closed = 1;
nodes = (
"1008 -80 LINE SMOOTH",
"1008 -192 OFFCURVE",
"908 -220 OFFCURVE",
"804 -220 CURVE SMOOTH",
"764 -220 OFFCURVE",
"728 -216 OFFCURVE",
"696 -212 CURVE",
"696 -560 LINE",
"752 -568 OFFCURVE",
"828 -576 OFFCURVE",
"928 -576 CURVE SMOOTH",
"1168 -576 OFFCURVE",
"1468 -516 OFFCURVE",
"1468 -80 CURVE SMOOTH",
"1468 184 LINE",
"1008 184 LINE"
);
}
);
width = 1612;
}
);
rightKerningGroup = a;
unicode = 0267;
userData = {
interface.gridadjust.original = "{'width': 1552, 'leftMargin': 188, 'rightMargin': 182}";
"interface.width-adjustments" = (
-16
);
};
},
{
glyphname = hv;
lastChange = "2018-09-01 23:10:14 +0000";
layers = (
{
layerId = "C698F293-3EC0-4A5A-A3A0-0FDB1F5CF265";
paths = (
{
closed = 1;
nodes = (
"2112 -28 OFFCURVE",
"2360 156 OFFCURVE",
"2360 608 CURVE SMOOTH",
"2360 1536 LINE",
"2124 1536 LINE",
"2124 608 LINE SMOOTH",
"2124 248 OFFCURVE",
"1908 180 OFFCURVE",
"1772 180 CURVE SMOOTH",
"1636 180 OFFCURVE",
"1420 248 OFFCURVE",
"1420 608 CURVE SMOOTH",
"1420 800 LINE",
"1184 800 LINE",
"1184 608 LINE SMOOTH",
"1184 156 OFFCURVE",
"1432 -28 OFFCURVE",
"1772 -28 CURVE SMOOTH"
);
},
{
closed = 1;
nodes = (
"452 1216 OFFCURVE",
"664 1328 OFFCURVE",
"848 1328 CURVE SMOOTH",
"1048 1328 OFFCURVE",
"1184 1200 OFFCURVE",
"1184 976 CURVE SMOOTH",
"1184 752 LINE",
"1420 752 LINE",
"1420 976 LINE SMOOTH",
"1420 1368 OFFCURVE",
"1212 1556 OFFCURVE",
"924 1556 CURVE SMOOTH",
"692 1556 OFFCURVE",
"544 1436 OFFCURVE",
"468 1320 CURVE",
"452 1320 LINE",
"452 2048 LINE",
"216 2048 LINE",
"216 0 LINE",
"452 0 LINE",
"452 928 LINE SMOOTH"
);
}
);
width = 2576;
},
{
layerId = "5C20EF92-B63D-42A8-8878-93C2863E0093";
paths = (
{
closed = 1;
nodes = (
"2088 -28 OFFCURVE",
"2316 256 OFFCURVE",
"2316 596 CURVE SMOOTH",
"2316 1536 LINE",
"1856 1536 LINE",
"1856 596 LINE SMOOTH",
"1856 436 OFFCURVE",
"1784 352 OFFCURVE",
"1660 352 CURVE SMOOTH",
"1536 352 OFFCURVE",
"1468 436 OFFCURVE",
"1468 596 CURVE SMOOTH",
"1468 740 LINE",
"1008 740 LINE",
"1008 596 LINE SMOOTH",
"1008 256 OFFCURVE",
"1232 -28 OFFCURVE",
"1660 -28 CURVE SMOOTH"
);
},
{
closed = 1;
nodes = (
"604 1028 OFFCURVE",
"664 1192 OFFCURVE",
"836 1192 CURVE SMOOTH",
"964 1192 OFFCURVE",
"1008 1100 OFFCURVE",
"1008 964 CURVE SMOOTH",
"1008 672 LINE",
"1468 672 LINE",
"1468 960 LINE SMOOTH",
"1468 1368 OFFCURVE",
"1276 1556 OFFCURVE",
"1000 1556 CURVE SMOOTH",
"832 1556 OFFCURVE",
"692 1488 OFFCURVE",
"604 1372 CURVE",
"588 1372 LINE",
"588 2048 LINE",
"144 2048 LINE",
"144 0 LINE",
"604 0 LINE",
"604 816 LINE SMOOTH"
);
}
);
width = 2460;
}
);
unicode = 0195;
userData = {
interface.gridadjust.original = "{'width': 2349, 'leftMargin': 188, 'rightMargin': 187}";
"interface.width-adjustments" = (
-16
);
};
},
{
glyphname = hturnlthook;
lastChange = "2018-09-01 23:10:14 +0000";
layers = (
{
anchors = (
{
name = bottom;
position = "{1004, -616}";
},
{
name = top;
position = "{1004, 1776}";
},
{
name = top0315;
position = "{1860, 1776}";
}
);
layerId = "C698F293-3EC0-4A5A-A3A0-0FDB1F5CF265";
paths = (
{
closed = 1;
nodes = (
"1184 320 OFFCURVE",
"976 208 OFFCURVE",
"788 208 CURVE SMOOTH",
"584 208 OFFCURVE",
"452 336 OFFCURVE",
"452 560 CURVE SMOOTH",
"452 960 LINE",
"216 960 LINE",
"216 560 LINE SMOOTH",
"216 168 OFFCURVE",
"424 -20 OFFCURVE",
"712 -20 CURVE SMOOTH",
"944 -20 OFFCURVE",
"1092 100 OFFCURVE",
"1168 216 CURVE",
"1184 216 LINE",
"1184 -576 LINE",
"1420 -576 LINE",
"1420 1536 LINE",
"1184 1536 LINE",
"1184 608 LINE SMOOTH"
);
},
{
closed = 1;
nodes = (
"452 944 LINE",
"452 1144 LINE SMOOTH",
"452 1408 OFFCURVE",
"276 1556 OFFCURVE",
"52 1556 CURVE SMOOTH",
"4 1556 OFFCURVE",
"-48 1556 OFFCURVE",
"-84 1544 CURVE",
"-84 1344 LINE",
"-64 1348 OFFCURVE",
"-36 1352 OFFCURVE",
"-8 1352 CURVE SMOOTH",
"120 1352 OFFCURVE",
"216 1304 OFFCURVE",
"216 1144 CURVE SMOOTH",
"216 944 LINE"
);
}
);
width = 1636;
},
{
anchors = (
{
name = bottom;
position = "{1044, -616}";
},
{
name = top;
position = "{1044, 1776}";
},
{
name = top0315;
position = "{1888, 1776}";
}
);
layerId = "5C20EF92-B63D-42A8-8878-93C2863E0093";
paths = (
{
closed = 1;
nodes = (
"1160 508 OFFCURVE",
"1100 344 OFFCURVE",
"928 344 CURVE SMOOTH",
"800 344 OFFCURVE",
"756 436 OFFCURVE",
"756 572 CURVE SMOOTH",
"756 1016 LINE",
"296 1016 LINE",
"296 576 LINE SMOOTH",
"296 168 OFFCURVE",
"488 -20 OFFCURVE",
"764 -20 CURVE SMOOTH",
"932 -20 OFFCURVE",
"1072 48 OFFCURVE",
"1160 164 CURVE",
"1176 164 LINE",
"1176 -576 LINE",
"1620 -576 LINE",
"1620 1536 LINE",
"1160 1536 LINE",
"1160 720 LINE SMOOTH"
);
},
{
closed = 1;
nodes = (
"756 796 LINE",
"756 1060 LINE SMOOTH",
"756 1496 OFFCURVE",
"456 1556 OFFCURVE",
"216 1556 CURVE SMOOTH",
"116 1556 OFFCURVE",
"40 1548 OFFCURVE",
"-16 1540 CURVE",
"-16 1192 LINE",
"16 1196 OFFCURVE",
"52 1200 OFFCURVE",
"92 1200 CURVE SMOOTH",
"196 1200 OFFCURVE",
"296 1172 OFFCURVE",
"296 1060 CURVE SMOOTH",
"296 796 LINE"
);
}
);
width = 1764;
}
);
rightKerningGroup = g;
unicode = 02AE;
userData = {
interface.gridadjust.original = "{'width': 1766, 'leftMargin': 41, 'rightMargin': 214}";
"interface.width-adjustments" = (
-16
);
};
},
